<?xml version="1.0" encoding="UTF-8"?>
<svg id="Layer_1" data-name="Layer 1" xmlns="http://www.w3.org/2000/svg" width="45mm" height="45mm" viewBox="0 0 127.56 127.56">
  <g id="rottenApple">
    <path d="M104.82,36.11s-27.79-4.95-16.37,21.32c0,0-23.48,7.97-.65,17.66,0,0-1.51,12.49,22.4,18.52,0,0-15.51-10.55-6.68-21.97,0,0-12.49-8.83,1.29-19.39,0,0-10.34-7.75,0-16.16Z" style="fill: #fcf5a4; stroke: #fcf5a4; stroke-miterlimit: 10;"/>
    <g>
      <path d="M38.77,40.81s-17.29-5.92-12.5-16.03c0,0,2.42-8.4,15.83,2.14.54.42,1.35.15,1.51-.51.68-2.83,3.17-6.88,12.04,13.08l-1.43,4.66s-6.44-4.59-15.45-3.34Z" style="fill: #7bb842;"/>
      <path d="M39.17,39.36c-1.22-.42-1.8-.69-3.03-1.29-2.16-1.05-4.27-2.3-6.05-3.93s-3.22-3.6-3.16-6.02c.02-1.07.41-2,.79-2.98.13-.33-.07.12-.03.05.09-.18.18-.36.28-.54.05-.1.12-.19.19-.28.13-.19-.22.23.06-.07.09-.1.19-.2.28-.3.08-.08.5-.4.21-.2.62-.44,1.12-.61,1.71-.67,2.98-.3,5.99,1.6,8.33,3.19,1.57,1.06,3.52,3.33,5.49,1.73.65-.53.81-1.31,1.06-2.06.12-.38-.1.18,0,.01.04-.08.07-.16.12-.24s.09-.15.14-.22c.13-.22,0,.18-.02.03,0-.02.15-.16.17-.17-.52.07-.03.2-.04.06,0,.06-.37.09-.16.07s-.33-.13-.03,0c.36.16-.07-.07.09.02.14.08.27.16.41.25.13.08-.12-.13.19.16.76.7,1.37,1.47,1.95,2.32,2.54,3.71,4.42,7.88,6.25,11.96l-.15-1.16-1.43,4.66,2.2-.9c-4.52-3.2-10.84-4.24-16.21-3.54-1.89.24-1.91,3.25,0,3,4.92-.64,10.55.2,14.69,3.13.82.58,1.94-.04,2.2-.9l1.06-3.45c.12-.39.3-.81.37-1.21.14-.77-.24-1.36-.55-2.05-.34-.76-.69-1.52-1.05-2.28-1.7-3.61-3.5-7.34-6.04-10.46-1.01-1.24-2.43-2.66-4.17-2.55-1.49.09-2.39,1.32-2.87,2.61-.06.17-.21.44-.2.62,0,.04-.06.12-.04.16.03.06.59-.29.59-.39.02-.25-1.87-1.4-2.15-1.59-1.88-1.3-3.9-2.47-6.07-3.22-2.36-.81-5.2-1.04-7.35.46-1.15.8-1.84,1.86-2.37,3.13-.02.05-.44,1.06-.56,1.51-.23.84-.36,1.73-.33,2.6.04,1.58.52,3.11,1.31,4.48,2.66,4.61,8.23,7.63,13.13,9.32,1.83.63,2.62-2.27.8-2.89Z" style="fill: #7bb842;"/>
    </g>
    <g>
      <path d="M64.7,41.52S54.38-1.59,38.02,2.94c0,0-9.82,4.24,12.61,17.88,0,0,9.59,8.32,3.35,23.33l6.89,3.59,3.82-6.22Z" style="fill: #412312;"/>
      <path d="M66.14,41.12c-1.16-4.84-2.71-9.62-4.45-14.28-2.84-7.61-6.32-16-12.36-21.66-2.48-2.32-5.63-4.16-9.13-4.07-1.69.04-3.17.37-4.36,1.58-5.09,5.19,3.66,12.2,7.27,14.91,1.47,1.1,2.99,2.14,4.54,3.13.7.45,1.48.81,2.11,1.33.87.73,1.35,1.49,1.92,2.36,2.7,4.13,3.47,9.16,2.51,13.98-.37,1.84-.95,3.62-1.66,5.36-.24.58.15,1.41.69,1.69l6.89,3.59c.73.38,1.61.18,2.05-.54l3.82-6.22c1.01-1.65-1.58-3.16-2.59-1.51l-3.82,6.22,2.05-.54-6.89-3.59.69,1.69c2.23-5.46,3-11.64.98-17.29-.95-2.66-2.46-5.47-4.59-7.39-.72-.65-1.64-1.09-2.45-1.61-1.51-.97-3-1.97-4.44-3.04-1.95-1.44-3.85-3.03-5.44-4.86-.5-.57-.95-1.18-1.33-1.84s-.45-.77-.63-1.43c-.04-.16-.14-.84-.1-.42-.02-.21-.02-.42-.02-.64,0-.42-.1.18.04-.25.03-.11.2-.58.1-.35s.11-.19.17-.28c.2-.37,0-.03.07-.11.18-.19.36-.37.56-.54-.39.35.18-.13.44-.24-.43.17.37-.02.53-.05.21-.04.55-.07.9-.08.79-.02,1.25.03,1.95.21,1.4.35,2.62,1.01,3.81,1.92,2.87,2.19,5.02,5.33,6.83,8.42,2.07,3.52,3.77,7.25,5.26,11.04,2.06,5.23,3.58,10.57,5.13,15.96.03.09.05.18.07.28.45,1.88,3.34,1.08,2.89-.8Z" style="fill: #412312;"/>
    </g>
    <g>
      <path d="M104.82,36.11s-30.59-15.94-43.94,11.63c0,0-46.96-30.59-49.76,31.66,0,0,11.85,62.25,47.82,41.14,0,0,7.09-14.18,33.59-8.07.88.2,1.81.11,2.63-.29,4.17-2,16.67-8.86,15.05-18.57,0,0-24.77-7.54-22.4-18.52,0,0-21.97-8.62.65-17.66,0,0-12.28-23.05,16.37-21.32Z" style="fill: #893b1d;"/>
      <path d="M105.57,34.81c-3.64-1.89-7.73-3.16-11.74-3.95-7.77-1.54-16.15-1.1-23.04,3.15-4.99,3.07-8.67,7.76-11.22,12.97l2.05-.54c-2.33-1.52-4.89-2.74-7.44-3.83-5.36-2.28-11.13-3.92-16.99-3.89-6.81.04-13.27,2.68-17.75,7.89-7.1,8.24-9.01,19.95-9.7,30.44-.13,2,.02,3.32.46,5.2.58,2.47,1.25,4.91,1.99,7.33,2.24,7.3,5.14,14.53,9.22,21.02,4.15,6.6,9.91,12.91,17.67,15.05,4.03,1.11,8.3.94,12.31-.18,2.45-.69,4.82-1.71,7.06-2.93.95-.52,1.56-.95,2.11-1.8.09-.14.19-.28.28-.41.05-.08.11-.15.16-.22.21-.3-.12.14.04-.05.33-.41.67-.8,1.04-1.18,1.07-1.11,2.02-1.86,3.27-2.65,3.95-2.5,8.62-3.56,13.25-3.74,3.53-.14,7.07.19,10.53.83,1.98.36,4.07,1.17,6.06.48.95-.33,1.86-.86,2.74-1.34,4.74-2.57,9.63-6.06,12.25-10.91,1.4-2.6,1.91-5.4,1.47-8.32-.08-.51-.59-.91-1.05-1.05-2.57-.78-5.09-1.79-7.54-2.9-4.29-1.95-8.9-4.32-11.95-8.01-1.35-1.63-2.29-3.66-1.86-5.78.17-.86-.25-1.53-1.05-1.85-.46-.18.25.12-.22-.09-.43-.2-.87-.39-1.29-.61-1.32-.66-2.61-1.4-3.8-2.28-1.1-.82-2.22-1.86-2.83-3.09-.51-1.04-.46-2.17.38-3.36,1.86-2.67,5.52-4.16,8.41-5.33.91-.37,1.39-1.27.9-2.2-.1-.19-.19-.39-.29-.58-.1-.21-.2-.43-.29-.65-.17-.37.11.28-.05-.13-.07-.18-.15-.37-.22-.55-.64-1.65-1.12-3.35-1.4-5.1s-.24-3.93.38-5.74,2.12-3.5,4.1-4.54c3.85-2.03,8.62-2.02,12.84-1.78,1.93.11,1.92-2.89,0-3-6.65-.38-15.9.18-19.25,7.1-2.01,4.14-1.3,9.06.2,13.25.39,1.1.83,2.2,1.38,3.24l.9-2.2c-4.44,1.8-12.42,5.23-11.2,11.39.72,3.62,4.47,6.11,7.49,7.73.99.53,2.01,1.02,3.06,1.43l-1.05-1.85c-1.06,5.29,2.75,9.46,6.71,12.36s8.8,5.12,13.52,6.89c1.06.4,2.14.79,3.22,1.12l-1.05-1.05c.85,5.57-3.79,10.18-7.94,13.12-1.81,1.28-3.72,2.41-5.69,3.4-.46.23-.92.48-1.45.53-.98.1-2.15-.36-3.11-.54-1.84-.36-3.7-.64-5.57-.83-8.72-.89-18.71.46-25.07,7.09-.68.71-1.32,1.48-1.86,2.3-.12.18-.25.36-.35.56,0,.01-.07.11-.07.12.06.13.2-.47.28-.38-.02-.02-.92.52-.99.55-3.79,2.05-7.99,3.5-12.34,3.46-7.4-.06-13.5-4.75-17.89-10.43s-7.74-12.91-10.21-19.93c-1.55-4.42-2.88-8.95-3.83-13.54-.19-.9.03-1.68.09-2.65.22-3.3.59-6.58,1.19-9.84.9-4.86,2.28-9.71,4.7-14.05,1.71-3.06,4.05-5.92,6.87-7.84,2.54-1.72,5.13-2.68,8.2-3.17,2.38-.38,5.92-.27,8.28.11,2.74.43,5.43,1.17,8.04,2.1,1.15.41,2.36.9,3.14,1.24.97.42,1.93.87,2.87,1.35,1.21.61,2.41,1.26,3.57,1.96.16.1.33.2.48.3.64.42,1.71.17,2.05-.54,2.15-4.38,5.07-8.46,9.14-11.24,3.2-2.2,6.91-3.54,10.76-4.01,6.25-.77,12.64.48,18.5,2.66.53.2,1.05.4,1.56.62.07.03.43.18.05.02.12.05.25.11.37.16.16.07.32.14.49.22.34.16.69.32,1.03.49,1.71.89,3.23-1.7,1.51-2.59Z" style="fill: #893b1d;"/>
    </g>
    <g>
      <path d="M86.29,35.74c-13.9,2.83-16.13,3.59-16.79,11.65,0,.07.05.14.13.13,1.19-.12,9.77-1.13,12.57-4.94,0,0,6.59-6.55,6.64-5.76s2.44-2.09-2.55-1.08Z" style="fill: #d06a28;"/>
      <path d="M85.89,34.29c-2.96.6-5.95,1.18-8.85,2.01-1.81.52-3.71,1.15-5.25,2.27-1.38,1.01-2.33,2.32-2.92,3.93-.28.76-.45,1.56-.57,2.36-.17,1.06-.67,2.81.18,3.68.7.71,1.76.41,2.61.29.95-.13,1.89-.3,2.83-.51,2.5-.55,5.11-1.34,7.25-2.79.51-.34,1-.72,1.44-1.15.19-.19.37-.38.53-.59.04-.05.46-.51.12-.16.01-.01.03-.03.04-.04.39-.38.78-.76,1.17-1.14,1.38-1.33,2.76-2.67,4.24-3.89.07-.06.14-.11.21-.17.16-.12-.2.14.02-.01.1-.07.29-.15.37-.24.11-.13.22.26-.2.08-.09-.04-1.71-1.08-1.69-.93.04.37.44.78.73.95.94.55,2.01,0,2.51-.87.57-.98.33-2.23-.63-2.87-1.18-.78-2.83-.45-4.12-.21-1.89.37-1.09,3.26.8,2.89.55-.11,1.36-.17,1.74-.15-.11,0,.12.14,0,0-.21-.24.27.39-.17-.12-.26-.3-.3-.64-.26-.92.01-.1.02-.16.19-.29-.25.18.39-.19.42-.2.35-.11,2.24,1.76,1.53.53-.2-.35-.54-.61-.93-.72-.9-.25-1.65.36-2.31.88-.73.58-1.43,1.21-2.12,1.84-1.21,1.11-2.47,2.22-3.58,3.43-.6.66-1.14,1.24-1.91,1.72-1.09.68-2.28,1.16-3.5,1.54-1.31.42-2.65.73-4.01.98-.52.09-1.03.18-1.55.25.34-.05-.1,0-.21.03-.27.05-.44-.07-.08.06l1.05,1.05c.1.28.08-.34.09-.45.02-.24.05-.47.08-.71-.02.14.05-.36.07-.43.03-.16.05-.31.08-.47.13-.69.31-1.38.58-2.04-.14.32.09-.17.12-.22.08-.14.16-.29.24-.43.06-.1.13-.21.2-.31.1-.14.1-.13-.01.01.05-.06.1-.13.16-.19.21-.23.43-.45.67-.65.11-.09.25-.2.61-.42,1.45-.9,2.97-1.33,4.7-1.79,2.68-.72,5.41-1.26,8.13-1.81,1.89-.39,1.09-3.28-.8-2.89Z" style="fill: #d06a28;"/>
    </g>
    <g>
      <path d="M37.03,42.13c-5.58,10.99-30.88,65.94,23.53,61.41.11,0,.22-.03.32-.08,1.82-.73,20.11-7.66,42.38,1.17.83.33.95,1.46.2,1.95l-8.22,5.3c-.88.57-1.95.77-2.98.56-5.65-1.16-25.02-4.26-32.17,6.07-1.12,1.62-2.68,2.91-4.51,3.64-9.2,3.69-34.83,8.79-44.47-42.75,0,0-4.78-33.71,24.76-38.85.89-.15,1.57.78,1.16,1.58Z" style="fill: #6e2612;"/>
      <path d="M35.73,41.37c-3.14,6.18-5.8,12.65-7.8,19.29-2.55,8.43-4.34,17.82-2.27,26.54.96,4.07,2.94,7.91,5.96,10.83,3.6,3.48,8.37,5.46,13.23,6.41,3.25.63,6.57.88,9.88.87,2.59,0,5.23.04,7.69-.82,5.34-1.86,11.05-2.69,16.68-2.79,4.66-.08,9.32.36,13.87,1.36,2.73.6,5.41,1.37,8.04,2.32.28.1.64.29.92.34.47.08.23.22.52-.04.19-.17.29-.31.13-.32-.2-.02-.75.48-.91.59l-6.45,4.16c-.88.57-1.65,1.03-2.77.85-1.01-.16-2.01-.38-3.02-.54-6.31-.98-12.94-1.33-19.2.16-3.27.78-6.43,2.15-8.97,4.38-1.4,1.23-2.3,2.86-3.64,4.13-.95.9-2.07,1.5-3.28,1.94-1.15.42-2.32.78-3.51,1.06-1.59.38-2.59.53-4,.64-3.48.27-6.4-.07-9.67-1.24-9.87-3.53-15.91-13.89-19.47-23.36-1.51-4.02-2.71-8.16-3.71-12.34-.3-1.24-.57-2.49-.83-3.73-.2-.98-.27-2.13-.61-3.06.23.63.02.18,0-.13-.3-2.8-.29-5.65-.08-8.46.76-10.06,4.98-20.21,14.28-25.25,1.38-.75,2.82-1.37,4.31-1.87.77-.26,1.56-.49,2.35-.69.41-.11.82-.2,1.24-.29.23-.05.58-.06.8-.16l.16-.03c.46,0,.45-.12-.03-.39-.62,1.83,2.27,2.62,2.89.8.34-1,.11-2.09-.68-2.82-.87-.79-1.91-.69-2.98-.49-1.83.35-3.63.83-5.38,1.48-3.12,1.14-6.01,2.74-8.58,4.84-4.42,3.6-7.46,8.58-9.26,13.94-2.13,6.31-2.95,13.69-1.92,20.32,1.32,8.49,3.91,17.13,7.57,24.9,2.5,5.31,5.79,10.45,10.22,14.36,6.04,5.32,13.75,7.59,21.69,6.41,3.02-.45,6.55-1.28,9.09-3.03,1.78-1.23,2.79-2.96,4.25-4.49,1.14-1.19,2.47-2.11,3.94-2.85,3.03-1.53,6.51-2.16,9.88-2.39s6.63-.08,9.92.29c1.26.14,2.52.33,3.78.55,1.39.24,2.79.67,4.2.37,1.06-.23,1.92-.81,2.81-1.38l3.4-2.19,3.17-2.04c.96-.62,1.87-1.32,1.87-2.6.01-2.62-3.57-3.19-5.47-3.82-2.59-.85-5.24-1.53-7.93-2.04-4.61-.87-9.32-1.25-14.01-1.09-5.65.2-11.44,1.06-16.78,2.99-.93.34-1.78.41-2.79.47-1.91.11-3.83.15-5.75.09-3.15-.09-6.29-.44-9.34-1.25-4.4-1.17-8.63-3.44-11.35-6.99-5.31-6.91-4.81-16.63-3.19-24.82s4.5-15.89,7.9-23.14c.5-1.07,1.02-2.14,1.56-3.19.87-1.72-1.72-3.24-2.59-1.51Z" style="fill: #6e2612;"/>
    </g>
    <path d="M27.92,98.79c1.15-.09,15.01,13.57,20.03,13.57,4.32,0,8.07,7.35-1.09,6.65-3.15-.24-6.17-1.35-8.78-3.13-4.58-3.11-12.38-8.99-11.46-12.36,0,0,.14-4.65,1.29-4.74Z" style="fill: #893b1d; stroke: #893b1d; stroke-miterlimit: 10;"/>
    <g>
      <g>
        <path d="M58.02,77.03s-15.29.85-21.71-8.4c0,0-11.42-10.44-5.6-11.68,0,0,7.75-2.75,9.48,1.56,0,0,5.82,7.97,18.74,10.77,0,0,4,4.31-.91,7.75Z" style="fill: #c8dd71;"/>
        <path d="M58.02,75.53c-4.34.23-8.94-.52-12.96-2.11-1.58-.63-3.12-1.46-4.48-2.49s-2.15-2.2-3.22-3.38c-1.21-1.33-2.57-2.51-3.75-3.87-.83-.96-1.62-1.96-2.27-3.05-.22-.38-.47-.84-.59-1.15-.08-.23-.13-.45-.19-.69.01.05,0-.3,0-.14,0-.15.07-.11.05-.1.28-.07.55-.17.82-.25.95-.28,1.92-.53,2.9-.64,1.19-.13,2.78-.23,3.8.54.53.4.78,1.12,1.2,1.64,1.24,1.52,2.72,2.84,4.27,4.03,3.44,2.67,7.37,4.65,11.52,5.96.65.2,1.3.39,1.96.56.29.08.73.27,1.02.25.08,0-.41-.34-.2-.24s-.02-.05.14.18.32.48.45.74c.89,1.74.3,3.29-1.24,4.43s-.04,3.74,1.51,2.59c1.82-1.34,3.27-3.14,3.18-5.51-.05-1.46-.65-2.86-1.51-4.02-.46-.61-.74-.83-1.54-1.06-1.31-.36-2.62-.67-3.91-1.11-2.18-.75-4.28-1.72-6.27-2.89-2.48-1.46-4.79-3.24-6.72-5.39-.19-.22-.38-.44-.57-.66-.21-.24,0-.05.08.11-.07-.16-.16-.34-.25-.49-.86-1.52-2.47-2.34-4.14-2.59-2.42-.37-5.03.13-7.33.95-3,1.06-2.38,4.22-1.11,6.41,1.41,2.41,3.4,4.53,5.37,6.49s3.42,3.95,5.81,5.54c5.11,3.39,12.05,4.76,18.14,4.44,1.92-.1,1.93-3.1,0-3Z" style="fill: #c8dd71;"/>
      </g>
      <path d="M31.89,65.46c2.13-.15,4.07-.89,5.68-2.31s2.63-3.35,3.4-5.32c.28-.73-.31-1.68-1.05-1.85-.86-.2-1.54.26-1.85,1.05-.05.13-.1.25-.15.38-.04.1-.03.07.04-.09-.02.05-.05.1-.07.16-.1.22-.2.44-.31.66-.19.38-.4.76-.63,1.12-.12.19-.24.37-.37.55-.03.04-.06.08-.09.12-.1.13-.08.11.05-.06-.02.08-.14.17-.19.23-.26.31-.54.6-.84.87-.07.06-.14.13-.21.19-.04.03-.07.06-.11.09-.12.1-.1.08.08-.06-.06-.01-.39.28-.46.32-.16.1-.32.19-.49.28-.08.04-.17.09-.25.13-.04.02-.41.19-.17.08s-.08.03-.13.05c-.11.04-.21.08-.32.11-.19.06-.37.11-.56.16s-.39.08-.59.12c-.33.06.3-.03,0,0-.14.01-.28.03-.42.04-.78.06-1.54.65-1.5,1.5.03.76.66,1.56,1.5,1.5h0Z" style="fill: #8dc641;"/>
      <path d="M36.32,70.13c2.01.23,3.9-.44,5.44-1.7,1.78-1.47,2.85-3.67,3.65-5.78.28-.73-.31-1.68-1.05-1.85-.86-.2-1.55.26-1.85,1.05-.06.16-.13.32-.19.49-.12.3.1-.21-.04.11-.12.26-.23.52-.36.77-.22.44-.45.86-.71,1.28-.13.21-.27.41-.41.6-.03.04-.06.08-.09.12-.07.09-.04.05.08-.11-.01.07-.17.2-.22.26-.27.31-.56.61-.88.88-.19.16-.12.07.03-.02-.1.05-.19.14-.28.2-.14.09-.28.18-.43.26-.1.05-.19.1-.29.15-.11.05-.36.11.06-.02-.18.05-.36.13-.54.19-.16.05-.32.08-.48.11-.15.03-.47,0,0,0-.08,0-.17.02-.25.02-.4.03-.8.01-1.2-.03-.78-.09-1.53.75-1.5,1.5.04.89.66,1.4,1.5,1.5h0Z" style="fill: #8dc641;"/>
      <path d="M41.87,74.77c2.08-.62,3.84-1.83,5.08-3.61,1.31-1.88,1.78-4.23,1.93-6.48.05-.78-.73-1.53-1.5-1.5-.86.04-1.44.66-1.5,1.5-.02.29-.04.57-.08.86,0,.06-.01.13-.02.19.02-.17.03-.19.01-.08-.02.12-.04.25-.06.37-.08.49-.19.97-.34,1.44-.06.21-.13.43-.21.64-.03.09-.07.22-.12.31.19-.33.02-.04-.02.03-.18.39-.39.77-.63,1.12-.06.08-.12.16-.17.25-.07.11.21-.24,0,.01-.14.16-.28.32-.43.48-.14.14-.28.27-.43.4-.06.05-.16.17-.23.19.16-.12.2-.15.11-.09-.04.03-.08.06-.12.09-.33.23-.68.44-1.04.61-.07.04-.2.13-.28.13.2-.08.22-.09.07-.03l-.1.04c-.23.09-.47.17-.71.24-.75.23-1.3,1.06-1.05,1.85s1.04,1.29,1.85,1.05h0Z" style="fill: #8dc641;"/>
      <path d="M51.35,77.5c2.9-2.36,4.47-5.75,4.62-9.47.03-.78-.71-1.54-1.5-1.5-.84.04-1.47.66-1.5,1.5,0,.22-.02.44-.04.66,0,.09-.02.17-.02.26,0,.04-.05.4-.02.18s-.03.18-.03.18c-.01.08-.03.17-.04.25-.03.18-.07.37-.12.55-.09.38-.2.75-.33,1.11-.03.1-.07.19-.11.28-.01.03-.12.27-.04.1.09-.19-.05.11-.07.15-.04.09-.09.18-.13.27-.16.32-.34.64-.54.94-.1.15-.2.3-.31.45,0,0-.23.3-.1.14s-.09.11-.11.14c-.51.62-1.1,1.18-1.72,1.69s-.56,1.61,0,2.12c.65.6,1.47.53,2.12,0h0Z" style="fill: #8dc641;"/>
    </g>
    <g>
      <g>
        <path d="M68.63,93.62s.65-3.02,6.46-2.8c0,0,3.6,10.65,10.12,10.55,0,0,8.33-7.12,8.79-5.28,0,0,11.02,8.66-10.73,12.79,0,0-11.85-1.04-14.65-15.26Z" style="fill: #c8dd71;"/>
        <path d="M70.07,94.02c.09-.37-.12.17.02-.07.04-.08.29-.45.11-.21.14-.18.3-.35.47-.48,1.13-.91,2.97-.97,4.42-.93l-1.45-1.1c1.57,4.6,4.92,10.63,10.15,11.53,1.27.22,2.05.04,2.99-.75s1.86-1.52,2.82-2.23c1.09-.81,2.21-1.64,3.42-2.25.27-.14.13-.07.43-.19.35-.13.13-.01-.12-.11-.32-.12-1.25-1.2-.64-.37.02.03.21.28.24.3.02.02.04.03.05.04.22.25.51.45.74.7.18.19.35.38.51.58.14.17-.16-.23.06.08.11.15.21.31.31.46.16.26.3.52.43.8-.17-.38.06.17.08.25.05.18.1.36.14.54.03.15.02-.2.02.21,0,.17,0,.34-.01.52.03-.39-.03.14-.06.25-.09.34-.12.36-.15.42-1.06,2.08-4.03,3.23-6.32,3.97-1.82.59-3.73.85-5.54,1.4-.23.07.35.04.19.03-.09,0-.19-.03-.28-.05-.29-.06-.59-.11-.88-.18-6.64-1.62-10.82-7.33-12.17-13.95-.39-1.89-3.28-1.09-2.89.8,1.25,6.11,4.67,11.73,10.37,14.58,1.46.73,3.02,1.32,4.62,1.62.36.07.74.16,1.1.16.96,0,2.07-.38,3-.6,1.1-.26,2.2-.56,3.28-.9,3.88-1.26,9.48-3.84,8.65-8.84-.22-1.35-.92-2.55-1.77-3.6-.17-.21-1.03-1.42-1.36-1.39,0,0,.33.57.35.58.27.21-.62-.94-.42-.73-.2-.21-.4-.33-.65-.44-.55-.22-1.12-.17-1.68-.02-1.19.34-2.31,1.13-3.31,1.83-1.8,1.25-3.54,2.62-5.21,4.05l1.06-.44c-2.9-.02-5-2.55-6.41-4.82-.97-1.55-1.73-3.08-2.26-4.64-.22-.64-.76-1.08-1.45-1.1-2.73-.07-7.15.61-7.91,3.9-.43,1.88,2.46,2.68,2.89.8Z" style="fill: #c8dd71;"/>
      </g>
      <path d="M86.41,99.63c.33,1.71,1.12,3.35,2.38,4.57,1.32,1.28,3.05,2.06,4.83,2.47.76.17,1.66-.23,1.85-1.05.17-.76-.23-1.66-1.05-1.85-.41-.09-.81-.2-1.2-.34-.19-.06-.37-.14-.55-.21.46.17.08.03-.02-.01-.07-.03-.15-.07-.22-.11-.33-.16-.64-.35-.94-.56-.07-.05-.14-.11-.22-.16-.09-.06.31.25.04.02-.13-.11-.26-.23-.39-.35s-.24-.25-.36-.37c-.05-.06-.09-.11-.14-.17-.17-.19.24.33,0,.01-.2-.28-.39-.58-.54-.89-.03-.07-.07-.14-.1-.2-.05-.11-.15-.45,0,0-.05-.17-.13-.34-.19-.52-.12-.36-.21-.74-.28-1.11-.15-.77-1.12-1.28-1.85-1.05-.82.27-1.21,1.02-1.05,1.85h0Z" style="fill: #8dc641;"/>
      <path d="M83.92,100.62c-.77,1.41-1.07,2.92-.81,4.52s1.21,2.96,2.26,4.12c.53.58,1.59.58,2.12,0,.57-.62.56-1.5,0-2.12-.12-.13-.24-.26-.35-.4-.05-.07-.11-.13-.16-.2.11.14.11.14,0,0-.18-.26-.36-.52-.51-.8-.07-.13-.14-.27-.2-.4-.07-.15-.06-.13.02.06-.03-.07-.05-.13-.08-.2-.09-.25-.16-.5-.2-.75-.07-.39,0,.26-.01-.05,0-.13-.02-.27-.02-.4s.01-.27.02-.4c.02-.17.01-.13-.02.1,0-.07.02-.13.03-.2.05-.27.13-.54.22-.8.02-.07.05-.13.08-.2-.08.19-.09.21-.02.06.07-.13.13-.27.21-.4.38-.69.19-1.67-.54-2.05s-1.65-.2-2.05.54h0Z" style="fill: #8dc641;"/>
      <path d="M79.2,98.17c-1.2,1.22-2.19,2.64-2.74,4.27s-.52,3.37-.09,5.01c.2.76,1.08,1.29,1.85,1.05s1.26-1.03,1.05-1.85c-.05-.18-.09-.37-.13-.56-.02-.08-.03-.16-.04-.24-.05-.22.02.26,0,.04-.03-.33-.05-.66-.05-1,0-.17.01-.34.03-.51,0-.04.05-.29,0-.08s0-.04.02-.08c.06-.33.15-.66.25-.98.02-.07.05-.14.08-.21.01-.04.1-.27.03-.08s.02-.04.04-.08c.04-.09.08-.17.12-.26.15-.29.31-.58.49-.85.09-.13.18-.26.27-.39.09-.12.15-.19.02-.03.05-.06.1-.13.15-.19.24-.29.5-.57.76-.84.55-.56.6-1.57,0-2.12s-1.54-.6-2.12,0h0Z" style="fill: #8dc641;"/>
      <path d="M77.6,93.87c-3.65-1.09-6.56,1.87-8.44,4.61-.44.65-.14,1.69.54,2.05.76.4,1.58.15,2.05-.54.14-.2.27-.4.42-.59.06-.08.12-.17.19-.25-.13.16-.06.07.03-.03.25-.31.52-.62.8-.9.25-.26.52-.51.8-.74.24-.2,0,.04-.04.03.02,0,.17-.12.19-.14.14-.09.27-.19.42-.27.12-.07.25-.14.38-.21.04-.02.3-.13.05-.03s0,0,.05-.02c.26-.1.53-.15.8-.21.18-.04-.39.03-.13.02.08,0,.15-.01.23-.01.13,0,.25,0,.38,0,.14,0,.34.08-.1-.02.05.01.1.02.15.03.15.03.3.07.45.11.75.22,1.67-.27,1.85-1.05s-.24-1.61-1.05-1.85h0Z" style="fill: #8dc641;"/>
    </g>
    <g>
      <path d="M56.24,79.11c.05.07.18.21.17.17l-.21-.26.04.09Z" style="fill: #3b1a0c;"/>
      <path d="M56.73,79.48c-.09-.14-.26-.37-.47-.58.19.26.11.15.33.46.01.04-.09-.06-.17-.15.05.07-.07-.03.06.13.19.18.22.16.1-.02.05.05.11.12.14.17Z" style="fill: #3b1a0c;"/>
      <path d="M58.48,78.51l-.04-.02s.03.02.04.02Z" style="fill: #3b1a0c;"/>
      <path d="M59.42,77.7s.02.04.05.06c-.01-.02-.02-.04-.05-.06Z" style="fill: #3b1a0c;"/>
      <path d="M59.84,77.75s-.02,0-.03,0c.03.01.04.02.03,0Z" style="fill: #3b1a0c;"/>
      <path d="M58.48,78.51l.1.05c-.08-.07-.07-.04-.1-.05Z" style="fill: #3b1a0c;"/>
      <path d="M56.39,78.71s.02.04.05.08c0-.01,0-.03-.01-.04l-.03-.04Z" style="fill: #3b1a0c;"/>
      <path d="M58.3,79.08h0s.06.07.09.11l-.08-.11Z" style="fill: #3b1a0c;"/>
      <path d="M58.04,79.42s-.18-.2-.26-.29c.08.09.11.13.12.15.04.04.08.08.14.14Z" style="fill: #3b1a0c;"/>
      <path d="M57.22,79.5l.02.04s-.01-.02-.02-.04Z" style="fill: #3b1a0c;"/>
      <path d="M58.55,78.91s.06.05.08.07l-.08-.07Z" style="fill: #3b1a0c;"/>
      <path d="M58.5,68.97s.03-.02.04-.03c-.03.01-.04.03-.04.03Z" style="fill: #3b1a0c;"/>
      <polygon points="59.42 67.83 59.44 67.83 59.57 67.74 59.42 67.83" style="fill: #3b1a0c;"/>
      <path d="M60.37,77.64h0s.02.02,0,0Z" style="fill: #3b1a0c;"/>
      <path d="M61.84,74.07c-.26-.02-.3-.14-.58-.14.11.02.41.16.58.14Z" style="fill: #3b1a0c;"/>
      <path d="M56.43,78.73s0-.01,0-.01c-.01,0-.01,0,0,.01Z" style="fill: #3b1a0c;"/>
      <path d="M61.26,73.93h0s-.03,0-.03,0c.01,0,.02,0,.03,0Z" style="fill: #3b1a0c;"/>
      <path d="M60.75,76.75s-.08-.04-.11-.06c.03.01.06.03.11.06Z" style="fill: #3b1a0c;"/>
      <path d="M60.05,77.12h.04s-.03,0-.04,0Z" style="fill: #3b1a0c;"/>
      <path d="M60.6,76.24s.06.02.03-.01c-.01,0-.02,0-.03-.01.03.02.04.04,0,.02Z" style="fill: #3b1a0c;"/>
      <path d="M60.77,75.91s-.04-.01-.05-.02v.02s.05,0,.05,0Z" style="fill: #3b1a0c;"/>
      <path d="M59.06,69.69c.07-.04.15-.08.22-.12-.18.09-.26.08-.22.12Z" style="fill: #3b1a0c;"/>
      <path d="M56.5,78.83c-.05-.05-.07-.08-.07-.1,0,0,0,.01,0,.02.03.03.05.06.07.08Z" style="fill: #3b1a0c;"/>
      <path d="M58.67,75.15l.06-.02s-.05,0-.06.02Z" style="fill: #3b1a0c;"/>
      <path d="M59.71,71.65h-.04s0,0,.04,0Z" style="fill: #3b1a0c;"/>
      <path d="M58.75,74.99c.09.04.15.06.18.07-.02-.01-.03-.02-.06-.04l-.12-.03Z" style="fill: #3b1a0c;"/>
      <path d="M59.28,69.56h0s0,0,0,0Z" style="fill: #3b1a0c;"/>
      <path d="M58.55,69.6s.33-.15.52-.24c.12,0-.23.15-.39.25.1-.02.41-.15.41-.12-.05.03-.07.04-.14.07.28-.1.06.09.41-.04-.03.02-.06.03-.08.05.17-.08.33-.17.45-.23.02.02.23-.07.02.05,0-.02-.09.03-.16.05l.1-.03c-.3.17-.12.02-.35.14.12-.01.4-.09.33-.02-.3.15-.14-.02-.39.15l.09-.1c-.46.27.02-.04-.48.24-.06.1.19-.01.13.09.18-.07.25-.12.43-.19.34-.05-.75.42-.32.29.21-.07.61-.24.42-.1l-.36.13c-.01.07.52-.18.31-.02-.14.05-.14,0-.17.03-.26.15.21-.06.23-.02l-.31.13c.07.04.33.02.42.07-.1.03-.2.06-.29.11.2.03.03.2-.14.34l.29-.06s-.12.05-.18.06c-.1.06.18-.05.29-.07.03.01-.15.07-.24.09.25-.02.56.02.28.16h-.09c-.1.09.6-.09.35.03h-.05c-.09.14.19.2-.23.37.42-.06-.17.14.41.04-.28.11-.38.11-.56.22-.02.02.37-.02.44,0l-.31.04h.33s-.36.06-.36.06l.08.02s.13-.04.22-.05c.15.03-.2.13-.36.14l.26.07c-.12,0-.17,0-.25,0,.32.02-.32.04-.03.06.07-.01.18-.01.25-.02-.18.04-.18.09-.1.12h-.21c-.05.08.11.14.11.22.1-.03.47-.03.5,0l-.33.02c.2.01.12-.03.37,0-.04.03-.37.03-.48.01l.12.03c-.1,0-.15,0-.27,0,.2.01-.32.06.03.08h-.1c0,.08.1.11.11.17.28.01.22.03.44.06-.09.05-.32.08-.3.14.14.05.24.03.4.06-.26-.02-.23.04-.42,0,.04.07.05.09.24.2.11,0,.15,0,.24.01.04.02-.11.03-.24,0h-.03c.36.15-.78.1-.26.26h-.03s.26.12.26.12c-.05.03-.19-.06-.35-.06.4.17-.08.12.18.25-.75-.13,0,.21-.49.15l.17.04c.16.07-.1,0-.15,0,.13.04.16.02.25.06.16.23-.34.25-.56.34-.07.04.84.37.42.29l-.3-.14c.32.27-.1.23.15.48-.07-.04-.16-.08-.15-.09-.23-.08-.06.08.12.17-.03,0-.16-.07-.26-.1-.14-.04.24.19.02.1-.04-.02-.07-.04-.08-.05.1.07-.06.06.19.17-.14-.02.07.14-.1.1.26.17-.17,0,.21.22-.4-.22-.36-.1-.19.03-.11-.08-.14-.05-.3-.15,0,.03.05.1.25.21-.5-.21.31.33-.31.01.15.21.24.38.28.52-.38-.25.02-.12-.38-.36.11.17.41.43.27.45-.06-.01-.16-.12-.22-.17.11.18-.13.12.03.33-.03-.02-.07-.06-.09-.08,0,.02-.08,0,.09.11l-.04-.04c.26.15.47.41.6.5-.46-.36-.17-.02-.75-.48.03.03.1.1.21.18-.04-.01-.11-.05-.23-.16.06.11.25.22.21.26-.08-.06-.1-.09-.2-.16.14.13.28.27.19.26-.05-.04-.11-.08-.1-.09-.02.08.33.42.13.37-.33-.28-.13-.06-.43-.29l.06.1.15.1s.16.22.05.18l-.1-.12v.1s.15.05.15.05c.13.15.37.29.26.27-.02-.03-.03.03-.21-.09h0c.08.09.16.19.07.15-.09-.08-.32-.26-.38-.31.23.21,0,.13.24.36-.05-.06-.21-.18-.24-.2l.18.17c-.08-.04-.11-.06-.23-.16-.07.01.38.29.17.21-.01-.02-.04-.04-.07-.07-.13-.02.04.21-.1.17-.3-.23-.03-.1-.29-.29,0,.11.22.44.09.45l.04.02c.39.36-.24-.12-.08.08-.02-.03-.21-.21-.17-.17-.1-.01.02.18.08.36l-.09-.1c-.11-.06-.12.02-.19,0,.09.1.06.1.21.23-.65-.45.14.45-.4.08,0-.01-.06-.1-.07-.1l.03.15c.17.16.11.09.25.2.09.1.15.2.13.21-.08-.14-.26-.26-.37-.34.05.05.1.11.16.16-.32-.26.32.33.08.19l-.08-.09c.03.06.12.19.08.19-.2-.18-.07-.11-.22-.26-.01.04.3.41.09.25-.04-.06-.03-.08-.07-.15-.25-.2-.19-.14-.25-.15h0s-.14-.05-.14-.05l.07.05c.45.53.02.16.29.53-.25-.35-.17-.19-.37-.41-.07-.05-.15-.1-.21-.17.15.2-.17-.11.05.18-.07-.07-.03.01-.19-.17.02.08.12.12.2.21.18.28-.38-.2-.13.19.07.19.29.44.34.61-.12-.1-.22-.28-.22-.28-.12-.08-.13-.04-.08.06-.05-.07-.11-.12-.19-.19,0,.04.22.28.1.19-.07-.09-.17-.22-.24-.31.04.09.13.25.17.33-.12-.12-.16-.21-.22-.3.02.08.03.18.2.39l.08.06s-.16-.17-.18-.21c-.12-.18.1.04.16.11l.02.06c.4.41.01-.14.07-.14l.26.32-.19-.29c.08.07.24.24.27.3.16.13-.08-.13.1.02.03.02.04.04.05.05l-.06-.12c.05.07.2.21.15.18.21.13-.13-.3.1-.08v.02c-.02-.16-.19-.23-.38-.54l.55.52-.2-.23s.04,0,.12.1c-.12-.18-.09-.09-.22-.25.22.17,0-.18.34.17-.15-.18-.15-.1-.23-.25.37.37-.02-.1.17.05.18.2.05.13.25.27-.3-.35.13.02.09-.07-.25-.26-.05-.16-.1-.29.08.09.22.07.35.12l.04.04c-.25-.27-.16-.26-.19-.34.16.16.21.22.27.31l.03-.03c-.08-.09-.11-.14-.13-.19l.19.2s-.16-.3.02-.22c-.18-.18-.55-.46-.62-.63.1.09.27.26.3.31,0-.02-.07-.09-.02-.06l.15.18c.09.05-.13-.15-.1-.15.14.14.11.09.22.2,0,.02-.07-.04-.02.02.04,0,.15.06.27.16-.08-.08-.19-.18-.2-.22.02-.05.18.15.28.2-.09-.1.04-.03-.18-.23.01,0,.11.08.18.13-.08-.11.06-.11-.19-.31h-.02s0-.02,0-.02h0s0,0,0,0c-.15-.26.24-.02.21-.17l.07.07c-.05-.11.02-.13-.11-.3,0-.01.16.09.24.18-.03-.08-.11-.15.05-.09.1.14.12.09.07.11.1.02.23.11.06-.11.18.18.27.18.23.11l-.16-.09s.02-.05.05-.05l.24.23c.38.18-.4-.59.17-.21-.16-.17-.16-.06-.36-.25.07,0,.47.26.48.24.19.06-.34-.35-.2-.33-.1-.07-.35-.26-.41-.37.06,0,.43.26.48.34,0,.02-.03,0-.06-.03.02.04.05.09.16.15l-.09-.08c.11.06.14,0,.28.13-.07-.1-.14-.13-.21-.15.17.06.06-.08.19-.06-.06-.03-.17-.11-.17-.12.17.01-.15-.17-.16-.25.17.08.34.27.25.13.12.04.26.18.33.25-.15-.18.19,0,.24,0l.06.08s-.02-.06-.01-.07l-.2-.13s.05,0,.13.06c-.11-.11-.33-.22-.48-.38.11.05-.06-.13.2.04-.13,0,.26.18.26.26-.02-.03-.01-.04.03-.03.03.02.05.04.06.05.27.1-.27-.24-.22-.29.14.11.29.18.26.15-.02.02-.25-.16-.35-.26.14.04-.05-.1-.02-.11h-.07c-.14-.12-.11-.13-.14-.19.12.08.06.08.12.1-.24-.21.31.11.17-.05.11.05.28.18.36.21-.16-.18.24.08.12-.08-.21-.11-.16-.08-.33-.24l.08.18-.25-.25s.09.14.05.13c-.15-.13-.1-.1-.27-.19.32.16-.13-.18.1-.09l.5.32c.26.08-.18-.28,0-.28l-.1-.03c-.19-.13,0-.07-.06-.14.17.11.24.13.35.18-.13-.07.05-.05-.28-.26l.25.1c.13-.01-.44-.36-.34-.39.18.13.31.17.42.29.01-.02.06-.02-.06-.09.11.05-.2-.19-.03-.12-.07-.05-.25-.16-.22-.17.04.02.09.05.09.05-.09-.05-.1-.1-.3-.19.58.23.05-.2.55-.02-.03-.08-.06-.16-.05-.21.05.03.09.04.07.04.2.02-.49-.28-.27-.26.31.1.14.11.26.14.59.27-.04-.12.33,0l.03.03c.22.05-.19-.19-.12-.24,0,0,.05.02.09.04-.29-.18-.36-.29-.42-.39.23.11.11.08.36.17-.02-.04-.39-.15-.43-.23.14.04.26.05.52.14v.06c.33.11,0-.07.08-.07l.14.06c-.02-.1-.38-.24-.32-.31l-.11-.03c-.35-.18.22.04-.03-.1l.38.12c-.08-.06-.32-.23-.37-.3.27.12.39.23.54.33.01-.03.01-.11-.17-.19.03.02.12.07.06.06-.28-.14-.41-.23-.39-.29.73.25.23-.09.81.03-.24-.19.18-.19.17-.34-.59-.1,0-.04-.6-.18-.03-.04-.02-.05.02-.04h.38c.18,0,.13.05.26.08.06-.06.26.03.43.01-.22-.04-.3-.09-.21-.11h-.29c-.3-.16.52.02.22-.15l.18.07c-.1-.07.04-.2-.44-.32.07,0,.24.02.28.05.09-.12-.47-.34-.16-.39l.15.03s-.27-.07-.12-.08c.06,0,.15.03.16.02-.05-.02-.26-.09-.17-.11l.17.04c.2-.11-.4-.22-.49-.32.44.03.59-.06.66-.1h.06c.06-.14-.35-.25-.52-.37.47-.08.19-.27.45-.41-.08.02-.34.02-.39,0,.09-.04-.31-.06.09-.08h0c.39-.04.28-.1.29-.15l-.53.04c.76-.21-.31-.29.36-.44-.14-.01-.14-.05-.28-.06l.28-.04c.06-.1.08-.15,0-.24h.2c0-.08-.82.06-.84.02l.41-.1c-.03-.1.32-.29-.08-.29.06-.01.18-.04.2-.03,0-.05.23-.25-.33-.09.37-.1,0-.11-.17-.12l.27-.07c-.36.05-.45.08-.56.05.03-.02.21-.08.15-.04.13-.09-.26.04-.14-.06l.18-.03c0-.05-.08-.02-.29.01-.12,0,.04-.11.28-.2-.15.04-.35.08-.29.03.09-.03.15-.04.18-.05.16-.14-.34,0-.11-.15.09-.03.13-.05.15-.07.02.06.02.12,0,.12.24-.08.26-.15.62-.23-.2.02-.62.09-.53,0,.02-.01.04-.02.08-.04h.03s0-.03-.05-.02c.03-.03.06-.05.06-.07.2-.08.08-.1.08-.13-.26.1-.23.06-.44.17.02-.01.03,0,.05,0,0,0,.01,0,.03,0h-.02s.03.04.04.06c-.14.03-.26.05-.13-.03-.17.05-.35.11-.44.13.35-.17.52-.32.74-.42-.18-.02-.17-.15-.67.02-.07,0,.13-.09.2-.13.05,0,.05,0,.12-.02-.14.01-.1-.11-.44.04.13-.12.32-.11.23-.16l.11-.04c.46-.4-.96.19-.36-.29-.04.03-.05.05-.11.08.2-.33-.45-.2-.09-.62.06-.1-.14.01-.31.08l.25-.17-.33.13c-.26.07.55-.51.09-.34l-.16.12c.01-.05-.16-.03.04-.15-.03.02-.18.11-.1.04l.13-.09-.27.08c.06-.12.53-.34.5-.44-.07,0-.44.17-.52.24,0,.02-.06.09-.19.18l-.09.02c-.39.26-.79.51-1.02.76l.26-.12-.18.14-.03-.03c-.16.14,0,.05.12-.01-.1.07-.16.12-.2.16l.4-.21c-.15.11-.31.18-.38.26.18-.09.33-.24.46-.29-.16.14-.31.23-.15.15-.1.07-.17.11-.22.13.13-.06.09.02.3-.1-.21.16.1.04-.27.27.09-.05.32-.15.34-.14-.47.24.02.09-.47.37.42-.22.24-.02.49-.11-.03.02-.1.05-.08.03-.02.05-.14.13-.2.19.34-.19.44-.2.66-.29-.31.22-.41.21-.72.4.27-.16.3-.1.53-.24-.19.14-.09.08-.37.25.43-.23.08-.02.36-.14-.19.15-.4.23-.25.2-.12.09-.29.14-.29.14ZM59.75,70.2h0s-.02,0-.02-.01c0,0,.01,0,.03.01ZM59.79,70.28s0-.03,0-.04c.09-.04.19-.07.18-.06-.06.02-.11.06-.18.1ZM61.54,69.4s0,.03-.06.05c0,0-.02-.01-.04-.02h-.03c.05,0,.1-.02.13-.03Z" style="fill: #3b1a0c;"/>
      <path d="M61.18,69.5s-.02,0-.02,0c-.02.01-.04.02-.05.03l.08-.03h0Z" style="fill: #3b1a0c;"/>
      <path d="M58.44,78.49h0s-.02-.01-.03-.02c.01,0,.02.01.03.02Z" style="fill: #3b1a0c;"/>
      <polygon points="59.56 71.57 59.63 71.56 59.56 71.57 59.56 71.57" style="fill: #3b1a0c;"/>
      <path d="M57.35,78.22l-.06-.05s.03.03.06.05Z" style="fill: #3b1a0c;"/>
      <path d="M57.14,78.35l-.09-.05s.08.04.09.05Z" style="fill: #3b1a0c;"/>
      <path d="M56.92,78.37s.06.06.08.09h0s-.08-.09-.08-.09Z" style="fill: #3b1a0c;"/>
      <path d="M58.49,76.06s0,0,0-.01c-.04-.04-.02-.02,0,.01Z" style="fill: #3b1a0c;"/>
      <path d="M58.52,77.12s-.07-.08-.09-.1c-.03,0-.04,0,.09.1Z" style="fill: #3b1a0c;"/>
      <polygon points="58.66 75.15 58.66 75.15 58.67 75.15 58.66 75.15" style="fill: #3b1a0c;"/>
      <path d="M58.46,76.99c-.05-.02-.05,0-.03.03.02,0,.05,0,.03-.03Z" style="fill: #3b1a0c;"/>
      <path d="M56.26,78.8h-.01s.02.02.03.03l-.02-.03Z" style="fill: #3b1a0c;"/>
      <path d="M56.28,78.83v.03s.02,0,0-.03Z" style="fill: #3b1a0c;"/>
      <path d="M56.32,78.93l-.03-.07s-.02,0,.03.07Z" style="fill: #3b1a0c;"/>
      <path d="M56.52,78.74l-.07-.08s.04.04.07.08Z" style="fill: #3b1a0c;"/>
      <path d="M56.56,78.67s-.18-.13-.15-.07l.05.06c-.09-.12.2.15.1,0Z" style="fill: #3b1a0c;"/>
      <path d="M57.64,79.38l-.1-.02c.08.07.19.17.19.21.28.18-.18-.17-.09-.19Z" style="fill: #3b1a0c;"/>
      <path d="M57.9,79.36c0,.06.11.11.15.16-.05-.09-.07-.11-.15-.16Z" style="fill: #3b1a0c;"/>
      <path d="M58.91,78.3l.19.17s-.07-.07-.19-.17Z" style="fill: #3b1a0c;"/>
      <polygon points="58.08 77.24 57.95 77.15 58.12 77.31 58.08 77.24" style="fill: #3b1a0c;"/>
      <polygon points="59.58 78.28 59.6 78.32 59.56 78.22 59.58 78.28" style="fill: #3b1a0c;"/>
      <path d="M60.96,76.08l-.28-.14s.35.21.28.14Z" style="fill: #3b1a0c;"/>
      <path d="M61.13,74.93c.15.04.26.05.12-.02-.03.02-.15,0-.12.02Z" style="fill: #3b1a0c;"/>
      <polygon points="62.1 71.54 62.2 71.56 62.11 71.52 62.1 71.54" style="fill: #3b1a0c;"/>
    </g>
    <g>
      <path d="M77.38,91.51c.03-.08.07-.27.05-.24l-.1.32.05-.08Z" style="fill: #3b1a0c;"/>
      <path d="M77.4,90.89c-.06.15-.16.42-.22.72.11-.3.06-.18.19-.54.03-.03,0,.11-.03.23.03-.08.01.08.07-.12.04-.25.01-.27-.07-.07.01-.07.04-.15.06-.21Z" style="fill: #3b1a0c;"/>
      <path d="M75.61,90v.04s0-.03,0-.04Z" style="fill: #3b1a0c;"/>
      <path d="M74.41,89.69s.02-.04.02-.07c-.01.02-.02.04-.02.07Z" style="fill: #3b1a0c;"/>
      <path d="M74.22,89.32s0,.02.01.02c0-.03,0-.05-.01-.02Z" style="fill: #3b1a0c;"/>
      <path d="M75.61,90l-.02-.11c-.02.11,0,.08.02.11Z" style="fill: #3b1a0c;"/>
      <path d="M76.96,91.61s.02-.04.04-.08c0,.01-.02.02-.02.03v.05Z" style="fill: #3b1a0c;"/>
      <path d="M76.19,89.83h0s.02-.08.03-.13l-.04.13Z" style="fill: #3b1a0c;"/>
      <path d="M76.61,89.85s-.07.26-.09.38c.03-.11.05-.17.06-.19,0-.05.02-.12.04-.2Z" style="fill: #3b1a0c;"/>
      <path d="M77.14,90.48l.02-.04s-.01.02-.02.04Z" style="fill: #3b1a0c;"/>
      <path d="M75.9,89.72s0-.08.01-.1c0,.03,0,.07-.01.1Z" style="fill: #3b1a0c;"/>
      <path d="M67.74,95.41s-.03-.01-.05-.02c.03.01.05.02.05.02Z" style="fill: #3b1a0c;"/>
      <polygon points="66.28 95.29 66.27 95.28 66.12 95.22 66.28 95.29" style="fill: #3b1a0c;"/>
      <path d="M73.82,88.94h0s0-.02,0,0Z" style="fill: #3b1a0c;"/>
      <path d="M70.05,89.75c.13.22.05.32.21.56-.05-.1-.1-.43-.21-.56Z" style="fill: #3b1a0c;"/>
      <path d="M76.96,91.57s-.01,0-.02,0c0,.01,0,.01.02,0Z" style="fill: #3b1a0c;"/>
      <path d="M70.26,90.32h0s.02.02.02.02c0,0-.01-.02-.02-.02Z" style="fill: #3b1a0c;"/>
      <path d="M72.88,89.13s.01.09.02.12c0-.03,0-.06-.02-.12Z" style="fill: #3b1a0c;"/>
      <path d="M73.58,89.5l-.02-.04s.01.03.02.04Z" style="fill: #3b1a0c;"/>
      <path d="M72.55,89.55s-.02-.06-.03-.02c0,.01,0,.02,0,.03,0-.04,0-.06.02-.01Z" style="fill: #3b1a0c;"/>
      <path d="M72.18,89.6s0,.04.01.06v-.02s-.01-.04-.01-.04Z" style="fill: #3b1a0c;"/>
      <path d="M68.02,94.53c-.07-.03-.15-.07-.23-.11.18.09.22.17.23.11Z" style="fill: #3b1a0c;"/>
      <path d="M77,91.45c-.02.07-.03.1-.04.12,0,0,0,0,.01-.01,0-.04.02-.08.02-.1Z" style="fill: #3b1a0c;"/>
      <path d="M72.74,91.76l-.05-.04s.03.04.05.04Z" style="fill: #3b1a0c;"/>
      <path d="M69.26,92.89l.02.03s0,0-.02-.03Z" style="fill: #3b1a0c;"/>
      <path d="M72.56,91.78c-.02-.1-.04-.15-.05-.19,0,.02,0,.04,0,.07l.05.12Z" style="fill: #3b1a0c;"/>
      <path d="M67.79,94.42h0s0,0,0,0Z" style="fill: #3b1a0c;"/>
      <path d="M68.23,95.01s-.31-.18-.5-.29c-.07-.1.25.1.43.17-.07-.07-.36-.26-.33-.27.05.03.08.03.14.07-.24-.17.04-.1-.27-.32.03.01.06.03.08.04-.16-.09-.33-.18-.45-.24,0-.02-.18-.15.03-.04-.01,0,.07.06.13.1l-.08-.07c.31.15.09.09.31.21-.08-.09-.3-.28-.2-.26.3.17.06.13.34.24l-.14-.02c.48.23-.05,0,.47.26.11,0-.12-.15,0-.15-.15-.11-.24-.14-.4-.25-.24-.26.77.38.42.09-.18-.13-.54-.37-.32-.29l.32.22c.07-.03-.44-.33-.19-.24.12.09.08.11.12.13.28.13-.17-.14-.15-.17l.29.18c0-.08-.17-.28-.18-.38.08.06.16.13.25.18-.09-.18.15-.14.36-.08l-.21-.21s.11.07.15.11c.11.04-.15-.12-.23-.2,0-.03.15.09.21.15-.16-.2-.3-.47-.02-.32l.06.07c.12.04-.42-.44-.18-.3l.03.04c.16,0,.06-.27.43-.02-.29-.31.21.06-.2-.36.25.16.31.25.5.34.03,0-.23-.29-.25-.36l.21.23-.19-.27.26.26-.03-.08s-.11-.09-.17-.15c-.06-.14.22.09.32.21l-.09-.26c.08.1.09.14.13.21-.16-.27.21.24.07,0-.05-.05-.11-.14-.15-.19.14.13.18.1.16.01l.13.17c.09,0,.05-.17.11-.21-.08-.06-.29-.36-.29-.41l.2.26c-.11-.17-.09-.08-.21-.3.05.01.23.29.28.39l-.04-.11c.05.08.08.12.15.23-.1-.17.23.23.05-.07l.06.08c.07-.04.03-.15.08-.19-.15-.24-.09-.2-.2-.4.09.05.25.21.28.16-.04-.14-.11-.21-.18-.37.13.22.17.17.23.35.04-.07.04-.1.03-.32-.06-.09-.09-.12-.12-.2,0-.04.09.08.14.19v.03c-.06-.39.54.58.38.06v.03s-.03-.29-.03-.29c.05.02.06.19.14.32-.09-.43.14,0,.11-.29.32.69.17-.11.4.32l-.06-.17c-.04-.17.05.09.08.12-.05-.13-.07-.15-.09-.24.09-.26.4.14.6.27.07.03-.18-.9,0-.51l.05.33c.04-.41.25-.05.31-.4,0,.08.02.17,0,.17.07.23.1,0,.07-.19.02.02.03.17.06.27.05.14.02-.31.07-.08,0,.04,0,.08,0,.1,0-.12.08.02.03-.25.07.13.08-.13.13.02-.01-.31.1.14.06-.3.05.45.12.35.13.14,0,.14.04.14.05.33.03-.01.06-.1.03-.33.11.53.1-.44.19.25.09-.25.18-.41.27-.52.01.45-.11.05-.08.52.08-.19.12-.58.22-.47.02.06,0,.2-.02.27.09-.19.17.03.26-.21,0,.04,0,.09-.02.12.02-.01.04.07.04-.14l-.02.05c-.03-.3.07-.62.08-.78-.03.59.08.15.03.89.01-.04.03-.13.03-.27.02.04.02.12,0,.28.06-.11.04-.33.1-.32,0,.1-.01.14-.02.25.03-.19.06-.38.11-.3,0,.06,0,.14-.02.14.08-.03.15-.51.23-.32-.05.43.02.14,0,.52l.05-.11v-.18s.08-.26.11-.14l-.04.15.08-.07-.03-.14c.05-.19.03-.47.08-.37-.01.04.04,0,.05.23h0c.03-.12.06-.24.08-.14,0,.12-.03.41-.04.49.04-.31.1-.08.16-.4-.02.08-.03.27-.03.31l.04-.25c.01.08.01.12,0,.28.05.05.02-.47.07-.26,0,.02,0,.06-.02.09.06.11.15-.15.2-.01-.02.38-.06.09-.08.4.09-.06.24-.43.31-.33v-.04c.07-.52.02.27.1.02-.02.04-.05.29-.04.23.05.09.14-.12.25-.27l-.03.13c.02.13.08.09.11.15.03-.13.05-.11.07-.3,0,.79.29-.37.29.29-.01,0-.05.11-.04.11l.11-.11c.03-.23.01-.14.03-.32.04-.13.08-.23.1-.23-.07.14-.07.37-.07.5.01-.07.03-.15.04-.22-.03.41.09-.46.11-.17l-.03.12c.04-.06.09-.21.11-.17-.04.26-.05.12-.09.33.04,0,.17-.48.15-.22-.03.07-.05.07-.08.14-.02.31,0,.24.01.29h0s.03.14.03.14v-.09c.18-.68.12-.11.27-.54-.15.41-.06.24-.13.54,0,.09,0,.18-.02.27.08-.23,0,.2.12-.14-.02.1.03.02-.03.25.05-.07.03-.17.06-.29.13-.31.05.43.23,0,.11-.17.2-.48.3-.63-.01.16-.1.34-.1.34,0,.15.04.13.1.03-.03.08-.04.15-.05.26.03-.02.1-.34.1-.19-.03.1-.09.27-.12.37.05-.08.13-.25.18-.33-.03.17-.08.25-.12.35.05-.07.13-.13.21-.39v-.1s-.05.23-.07.27c-.08.2-.02-.1,0-.2l.04-.06c.11-.56-.12.07-.16.02l.12-.4-.13.32c.01-.11.06-.34.1-.39.01-.21-.07.14-.04-.09,0-.04.01-.05.02-.07l-.06.11c.03-.08.06-.29.07-.22,0-.25-.17.28-.12-.03v-.02c-.11.12-.07.3-.21.63l.12-.75-.07.3s-.02-.04.01-.16c-.08.2-.02.13-.08.32.02-.28-.14.1-.05-.38-.06.22,0,.18-.08.33.1-.51-.07.08-.06-.17.07-.26.08-.11.08-.36-.12.44-.06-.12-.11-.04-.07.36-.1.14-.18.24.03-.12-.07-.21-.1-.35v-.06c-.06.36-.11.28-.16.35.04-.22.06-.3.1-.39h-.04c-.03.11-.05.17-.08.21l.06-.27c-.05,0-.16.3-.19.11-.05.25-.07.71-.16.87.02-.14.06-.37.08-.42,0,.02-.04.11-.04.05l.06-.23c-.01-.11-.05.19-.07.16.03-.19,0-.14.03-.3,0-.02,0,.08.03,0-.02-.04-.03-.16-.02-.31-.02.11-.04.26-.07.28-.05,0,.02-.24,0-.34-.03.13-.04-.01-.09.28-.01,0,0-.14.01-.22-.05.12-.13.02-.14.33v.02s0,0,0,.01h0s0,0,0,0c-.12.27-.15-.19-.25-.07v-.1c-.05.11-.11.05-.17.26-.01,0-.01-.18,0-.3-.05.07-.06.18-.1.01.06-.17,0-.15.05-.12-.04-.09-.04-.25-.12.01.05-.25,0-.32-.04-.25l.02.18s-.05,0-.07-.02l.05-.33c-.07-.41-.25.66-.27-.02-.05.23.04.17,0,.44-.04-.05-.06-.53-.07-.53-.05-.19-.1.48-.16.35,0,.12-.01.43-.07.54-.04-.05-.03-.5.01-.59.01,0,.02.03.01.07.02-.04.04-.09.03-.22v.12c-.03-.12-.1-.11-.07-.31-.04.11-.03.19,0,.26-.05-.17-.1,0-.16-.13,0,.07,0,.21,0,.2-.09-.15-.05.22-.12.27-.03-.18.03-.43-.04-.28-.04-.12,0-.32.02-.41-.07.23-.11-.15-.14-.2l.04-.09c-.02.06-.04.05-.05.05v.24s-.02-.04-.02-.14c-.02.15,0,.4-.04.61-.02-.12-.08.13-.08-.19.08.11,0-.32.06-.36-.01.04-.03.04-.05,0,0-.04,0-.07,0-.08-.07-.28-.04.35-.12.34.01-.18-.01-.34-.03-.3.03,0,.01.3-.02.43-.05-.14-.05.1-.08.08l.03.07c-.01.18-.03.15-.07.21,0-.14.03-.1.02-.16-.04.31-.09-.32-.14-.11-.03-.12,0-.33-.03-.41-.06.23-.07-.24-.13-.05.03.24.03.18-.01.41l.1-.17-.06.35s.06-.15.08-.11c-.03.2-.03.14,0,.33-.05-.36-.08.21-.13-.03l-.02-.59c-.09-.26-.12.31-.22.16l.04.1c0,.24-.06.03-.08.13,0-.2-.03-.27-.05-.39.01.15-.07-.01-.06.38l-.06-.26c-.09-.1-.05.56-.12.5,0-.22-.04-.35,0-.51-.03,0-.05-.03-.04.1-.03-.12-.05.27-.09.09,0,.09.01.29-.01.28,0-.04,0-.1,0-.1,0,.1-.03.14.02.35-.14-.6-.2.07-.33-.45-.05.07-.1.14-.15.16,0-.06-.01-.1,0-.08-.1-.17.04.57-.06.37-.09-.31.01-.18-.03-.29-.11-.64-.08.1-.19-.27v-.04c-.07-.21-.05.26-.12.23,0,0-.01-.06-.02-.1.02.34-.04.46-.08.56-.03-.25,0-.14-.07-.39-.02.04.09.4.06.49-.05-.13-.11-.24-.18-.51l.05-.03c-.1-.34-.07.03-.11-.03l-.03-.15c-.07.07.02.45-.07.44l.04.11c.05.39-.09-.2-.07.09l-.11-.38c0,.1,0,.39-.04.48-.05-.29-.03-.45-.03-.63-.03,0-.1.05-.06.25,0-.04,0-.14.02-.08.05.31.04.47-.02.48-.21-.74-.21-.13-.43-.68-.02.3-.26-.04-.38.05.26.54-.03.03.19.6-.01.05-.03.04-.05,0l-.22-.31c-.09-.16-.02-.14-.08-.26-.08-.01-.12-.23-.23-.36.09.2.1.3.03.24l.16.24c.04.34-.28-.44-.24-.1l-.05-.19c0,.13-.18.08-.02.55-.04-.06-.12-.21-.12-.26-.15-.01-.01.58-.24.35l-.06-.14s.1.26,0,.15c-.03-.06-.06-.14-.08-.14.01.05.07.26,0,.2l-.06-.16c-.2-.11.04.45.02.59-.23-.38-.38-.45-.46-.49l-.03-.05c-.15.03-.01.43-.02.64-.34-.34-.33,0-.59-.13.07.05.21.27.22.32-.08-.05.13.29-.12-.03h.01c-.27-.3-.25-.17-.3-.15l.33.41c-.6-.51-.06.42-.56-.05.07.12.04.14.11.26l-.19-.21c-.11,0-.17.01-.2.14l-.13-.16c-.06.03.53.63.5.67l-.31-.28c-.06.08-.42-.1-.2.23-.05-.04-.13-.13-.14-.15-.04.03-.34-.04.11.32-.29-.25-.1.06,0,.2l-.21-.18c.25.26.32.33.36.43-.04-.01-.18-.13-.11-.1-.14-.05.18.19.03.15l-.13-.13s.03.08.18.23c.07.09-.11.03-.32-.12.12.1.26.24.19.22-.08-.05-.12-.1-.14-.12-.21-.05.19.29-.07.18-.08-.05-.12-.08-.14-.09.04-.05.08-.09.1-.07-.21-.15-.27-.13-.54-.38.13.15.43.46.3.43-.02-.01-.04-.03-.08-.05l-.02-.02s-.01.02.02.05c-.04,0-.08-.02-.09,0-.18-.12-.13-.01-.15,0,.23.16.18.16.39.26-.02,0-.03-.02-.03-.04,0,0,0-.01-.02-.03l.02.02s.01-.04.02-.07c.11.1.19.18.05.12.14.11.29.23.36.28-.34-.19-.56-.25-.77-.37.09.16-.02.22.4.54.05.05-.14-.06-.22-.09-.04-.04-.02-.05-.08-.09.09.11-.03.14.28.34-.17-.04-.28-.2-.26-.1l-.09-.07c-.59-.15.7.68-.04.46.05.01.07.02.12.04-.38.02.09.48-.46.43-.12,0,.09.11.24.21l-.28-.11.3.19c.2.17-.73-.17-.33.12l.19.07s.07.15-.15.06c.03.02.19.09.09.06l-.15-.06.22.18c-.13.02-.58-.24-.65-.16.04.06.39.26.49.29.01-.01.11,0,.26.06l.06.06c.43.17.87.36,1.2.41l-.25-.15.22.07v.04c.2.06.03-.03-.08-.09.11.04.19.06.24.07l-.39-.21c.17.06.33.15.43.16-.18-.1-.39-.13-.5-.22.21.06.36.13.21.03.11.04.18.08.23.11-.12-.08-.03-.08-.25-.19.25.08-.03-.11.38.07-.09-.05-.3-.18-.31-.21.47.25.06-.07.57.17-.42-.22-.15-.19-.37-.35.03.02.1.06.08.05.05-.01.18.04.27.06-.35-.17-.41-.25-.62-.38.36.13.4.22.74.37-.29-.14-.26-.19-.5-.3.22.08.11.03.41.16-.44-.22-.06-.06-.32-.22.23.07.41.2.3.09.14.05.28.16.28.16ZM68.05,93.67h0s0,.02,0,.03c0,0,0-.01,0-.03ZM68.09,93.59s-.02.01-.03.03c-.08-.05-.16-.11-.15-.12.05.04.11.06.18.09ZM66.38,92.66s.03-.01.08.02c0,.01,0,.02.01.05l.03.02s-.08-.06-.11-.09Z" style="fill: #3b1a0c;"/>
      <path d="M66.66,92.89s.01.02.01.02c.02.01.04.02.06.03l-.07-.05h0Z" style="fill: #3b1a0c;"/>
      <path d="M75.62,90.05h0s0,.02,0,.03c0-.01,0-.02,0-.03Z" style="fill: #3b1a0c;"/>
      <polygon points="69.29 93.05 69.24 93 69.28 93.05 69.29 93.05" style="fill: #3b1a0c;"/>
      <path d="M76.02,91.1s0,.05,0,.07c0-.02,0-.04,0-.07Z" style="fill: #3b1a0c;"/>
      <path d="M76.24,91.2v.1c.01-.06,0-.09,0-.1Z" style="fill: #3b1a0c;"/>
      <path d="M76.38,91.37s.02-.08.03-.12h0s-.03.12-.03.12Z" style="fill: #3b1a0c;"/>
      <path d="M73.59,91.38s0,0,0,.01c-.02.06,0,.03,0-.01Z" style="fill: #3b1a0c;"/>
      <path d="M74.45,90.76c-.01.05-.03.1-.04.13.01.02.02.03.04-.13Z" style="fill: #3b1a0c;"/>
      <polygon points="72.74 91.76 72.74 91.76 72.74 91.76 72.74 91.76" style="fill: #3b1a0c;"/>
      <path d="M74.37,90.89c.01.06.02.04.04,0-.01-.02-.02-.05-.04,0Z" style="fill: #3b1a0c;"/>
      <path d="M77.11,91.67h0s0-.02.01-.03l-.02.03Z" style="fill: #3b1a0c;"/>
      <path d="M77.13,91.64l.02-.03s0,0-.02.03Z" style="fill: #3b1a0c;"/>
      <path d="M77.18,91.54l-.04.06s.01.01.04-.06Z" style="fill: #3b1a0c;"/>
      <path d="M76.91,91.49l-.03.1s.01-.05.03-.1Z" style="fill: #3b1a0c;"/>
      <path d="M76.83,91.5s0,.22.03.16l.02-.08c-.05.15,0-.25-.05-.09Z" style="fill: #3b1a0c;"/>
      <path d="M76.81,90.2l.05.09c.01-.11.03-.25.06-.27-.01-.34-.04.24-.11.18Z" style="fill: #3b1a0c;"/>
      <path d="M76.64,90s.03-.15.05-.21c-.04.09-.05.12-.05.21Z" style="fill: #3b1a0c;"/>
      <path d="M75.2,89.77l.03-.25s-.01.1-.03.25Z" style="fill: #3b1a0c;"/>
      <polygon points="74.79 91.06 74.8 91.22 74.83 90.98 74.79 91.06" style="fill: #3b1a0c;"/>
      <polygon points="74.8 89.22 74.82 89.19 74.76 89.28 74.8 89.22" style="fill: #3b1a0c;"/>
      <path d="M72.21,89.34l.05.31c.01-.06-.03-.41-.05-.31Z" style="fill: #3b1a0c;"/>
      <path d="M71.16,89.86c-.05-.15-.11-.24-.09-.09.03.02.08.13.09.09Z" style="fill: #3b1a0c;"/>
      <polygon points="67.82 90.98 67.78 90.88 67.8 90.98 67.82 90.98" style="fill: #3b1a0c;"/>
    </g>
    <path d="M33.52,60.98c1.93,0,1.93-3,0-3s-1.93,3,0,3h0Z" style="fill: #3b1a0c;"/>
    <path d="M93.25,100.78c1.93,0,1.93-3,0-3s-1.93,3,0,3h0Z" style="fill: #3b1a0c;"/>
    <path d="M33.78,30.56c5.56,1.19,10.83,3.69,13.69,8.79.94,1.68,3.54.17,2.59-1.51-3.24-5.77-9.2-8.83-15.48-10.17-.79-.17-1.62.23-1.85,1.05-.21.75.25,1.68,1.05,1.85h0Z" style="fill: #62a744;"/>
  </g>
</svg>