<?xml version="1.0" encoding="UTF-8"?>
<svg id="Layer_2" data-name="Layer 2" xmlns="http://www.w3.org/2000/svg" width="210mm" height="297mm" viewBox="0 0 595.28 841.89">
  <g>
    <path d="M150.79,293.6c6.57-18.42,18.05-36.4,37.85-42.05,24.27-6.93,50.92,3.91,72.33,14.64,6.89,3.45,12.97-6.9,6.06-10.36-20.53-10.29-43.76-19.61-67.18-18.2-17.89,1.08-33.91,9.17-45.04,23.27-6.98,8.84-11.82,18.94-15.59,29.51-2.6,7.29,8.99,10.42,11.57,3.19h0Z" style="fill: #b0c387;"/>
    <path d="M245.24,247.74c14.11-11.59,31.08-20.74,49.76-20.74s35.64,9.14,49.76,20.74c5.92,4.86,14.46-3.58,8.49-8.49-16.61-13.64-36.24-24.25-58.24-24.25s-41.63,10.61-58.24,24.25c-5.97,4.91,2.56,13.35,8.49,8.49h0Z" style="fill: #b0c387;"/>
    <path d="M347.79,263.03c3.99-7.12,9.21-14.47,17.17-17.44,7.02-2.62,14.57-1.16,21.41,1.29,9.67,3.47,18.53,9.33,26.86,15.24,11.35,8.06,22,17.08,32.53,26.17,5.82,5.02,14.34-3.43,8.49-8.49-11.7-10.1-23.58-20.09-36.26-28.96-9.73-6.81-20.23-13.24-31.7-16.61-8.89-2.61-18.4-2.93-27.02.79-9.84,4.24-16.71,12.81-21.84,21.95-3.78,6.74,6.58,12.8,10.36,6.06h0Z" style="fill: #b0c387;"/>
    <path d="M411.6,297.79c20.9-5.3,45.01-9.1,65.61-.5,17.56,7.34,27.29,23.56,32.01,41.31,1.98,7.46,13.56,4.29,11.57-3.19-5.52-20.81-17.45-39.72-37.76-48.58-23.49-10.26-50.54-6.71-74.62-.61-7.48,1.9-4.31,13.47,3.19,11.57h0Z" style="fill: #b0c387;"/>
    <path d="M488,343c16.49,1.59,40.63,5.1,48.82,22.03,8.19,16.95-3.55,38.51-12,52.89-3.92,6.67,6.45,12.72,10.36,6.06,10.91-18.57,22.71-43.77,12-65-10.59-20.99-38.18-25.95-59.18-27.97-7.68-.74-7.63,11.27,0,12h0Z" style="fill: #b0c387;"/>
    <path d="M110.18,347.97c-7.3-13.52-16.93-34.07-6.4-48.49,10.21-13.99,32.48-16.29,48.22-17.48,7.65-.58,7.72-12.58,0-12-20.4,1.54-45.93,5.21-58.58,23.42-12.87,18.53-3.11,43,6.4,60.61,3.67,6.8,14.03.75,10.36-6.06h0Z" style="fill: #b0c387;"/>
    <path d="M97.54,406.51c-11.12-10.04-26.92-24.49-26.55-40.98.33-14.82,16.85-23.31,28.5-28.51,7.04-3.14.94-13.49-6.06-10.36-15.86,7.08-33.4,18.75-34.41,37.89-1.07,20.33,16.18,37.93,30.03,50.44,5.72,5.16,14.23-3.3,8.49-8.49h0Z" style="fill: #b0c387;"/>
    <path d="M99.82,385.97c-10.74,16.91-17.47,38.67-3.16,55.62,15.17,17.96,43.5,21.59,65.35,23.41,7.7.64,7.65-11.36,0-12-18.27-1.52-42.42-4.25-55.71-18.6-11.66-12.59-3.97-29.99,3.89-42.37,4.15-6.54-6.23-12.56-10.36-6.06h0Z" style="fill: #b0c387;"/>
    <path d="M509.82,404.03c7.23,15.96,12.9,38.69-4.7,49.98-8.6,5.52-19.19,7.46-29.23,8.14-14.79,1.01-29.69-.47-44.28-2.92-7.55-1.27-10.8,10.29-3.19,11.57,32.62,5.48,98.76,10.85,100.48-37.8.43-12.19-3.77-24.09-8.72-35.02-3.18-7.02-13.53-.93-10.36,6.06h0Z" style="fill: #b0c387;"/>
    <path d="M410,426.94c18.38,1.11,39.86,1.42,56.32-8.22,12.57-7.36,18.07-20.49,16.68-34.73-.75-7.62-12.75-7.69-12,0,1.08,11-2.24,19.98-12.35,25.26-14.39,7.51-33,6.64-48.65,5.69-7.71-.47-7.69,11.53,0,12h0Z" style="fill: #b0c387;"/>
    <path d="M326.97,455.18c20.47,14.27,44.59,29.54,70.28,30.92,18.67,1.01,34.24-8.98,42.43-25.57,6.03-12.21,8.51-25.69,9.95-39.13.82-7.67-11.18-7.61-12,0-1.74,16.18-5.42,37.54-19.9,47.6-13.53,9.41-31.66,4.36-45.54-1.5-13.9-5.87-26.82-14.08-39.16-22.69-6.35-4.43-12.35,5.97-6.06,10.36h0Z" style="fill: #b0c387;"/>
    <path d="M237.97,495.18c18.99,11.81,41.05,19.93,63.62,15.6,22.4-4.3,39.58-20.59,52.59-38.4,4.56-6.24-5.85-12.24-10.36-6.06-11.24,15.39-26.13,29.21-45.41,32.88-19.24,3.66-38.36-4.42-54.38-14.39-6.58-4.09-12.61,6.29-6.06,10.36h0Z" style="fill: #b0c387;"/>
    <path d="M320.24,296.24c.31-.28.63-.55.95-.82.38-.32.77-.63,1.15-.94.27-.21,1.04-.8-.03.02.33-.25.66-.5,1-.75,3.43-2.48,6.98-4.77,10.71-6.77,9.64-5.16,20.96-8.62,31.96-6.83,6.61,1.08,12.84,4.01,18.03,8.23,3.32,2.69,6.32,5.85,8.97,9.2,2.49,3.16,3.99,6.18,7.5,8.22,1.26.74-.13-.07.09.03,1.13.5,2.27.99,3.39,1.52,3.14,1.45,6.22,3.02,9.25,4.7,7.58,4.21,15.07,9,20.63,15.72,2.09,2.52,3.82,5.37,4.34,8.79-.11-.74.04,1.63.02,2.08-.04.75.03.39-.27,1.54-.53,2.02-1.42,3.74-2.91,5.63-3.79,4.79-9.35,8.17-14.64,11.04-4.19,2.27-8.53,4.25-12.96,6.02s-8.74,2.43-11.23,6.86c1.06-1.9.39-.87-.03.03-.56,1.18-1.1,2.37-1.69,3.54-1.66,3.33-3.48,6.59-5.46,9.74-5.08,8.08-11.92,17.03-21.06,20.53-13.65,5.23-25.44-7.4-32.78-17.62-2.91-4.05-9.48-3.86-10.97,1.43-.13.48-.29.95-.46,1.41-.2.54-.4,1.09-.6,1.63-.69,1.88.25-.4-.52,1.25-1.87,3.98-4.37,8.37-6.81,11.5-8.05,10.31-20.4,16.55-34.09,16.64s-25.98-4.39-37.7-10.01c-6.93-3.32-13.03,7.02-6.06,10.36,20.47,9.81,44.61,16.51,66.43,6.91,12.22-5.38,21.91-15.68,27.76-27.57,1.4-2.86,2.76-5.85,3.63-8.93l-10.97,1.43c10.89,15.17,27.8,30.63,47.75,22.57,13.53-5.47,23.06-18.38,29.92-30.75,1.97-3.55,3.75-7.2,5.3-10.95l-4.19,4.19c17.76-6.39,52.31-19.71,45.9-44.9-3.85-15.15-20.18-25.24-33.09-32.02-4.16-2.19-8.44-4.21-12.81-5.94l3.59,2.76c-7.66-11.58-17.5-21.55-30.75-26.42-9.82-3.61-20.71-3.48-30.77-.95-12.28,3.09-24.46,9.68-33.91,18.16-5.76,5.17,2.75,13.63,8.49,8.49h0Z" style="fill: #b0c387;"/>
    <path d="M169.24,426.76c-8.45-6.87-16.18-15.46-21.47-24.98-3.37-6.06-6.03-13.36-4.19-20.32,2.73-10.35,13.86-16.09,23.02-19.67,3.93-1.53,5.22-4.99,3.59-8.81,1.3,3.03-.05-.22-.31-.97-.67-1.89-1.25-3.81-1.75-5.76-1.37-5.37-2.06-9.19-1.37-15.16.48-4.22,2.73-9.04,7.05-11.62,8.29-4.94,19.98-3.55,29.11-1.98,3.48.6,6.07-.92,7.38-4.19-.89,2.22-.04.12.39-.8.77-1.61,1.61-3.19,2.51-4.74,2.63-4.5,5.54-8.43,9.48-11.89,12.51-10.97,26.55-3.69,37.09,6.38,5.58,5.34,14.08-3.14,8.49-8.49-14.16-13.53-33.7-21.91-51.03-8.84-8.35,6.3-14.63,15.51-18.5,25.17l7.38-4.19c-15.97-2.74-37.55-3.96-47.3,12-5.87,9.6-4.83,22.04-2.01,32.45.8,2.97,1.82,5.85,3.03,8.68l3.59-8.81c-17.39,6.8-34.78,19.36-32.07,40.25,1.87,14.41,11.42,27.04,21.28,37.18,2.58,2.66,5.26,5.26,8.14,7.6,5.94,4.83,14.48-3.61,8.49-8.49h0Z" style="fill: #b0c387;"/>
    <path d="M258.82,461.97c-.24.32,1.15-1.36-.16.19-1.04,1.23-2.06,2.47-3.14,3.66-3.34,3.69-6.96,7.18-10.85,10.29-9.55,7.64-21.77,13.68-34.32,12.03-8.01-1.05-15.36-5.25-21.32-10.56-.87-.77-1.66-1.53-2.43-2.38-.26-.28-.49-.59-.73-.89-.86-1.05.45.68-.69-.9-4.88-6.77-9.11-14.44-10.22-22.84-2.23-16.97,11.21-27.89,25.06-34.65,2.24-1.09,3.57-4.42,2.76-6.78s-1.35-4.67-1.84-7.03c-.23-1.11-.43-2.22-.62-3.33-.1-.57-.18-1.15-.26-1.72.23,1.67-.07-.71-.11-1.15-.25-2.93-.4-5.85-.26-8.79.25-5.65,1.59-11.24,4.9-16.38,1.23-1.91,3.99-4.66,6.08-6.04,3.52-2.31,6.81-3.57,10.91-4.55,14.92-3.57,31.23-.4,45.82,3.15,3.33.81,6.26-1.06,7.38-4.19.46-1.28.23-.56.04-.14.62-1.32,1.24-2.64,1.95-3.92,2.43-4.42,4.31-6.96,7.51-10.26,9.38-9.69,22.68-13.66,36.43-11.77s27.29,8.69,39.26,16.15c6.57,4.1,12.6-6.28,6.06-10.36-19.63-12.23-44.38-23.06-67.85-16.15-13.08,3.85-23.86,13.05-30.81,24.65-1.63,2.72-3.09,5.62-4.16,8.61l7.38-4.19c-22.41-5.45-55.35-11.19-72.98,8.55-10.22,11.44-11.21,27.43-8.83,41.9.56,3.42,1.29,6.88,2.43,10.16l2.76-6.78c-15.74,7.68-29.78,20.13-31.14,38.57-.86,11.66,3.9,23.44,10.32,32.96,6.56,9.74,15.93,17.05,27.14,20.91,15.53,5.34,32.15.88,45.45-7.92,8.92-5.9,17.06-13.44,23.43-22.06,4.6-6.21-5.81-12.2-10.36-6.06h0Z" style="fill: #b0c387;"/>
  </g>
  <path d="M275.76,510.29c11.38,11.28,22.1,23.32,32.26,35.71,8.23,10.04,16.07,20.47,22.83,31.57,5.12,8.41,11.52,19.06,12.07,28.96.15,2.67-1.05,7.06-.89,10.55.17,3.84.98,7.52,2.56,11.01,2.54,5.59,7.08,9.98,12.73,12.36,13.66,5.76,28.11-1.56,36.48-12.65,17.16-22.75,13.62-56.28,8.3-82.29-1.33-6.52-12.53-5.18-11.79,1.6.02.13.03.27.03.4.12-2.46,1.4-4.15,3.86-5.06.35-.09,3.05-.71,1.96-.16-.59.3-.34-.13.06.05-.45-.2-.89-.42-1.32-.66-2.73-1.51-5.4-3.13-8.06-4.76-8.5-5.21-17.03-10.34-25.89-14.92-25.09-12.96-52.47-21.94-80.94-21.96-7.72,0-7.73,12,0,12,24.43.01,48.12,7.15,69.93,17.82,8.44,4.13,16.62,8.76,24.66,13.63,4.96,3,9.81,6.39,15.03,8.94,4.76,2.33,13.54,2.42,12.69-5.34l-11.79,1.6c4.46,21.82,7.8,49.32-4.56,69.38-1.82,2.95-3.51,5-6.28,7.46-.95.84-1.28,1.1-2.9,2.09-.61.37-1.24.71-1.88,1.05-1.29.68-.09.14-1.18.54-1.17.43-2.36.74-3.57,1.03-1.65.39.21.06-.77.14-.78.06-1.55.09-2.33.1-.61,0-1.22-.05-1.83-.1,1.2.11.23.05-.41-.09-.77-.18-3.77-1.23-2.56-.68-1.07-.49-2.07-1.07-3.04-1.73-.78-.53.67.68-.5-.43-.48-.46-.95-.93-1.4-1.41-.99-1.05.36.66-.45-.55-.34-.51-.65-1.03-.97-1.56-.28-.46-.52-.97-.74-1.47.59,1.3-.29-.87-.41-1.3-.79-2.95-.9-3.9-.65-7.55.22-3.09.95-7.8.14-12.13-1.94-10.49-7.27-20.47-12.73-29.51-6.47-10.7-13.98-20.76-21.78-30.51-11.06-13.82-22.88-27.19-35.46-39.66-5.49-5.44-13.98,3.04-8.49,8.49Z" style="fill: #b0c387;"/>
  <path d="M319.76,506.24c26.57,21.64,57.59,42.9,92.63,46.45,27.6,2.79,52.62-9.78,70.01-30.83,12.5-15.13,21.24-32.74,28.4-50.91,2.83-7.19-8.77-10.3-11.57-3.19-10.04,25.5-24.72,53.12-49.95,66.4-22.3,11.74-48.25,6.85-70.15-3.32-18.4-8.54-35.19-20.31-50.88-33.09-5.94-4.84-14.48,3.6-8.49,8.49h0Z" style="fill: #b0c387;"/>
  <path d="M175.98,382.01c-2.18-9.54-5.41-20.38-13.28-26.85-5.27-4.34-11.65-5.68-18.34-5.3-2.43.14-4.85.35-7.28.44-.5.02-1.02-.04-1.52-.07,2.12.16.59.05.05-.04-.44-.07-2.64-.83-.48-.08-.71-.25-1.12-1.24-.16.06-.32-.43-.86-.7-1.17-1.15,1.09,1.58-.44-.77-.58-1.08-.27-.58-.8-1.9-1.24-3.54-1.56-5.79-1.71-11.89-1.84-17.84-.2-9.64-15.2-9.67-15,0,.34,15.99,2.25,39.24,23.23,38.72,2.47-.06,4.91-.42,7.38-.49,1.31-.04,2.63-.03,3.94.13-2.38-.29,2.41.87,1.57.51-.93-.4,1.09.62,1.28.76,1.69,1.17-1.01-1.02.6.46,1.53,1.4,1.65,1.56,2.83,3.52,2.91,4.82,4.3,10.4,5.54,15.83,2.15,9.41,16.61,5.43,14.46-3.99h0Z" style="fill: #efffae;"/>
  <path d="M518.7,373.36c9.53-2.21,20.35-5.49,26.81-13.36,4.32-5.27,5.65-11.66,5.25-18.36-.15-2.43-.36-4.84-.46-7.28-.02-.5.03-1.02.07-1.52-.14,2.12-.04.59.03.05.06-.42.8-2.68.07-.49.2-.59,1.24-1.37-.07-.17.4-.36.7-.86,1.14-1.17-1.56,1.1.76-.44,1.07-.59.58-.27,1.89-.81,3.53-1.26,5.78-1.58,11.88-1.77,17.83-1.91,9.64-.24,9.67-15.24,0-15-15.96.4-39.26,2.38-38.66,23.35.07,2.46.44,4.91.52,7.38.04,1.31.04,2.63-.11,3.94.27-2.38-.84,2.41-.49,1.57.39-.93-.61,1.09-.75,1.29-1.16,1.7,1.01-1.01-.46.61-1.36,1.5-2.03,2-3.5,2.85-4.91,2.83-10.31,4.33-15.81,5.6-9.4,2.18-5.42,16.65,3.99,14.46h0Z" style="fill: #efffae;"/>
  <path d="M468.72,511.59c9.53-.3,18.77-1.96,27.43-6.02,4.6-2.15,8.68-5.17,12.96-7.87.37-.24.78-.41,1.18-.62-1.19.63-.35-.27-.05.06.04.05,1.1-.26,1.17-.28-2.21.54-.98.28-.38.16,1.33-.26-1.59-.39-.29-.03.22.06,2.06.71.95.25s.91.52,1.11.65c.55.35,1.11.7,1.65,1.08,7.11,5,15.23,15.49,21.53,23.1s16.72-3.22,10.61-10.61c-7.28-8.8-14.66-18.26-23.99-25.03-4.97-3.61-10.89-5.51-16.92-3.56-5.02,1.62-9.06,5.36-13.58,7.92-6.68,3.8-14.8,5.52-23.37,5.79-9.63.31-9.67,15.31,0,15h0Z" style="fill: #ffa5cd;"/>
  <path d="M300.79,232.44c-8.43-2.16-16.64-5.3-23.51-10.77-4.77-3.79-8.56-8.55-12.6-13.07-3.68-4.12-7.82-7.73-13.08-9.62-6.67-2.4-14.01-1.34-20.67.52-9.28,2.59-5.34,17.07,3.99,14.46,3.09-.86,5.56-1.38,8.67-1.39,1.73,0,3.09.38,4.32,1.09.49.28,2.71,1.9,1.71,1.08.88.73,1.7,1.53,2.49,2.35,1.75,1.8,3.36,3.74,5.01,5.63,10.73,12.31,23.82,20.13,39.68,24.19,9.36,2.39,13.35-12.07,3.99-14.46h0Z" style="fill: #ffa5cd;"/>
  <path d="M233.51,465.04s-3.95,10.1-7.62,3.31c-6.5-6.5-11.17,2.41-16.45.47,0,0-17.15,3.27-7.8-2.88,9.35-6.15-11.7-8.57-11.89-15.27,0,0,7.47,4.11,0,0-7.47-4.11,11.39-8.64,11-15.92-.39-7.28.09,15.6,7.62-3.31,7.53-18.92,6.12-7.97,16.45-.47,1.26,7.61,7.8,2.88,7.8,2.88,7.06,2.6-8.49,28.68,11.89,15.27,20.38-13.41,3.33,15.5-11,15.92Z" style="fill: #c2b59b;"/>
  <path d="M385.64,293.6s-40.47-8.15-31.15,10.17c0,0,18.47,12.44,1.63,14.31,0,0,40.63,5.21,34.62,22.92,0,0,26.16,17.39,28.34-.19,0,0,19.47-10.91,17.62-.12,0,0,11.09-13.05-37.55-36.46,0,0-3.76-14.53-13.5-10.63Z" style="fill: #ffedd0; stroke: #ffedd0; stroke-miterlimit: 10;"/>
  <path d="M388.82,299.47s-30.91-6.23-23.8,7.77c0,0,14.11,9.5,1.24,10.93,0,0,31.04,3.98,26.45,17.51,0,0,19.98,13.28,21.65-.15,0,0,14.87-8.34,13.46-.09,0,0,8.47-9.97-28.69-27.85,0,0-2.87-11.1-10.32-8.12Z" style="fill: #e8ffc7; stroke: #e8ffc7; stroke-miterlimit: 10;"/>
  <path d="M391.29,304.49s-20.7-4.17-15.94,5.2c0,0,9.45,6.36.83,7.32,0,0,20.79,2.67,17.71,11.73,0,0,13.38,8.89,14.5-.1,0,0,9.96-5.58,9.01-.06,0,0,5.67-6.67-19.21-18.65,0,0-1.92-7.43-6.91-5.44Z" style="fill: #9b8579; stroke: #9b8579; stroke-miterlimit: 10;"/>
</svg>