<?xml version="1.0" encoding="UTF-8"?>
<svg xmlns="http://www.w3.org/2000/svg" width="210mm" height="297mm" viewBox="0 0 595.28 841.89">
  <g id="renTegning">
    <g id="character">
      <path d="M39.26,753.46h513.19s-34.47-22.1-20.68-60.4-8.43-86.64-8.43-86.64c0,0-20.68-59.66-10.72-97.96,0,0-13.94-50.74-83.49,0,0,0-57.21,0-32.43-33.7s28.46-53.82,28.46-53.82c0,0,14.36-91.18-12.88-65.4,0,0-44.44-47.39-29.11-79.74l15.33-32.36s-85.82,21.09-97.89-13.79c0,0-87.65-32.17-113.6,25.28,0,0,33.03,54.34-17.53,93.42,0,0-68.17,36.02-29.87,76.62,0,0,72.49,52.75,64.97,70.03,0,0,6.26,54.83-118.59,36.06,0,0-62.04,45.85-32.17,111.2,0,0,23.74,84.28-14.55,114.26" style="fill: #fff6b2; stroke: #fff6b2; stroke-miterlimit: 10;"/>
      <g id="renTegning-2" data-name="renTegning">
        <g id="head">
          <g>
            <ellipse cx="246.17" cy="342.32" rx="24.09" ry="42.6" transform="translate(-147.44 493.5) rotate(-75.29)" style="fill: #637700;"/>
            <ellipse cx="258.93" cy="316.62" rx="24.09" ry="42.6" transform="translate(-113.06 486.67) rotate(-75.29)" style="fill: #637700;"/>
            <ellipse cx="287.83" cy="309.09" rx="31.75" ry="42.6" transform="translate(-133.92 331.58) rotate(-50.09)" style="fill: #637700;"/>
            <ellipse cx="302.26" cy="311.24" rx="42.6" ry="31.75" transform="translate(-129.49 353.95) rotate(-51.49)" style="fill: #637700;"/>
            <ellipse cx="325.94" cy="319.65" rx="42.6" ry="24.09" transform="translate(-108.1 178.16) rotate(-26.39)" style="fill: #637700;"/>
            <ellipse cx="337.15" cy="341.38" rx="42.6" ry="24.09" transform="translate(-92.24 127.3) rotate(-18.86)" style="fill: #637700;"/>
            <path d="M293.34,277.43c0,8.03,0,16.07,0,24.1,0,12.8,0,25.61,0,38.41,0,2.94,0,5.87,0,8.81,0,.48,2.9.07,2.9-.78,0-8.03,0-16.07,0-24.1,0-12.8,0-25.61,0-38.41,0-2.94,0-5.87,0-8.81,0-.48-2.9-.07-2.9.78h0Z" style="fill: #4b5d00;"/>
            <path d="M295.31,277.48l6.7-2.31c.86-.3,1.73-.68,2.62-.9,2.05-.52,4.59-.6,6.78-.49,5.04.25,10.07,1.76,14.36,4.42,1.41.87,3.22,1.95,4.2,3.29.65.88,1.13,1.95,1.68,2.89,1.35,2.31,2.7,4.63,4.04,6.94.48.82,3.22-.22,2.9-.78-1.27-2.18-2.54-4.35-3.8-6.53-.63-1.08-1.22-2.21-1.9-3.26-.92-1.42-2.68-2.49-4.09-3.39-7.55-4.83-17.8-6.52-26.35-3.57-2.73.94-5.47,1.88-8.2,2.82-.37.13-1.12.49-.83.96.27.44,1.58.02,1.89-.09h0Z" style="fill: #4b5d00;"/>
            <path d="M325.26,292.58h18.34c1.11,0,2.22-.05,3.33,0,1.97.08,4.08.66,5.95,1.28,5.39,1.8,9.7,6.31,10.61,12,.56,3.53-.15,7.39-.4,10.93-.09,1.25,2.83.72,2.91-.33.22-3.06.64-6.18.58-9.26-.13-6.05-3.88-11.19-9.19-13.88-3.33-1.69-7.18-2.49-10.9-2.49h-11.25c-2.96,0-5.91,0-8.87,0-.6,0-1.62.19-1.91.81-.27.59.23.94.81.94h0Z" style="fill: #4b5d00;"/>
            <path d="M259.47,291.12c-6.51-.12-13.02-.27-19.53-.35-2.34-.03-4.76.51-7.05.97-2.41.48-4.8,1.17-6.96,2.37-5.12,2.85-8.53,8.3-8.43,14.21.07,3.69.9,7.44,1.41,11.09.15,1.05,3.06.38,2.9-.78-.42-3.07-.87-6.15-1.27-9.22-.7-5.4,1.73-10.75,6.27-13.75,1.68-1.11,3.59-1.7,5.54-2.14,2.08-.47,4.33-.95,6.45-1,3.35-.08,6.72.12,10.07.18,3.17.06,6.34.11,9.5.17.6.01,1.62-.19,1.91-.81s-.24-.93-.81-.94h0Z" style="fill: #4b5d00;"/>
            <path d="M295.66,276.21c-2.55-.84-5.09-1.68-7.64-2.52-2.83-.93-5.55-2.05-8.54-2.3-5.92-.51-12.08.74-17.41,3.36-2.69,1.32-5.22,2.99-7.43,5.03-1.1,1.02-1.63,1.79-2.27,3.08-1.47,2.97-2.94,5.93-4.41,8.9-.64,1.3,2.26,1.04,2.71.12,1.21-2.43,2.41-4.87,3.62-7.3.49-.99.9-2.19,1.53-3.09.5-.71,1.33-1.33,2-1.89,1.16-.99,2.42-1.86,3.73-2.63,4.81-2.82,10.5-4.21,16.07-3.88,2.81.17,5.28,1.16,7.94,2.04s5.56,1.83,8.34,2.75c.99.33,3.4-1.12,1.75-1.66h0Z" style="fill: #4b5d00;"/>
            <path d="M238.34,320.23c-2.66-.59-5.32-1.18-7.98-1.77-.38-.08-.76-.19-1.14-.25-1.18-.19-2.49.16-3.67.3-2.43.29-4.87.57-7.28,1.05-1.74.35-3.46.84-5.03,1.7-1.68.92-3.05,2.31-4.59,3.44-1.76,1.28-3.77,2.6-4.82,4.57-.74,1.39-.8,2.84-.59,4.36.41,2.96.82,5.93,1.23,8.89.15,1.05,3.06.38,2.9-.78-.34-2.44-.67-4.89-1.01-7.33-.14-1.02-.39-2.1-.32-3.13.15-2.17,1.73-3.59,3.36-4.83s3.11-2.54,4.74-3.67c1.11-.77,2.37-1.17,3.67-1.47,2.03-.47,4.11-.69,6.17-.94.62-.07,1.23-.15,1.85-.22.42-.05.92-.05,1.33-.16.03,0,.87-.12.25-.14.33.01.72.16,1.04.23,2.71.6,5.43,1.21,8.14,1.81.67.15,1.56-.05,2.05-.55.42-.43.34-.97-.3-1.11h0Z" style="fill: #4b5d00;"/>
            <path d="M342.76,323.62c2.72-1.57,5.44-3.13,8.16-4.7l-1.1.38c3.52-.66,7.07-1.48,10.65-1.76,1.01-.08,2.05-.08,3.06.11,1.23.24,2.33.82,3.5,1.26,2.6.97,6.28,1.56,7.68,4.29.77,1.5.84,3.53,1.11,5.16.33,1.94.65,3.88.98,5.82.18,1.06,3.09.37,2.9-.78-.44-2.63-.89-5.26-1.33-7.89-.21-1.24-.36-2.44-1.01-3.55-1.06-1.81-3-2.73-4.89-3.42-3.65-1.34-7.03-2.96-10.99-2.76-2.32.12-4.61.56-6.89.98-1.95.36-4.2.45-5.93,1.45-2.57,1.48-5.15,2.96-7.72,4.45-.49.28-.76.85-.23,1.22.56.39,1.55.04,2.06-.25h0Z" style="fill: #4b5d00;"/>
            <path d="M253.43,304.73c12.83-.84,25.64,3.94,34.95,12.76,1.79,1.7,3.45,3.53,4.95,5.49.53.69,3.1-.51,2.9-.78-7.92-10.31-19.82-17.02-32.75-18.44-2.92-.32-5.86-.37-8.79-.18-.5.03-1.65.21-1.94.69s.26.48.68.45h0Z" style="fill: #4b5d00;"/>
            <path d="M337.59,303.76c-13.7-1.39-27.89,3.07-38.26,12.15-1.98,1.73-3.79,3.63-5.47,5.65-.33.4,1.07.27,1.15.26.59-.1,1.31-.3,1.7-.78,4.33-5.24,9.83-9.54,15.99-12.4,7.18-3.33,15.14-4.52,22.99-3.73.61.06,1.57-.16,2.05-.55.42-.33.43-.55-.16-.61h0Z" style="fill: #4b5d00;"/>
            <path d="M240.91,335.37c12.94-.85,25.82,3.96,35.16,12.93,1.74,1.67,3.34,3.47,4.81,5.38.46.59,3.23-.36,2.72-1.02-7.87-10.24-19.74-16.89-32.57-18.36-2.95-.34-5.94-.4-8.9-.2-.52.03-1.64.2-1.93.71s.25.59.71.56h0Z" style="fill: #4b5d00;"/>
            <path d="M347.17,331.67c-13.67.79-26.86,7.12-35.65,17.67-1.69,2.03-3.21,4.19-4.55,6.46-.26.45,1.03.28,1.15.26.51-.09,1.41-.28,1.7-.78,7.57-12.87,21.1-21.61,36.09-22.47.5-.03,1.65-.21,1.94-.69s-.26-.48-.68-.45h0Z" style="fill: #4b5d00;"/>
            <ellipse cx="316.82" cy="282" rx="4.83" ry="11.33" transform="translate(-64.13 468.47) rotate(-67.75)" style="fill: #4b5d00;"/>
            <ellipse cx="232.85" cy="301.99" rx="11.47" ry="4.89" transform="translate(-119.12 155.24) rotate(-29.73)" style="fill: #4b5d00;"/>
            <ellipse cx="362.28" cy="326.25" rx="4.76" ry="11.17" transform="translate(3.22 656.04) rotate(-84.57)" style="fill: #4b5d00;"/>
            <g>
              <path d="M318.79,280.55c1.35-6.69,4.88-11.68,10.59-14.97" style="fill: #bcff66;"/>
              <path d="M324.57,282.15c1.09-4.98,3.43-8.74,7.84-11.39,6.62-3.97.59-14.35-6.06-10.36s-11.62,10.64-13.35,18.56c-1.65,7.53,9.92,10.74,11.57,3.19h0Z" style="fill: #bcff66;"/>
            </g>
            <g>
              <path d="M353.01,309.07c5.81,3.57,9.28,8.61,10.41,15.1" style="fill: #bcff66;"/>
              <path d="M349.99,314.25c4.33,2.76,6.69,6.51,7.65,11.52.61,3.18,4.43,5,7.38,4.19,3.33-.92,4.8-4.19,4.19-7.38-1.53-8.01-6.36-14.35-13.16-18.69s-12.56,6.22-6.06,10.36h0Z" style="fill: #bcff66;"/>
            </g>
            <g>
              <path d="M232.53,300.54c1.59-7.57-28.77-7.69-13.23-19.21" style="fill: #bcff66;"/>
              <path d="M238.32,302.14c1.2-8.16-5.67-11.26-12.05-13.86-2-.82-4.41-2.11-5.91-2.78.36.29.35.26-.04-.08-.45-.48-.38-.38.21.33-.01-.91.17,1.93.22,2.22-.39.78-.42.86-.09.23.35-.53.37-.57.05-.11.56-.5,1.02-1.1,1.62-1.56,2.56-1.96,3.95-5.18,2.15-8.21-1.49-2.52-5.61-4.14-8.21-2.15-3.52,2.69-7.29,5.95-7.4,10.76-.09,4.04,2.53,7.08,5.76,9.13,2.85,1.8,6.16,2.83,9.25,4.13-.91-.38.81.36,1.11.51.61.29,1.18.64,1.78.94.18.09,1.32.65.49.29-.66-.29.02-.08.14.2-.26-.61-.87-1.75-.66-3.17-.47,3.2.8,6.45,4.19,7.38,2.82.78,6.91-.96,7.38-4.19h0Z" style="fill: #bcff66;"/>
            </g>
            <path d="M212.62,279.36s1.86,7.5,10.31,7.02" style="fill: none; stroke: #8dc63f; stroke-miterlimit: 10;"/>
            <path d="M224.51,287.87c-8.24,6.58-15.38.24-15.38.24" style="fill: none; stroke: #8dc63f; stroke-miterlimit: 10;"/>
            <path d="M228.03,289.37c-2.34,10.29-12.52,6.59-12.52,6.59" style="fill: none; stroke: #8dc63f; stroke-miterlimit: 10;"/>
            <path d="M232.57,291.61c1.18,8.54-8.06,8.53-8.06,8.53" style="fill: none; stroke: #8dc63f; stroke-miterlimit: 10;"/>
            <path d="M237.42,297.12c-.63,8.6-9.66,6.66-9.66,6.66" style="fill: none; stroke: #8dc63f; stroke-miterlimit: 10;"/>
            <circle cx="221.39" cy="280.14" r=".38" style="fill: none; stroke: #231f20; stroke-miterlimit: 10;"/>
            <path d="M225.19,340.33s-2.58,2.41-2.45-.08c-.64-2.8-3.22-.83-4.26-2.13,0,0-4.87-1.4-1.54-1.92s-1.64-4.12-.65-6.11c0,0,1.26,2.23,0,0s4.24-.96,5.27-3.14-2.4,4.58,2.45.08c4.86-4.5,2.8-1.49,4.26,2.13-.86,2.4,1.54,1.92,1.54,1.92,1.39,1.73-6.62,7.22.65,6.11s-1.56,5-5.27,3.14Z" style="fill: #6e5200;"/>
            <path d="M330.41,318.43s2.37-2.61-.12-2.45c-2.81-.6-.88-3.2-2.19-4.22,0,0-1.48-4.85-1.94-1.51s-4.14-1.58-6.11-.56c0,0,2.25,1.23,0,0s-.89,4.25-3.06,5.32,4.54-2.47.12,2.45-1.45,2.82,2.19,4.22c2.39-.9,1.94,1.51,1.94,1.51,1.75,1.36,7.12-6.73,6.11.56-1.01,7.29,4.97-1.64,3.06-5.32Z" style="fill: #8c6800;"/>
            <line x1="263.51" y1="313.33" x2="277.94" y2="329.49" style="fill: none; stroke: #0c5500; stroke-miterlimit: 10;"/>
            <line x1="265.04" y1="319.65" x2="270.32" y2="315.96" style="fill: none; stroke: #0c5500; stroke-miterlimit: 10;"/>
            <line x1="271.09" y1="325.57" x2="275.34" y2="322.6" style="fill: none; stroke: #0c5500; stroke-miterlimit: 10;"/>
            <ellipse cx="280.19" cy="294.9" rx="6.89" ry="2.93" transform="translate(-115.12 198.96) rotate(-32.82)" style="fill: #4b5d00;"/>
            <path d="M261.06,272.92c.49,5.07,2.11,10.11,5.82,13.75,2.59,2.55,5.81,4.08,8.72,6.18.16.11.31.23.47.35.07.05.13.1.2.15.43.33-.22-.21,0,0,.3.27.6.54.87.84.29.32.55.65.79,1.01-.26-.37-.03-.05.07.14.11.22.22.44.32.67,1.11,2.57,5.7.58,4.59-1.99-1.35-3.13-4.22-4.97-7.01-6.68-1.47-.9-2.94-1.81-4.27-2.91.31.26-.17-.15-.26-.23-.15-.14-.3-.28-.45-.42-.35-.34-.69-.7-1.02-1.08s-.61-.74-.89-1.12c-.38-.53-.37-.51-.69-1.09-1.46-2.61-2.11-5.49-2.39-8.45s-5.14-1.83-4.87.88h0Z" style="fill: #ff5994;"/>
            <ellipse cx="306.18" cy="335.87" rx="6.89" ry="2.93" transform="translate(-133.18 219.59) rotate(-32.82)" style="fill: #4b5d00;"/>
            <path d="M304.19,337.35c4.41,4.61,9.86,7.67,16.36,7.51,2.29-.05,4.56-.4,6.84-.61.02,0,.77-.05.31-.02.23-.01.46-.02.69-.02.53,0,1.05.02,1.57.07.09,0,.72.12.27.03.22.04.43.09.64.15.65.18.7.22,1.13.44,1.14.61,2.6.34,3.44-.66.73-.87.79-2.42-.34-3.03-4.04-2.18-8.42-1.11-12.75-.77-.14.01-.91.05-1.37.05-.55,0-1.11-.01-1.66-.05-1.16-.09-2.19-.29-3.32-.66-3.08-1-5.64-3.08-7.85-5.39-1.88-1.96-5.98.86-3.97,2.96h0Z" style="fill: #ff5994;"/>
            <path d="M353.01,315.96s8.03-.72,7.76-8.13" style="fill: none; stroke: #8dc63f; stroke-miterlimit: 10;"/>
            <path d="M318.93,266.56s1.86,7.5,10.31,7.02" style="fill: none; stroke: #8dc63f; stroke-miterlimit: 10;"/>
            <path d="M315.48,270.85s1.86,7.5,10.31,7.02" style="fill: none; stroke: #8dc63f; stroke-miterlimit: 10;"/>
            <path d="M313.38,277.9s3.98,6.13,11.55,3.15" style="fill: none; stroke: #8dc63f; stroke-miterlimit: 10;"/>
            <circle cx="329.61" cy="263.76" r=".38" style="fill: none; stroke: #231f20; stroke-miterlimit: 10;"/>
            <circle cx="263.99" cy="273.44" r=".19" style="fill: none; stroke: #231f20; stroke-miterlimit: 10;"/>
            <ellipse cx="349.08" cy="309.98" rx=".41" ry=".45" transform="translate(-40.68 566.93) rotate(-75)" style="fill: none; stroke: #231f20; stroke-miterlimit: 10;"/>
            <path d="M355.41,319.75s8.21.76,9.82-7.23" style="fill: none; stroke: #8dc63f; stroke-miterlimit: 10;"/>
            <path d="M356.85,323.03s7.12,2.9,10.86-3.86" style="fill: none; stroke: #8dc63f; stroke-miterlimit: 10;"/>
          </g>
          <g>
            <ellipse cx="195.4" cy="406.51" rx="13.79" ry="25.84" style="fill: #ffac83;"/>
            <ellipse cx="200.51" cy="429.01" rx="21.19" ry="11.74" transform="translate(-272.48 452.17) rotate(-67.75)" style="fill: #ffac83;"/>
          </g>
          <g>
            <ellipse cx="388.22" cy="406.48" rx="13.79" ry="25.84" transform="translate(-.96 .92) rotate(-.13)" style="fill: #ffac83;"/>
            <ellipse cx="383.16" cy="428.99" rx="11.74" ry="21.19" transform="translate(-134.49 178.22) rotate(-22.38)" style="fill: #ffac83;"/>
          </g>
          <g>
            <path d="M379.43,335.87c-41.36,29.11-173.62,9.19-173.62,9.19l.51,78.77c2.04,27.2,12.26,59.1,12.26,59.1,3.58,3.65,7.01,6.99,10.31,10.07h0c9.29,50.92-4.69,54.27-4.69,54.27,40.85,32.17,71.49,24.51,71.49,24.51,45.45,8.17,73.22-25.53,73.22-25.53-16.34-1.02-7.86-53.25-7.86-53.25,17.36-11.38,18.38-157.14,18.38-157.14Z" style="fill: #ffba9d;"/>
            <path d="M378.16,333.71c-2.14,1.5-4.4,2.8-6.74,3.95-.56.27-1.12.54-1.68.8-.32.15-.64.29-.96.43-.16.07-.32.14-.49.21-.14.06.29-.12-.19.08-1.32.54-2.64,1.05-3.99,1.52-5.98,2.11-12.16,3.59-18.39,4.73-7.04,1.29-13.46,2.06-20.68,2.65s-15.01.94-22.53,1.07c-14.86.25-29.74-.27-44.57-1.24-11.82-.78-23.62-1.85-35.38-3.2-3.75-.43-7.49-.89-11.23-1.38-.32-.04-.65-.09-.97-.13,1.06.14-.09-.01-.35-.05-.51-.07-1.03-.14-1.54-.21-.59-.08-1.19-.17-1.78-.25-.08-.01-.15-.02-.23-.03-1.57-.24-3.18.63-3.16,2.41.04,5.4.07,10.8.11,16.2.07,11.03.14,22.05.21,33.08.06,8.72.11,17.45.17,26.17.02,2.64.15,5.17.43,7.82.99,9.48,2.69,18.89,4.76,28.19,1.58,7.08,3.38,14.12,5.38,21.09.5,1.74,1.01,3.47,1.55,5.2.08.26.15.52.24.78.42,1.16,1.51,2,2.36,2.85,1.01,1.01,2.02,2.02,3.04,3.02,1.83,1.79,3.68,3.56,5.55,5.31l1.77-4.27h0c-1.74,0-2.7,1.59-2.41,3.16,1.45,7.96,2.59,16,2.97,24.09.14,2.88.17,5.77.06,8.65-.05,1.2-.12,2.41-.23,3.61-.05.55-.11,1.09-.17,1.64-.02.19-.1.79-.03.27-.04.3-.08.6-.13.89-.26,1.71-.62,3.4-1.11,5.06-.21.69-.43,1.38-.7,2.05-.05.14-.11.28-.16.41-.03.07.25-.56.04-.09-.13.28-.25.56-.39.83-.42.85-1.07,1.59-1.48,2.42.37-.75.21-.26-.02,0-.12.14-.24.28-.37.41-.21.22-.44.41-.66.62-.45.42.51-.32.13-.09-.11.06-.2.14-.31.21-.16.1-.34.18-.51.29-.42.27.77-.22.12-.06-1.68.41-2.6,3-1.1,4.18,12.83,10.07,27.18,18.48,42.98,22.91,8.39,2.35,17.34,3.69,26.07,2.94,1.62-.14,3.29-.3,4.88-.69h-1.33c15.6,2.77,31.43,1.08,46.01-5.13,9.44-4.02,18.2-9.81,25.65-16.88,1.39-1.32,2.78-2.68,4-4.16,1.41-1.7.48-4.1-1.77-4.27-.24-.02-.79-.18-.06,0-.16-.04-.33-.05-.49-.1-.18-.05-.36-.1-.54-.15-.07-.02-.13-.06-.2-.07-.43-.08.46.27.09.04-.29-.18-.61-.32-.9-.5-.14-.08-.27-.19-.4-.28.64.45.05.03-.09-.11-.26-.25-.5-.52-.75-.79-.41-.44.11.19-.08-.09-.12-.17-.24-.34-.35-.51-.49-.74-.88-1.53-1.24-2.34.21.46.04.09-.05-.14s-.17-.45-.25-.68c-.17-.48-.32-.96-.46-1.44-.29-1-.53-2.01-.73-3.03-.11-.56-.21-1.11-.3-1.67-.04-.25-.08-.5-.11-.75-.01-.08-.07-.53-.03-.21.05.34-.03-.26-.04-.33-.14-1.17-.25-2.34-.34-3.52-.66-9.2.01-18.52,1.09-27.67.1-.89.22-1.77.33-2.66.05-.38.06-.44,0,.03.02-.17.05-.35.07-.52.04-.31.08-.61.13-.92.08-.57.16-1.13.25-1.69l-1.15,1.49c2.84-1.89,4.41-5.11,5.68-8.17,1.72-4.15,2.84-8.53,3.8-12.91,2.8-12.72,4.25-25.75,5.48-38.69,1.39-14.6,2.31-29.24,3.02-43.89.6-12.47,1.03-24.94,1.33-37.42.14-5.97.45-11.99.31-17.97,0-.08,0-.16,0-.24.02-3.22-4.98-3.22-5,0-.02,2.43-.05,4.86-.09,7.29-.1,6.33-.25,12.67-.43,19-.25,8.88-.58,17.75-.99,26.63-.47,10.1-1.04,20.2-1.78,30.29s-1.6,19.76-2.78,29.59c-.14,1.17-.29,2.33-.44,3.5-.07.54-.14,1.07-.21,1.6-.02.11-.03.23-.05.34.06-.48.01-.08,0,.02-.04.3-.08.6-.12.9-.3,2.18-.63,4.37-.97,6.54-.62,3.87-1.32,7.72-2.17,11.54-.71,3.18-1.51,6.34-2.56,9.43-.22.66-.46,1.32-.71,1.97-.11.29-.22.57-.34.86-.16.39-.11.25.03-.07-.07.15-.13.3-.2.46-.46,1.02-.95,2.03-1.54,2.98-.12.2-.25.39-.38.58-.18.27-.75.78-.1.17-.29.28-.52.64-.81.92-.14.14-.29.26-.43.4-.43.43.54-.4,0-.01-.62.45-1.09.95-1.26,1.7-.48,2.07-.61,4.28-.87,6.38-1.04,8.57-1.68,17.25-1.3,25.88.2,4.41.63,8.93,1.86,13.19,1.02,3.53,2.69,7.1,5.8,9.25,1.42.98,3.09,1.45,4.8,1.57l-1.77-4.27c-.87,1.05-1.83,2.03-2.8,2.99-1.11,1.1-2.25,2.17-3.42,3.2-.73.65-1.48,1.28-2.23,1.9-.38.31-.77.63-1.16.93-.22.17-.43.34-.65.51.39-.3-.19.15-.33.25-9.17,6.94-19.43,11.95-30.6,14.5-7.1,1.62-14.41,2.12-21.67,1.61-1.99-.14-3.97-.35-5.94-.66-1.12-.17-2.27-.52-3.4-.32-.46.08-.92.19-1.39.26-.21.03-.42.06-.63.09.82-.14.21-.03-.18.02-.61.07-1.22.13-1.83.17-1.56.12-3.12.16-4.69.14-2.11-.02-4.22-.15-6.32-.36-.56-.06-1.12-.12-1.68-.19-.12-.01-.23-.03-.35-.04.46.06.05,0-.04,0-.36-.05-.72-.1-1.07-.16-1.34-.21-2.68-.45-4.02-.72-14.84-3.05-28.6-10-40.91-18.7-2-1.41-3.96-2.87-5.89-4.39l-1.1,4.18c2.49-.6,4.45-3.17,5.63-5.24,1.52-2.68,2.42-5.71,2.99-8.71.97-5.09,1.18-10.31,1.05-15.47-.24-9.37-1.57-18.71-3.24-27.92l-2.41,3.16h0c2.11,0,3.37-2.77,1.77-4.27-3.51-3.28-6.95-6.64-10.31-10.07l.64,1.1c-3.22-10.06-5.79-20.38-7.97-30.71s-4.16-20.93-4.22-31.54l-.16-25.06-.21-31.69-.08-11.92c-.01-1.99.1-4.03-.04-6.02,0-.09,0-.18,0-.26l-3.16,2.41c4.68.7,9.39,1.29,14.09,1.85,11.28,1.35,22.59,2.43,33.92,3.26,14.69,1.07,29.43,1.7,44.16,1.63s30.04-.83,44.87-3.13c12.09-1.88,24.62-4.75,35.28-10.98,1.1-.64,2.17-1.33,3.21-2.06,1.1-.77,1.62-2.19.9-3.42-.64-1.09-2.31-1.68-3.42-.9Z" style="fill: #ffba9d;"/>
          </g>
          <path d="M227.09,495.01l50.83,24.68s-44.45,21.01-45.33,39.33l-9.41-8.37,3.91-55.64Z" style="fill: #ffaa6e;"/>
          <path d="M363,495.57l-51.07,25.87s46.12,19.62,47.65,37.77l9.33-8.56-5.91-55.08Z" style="fill: #ffaa6e;"/>
          <path d="M371,399.7c0,1.46-12.82,17.15-30.53,17.15s-33.62-19.56-32.07-18.1,62.6-.51,62.6.95Z" style="fill: #ff9959;"/>
          <path d="M277.53,399.7c0,1.46-12.82,17.15-30.53,17.15s-33.62-19.56-32.07-18.1,62.6-.51,62.6.95Z" style="fill: #ff9959;"/>
          <path d="M214.82,397.72c0-1.46,12.78-17.18,30.49-17.22,17.71-.04,33.66,19.48,32.11,18.02s-62.6.66-62.61-.8Z" style="fill: #ff9959;"/>
          <path d="M310.08,398.17c0-1.46,12.78-17.18,30.49-17.22s33.66,19.48,32.11,18.02-62.6.66-62.61-.8Z" style="fill: #ff9959;"/>
          <path d="M371,399.7c0,5.36-14.12,9.69-31.53,9.7-18.01,0-31.53-9.7-31.53-9.7,0,0,14.12-9.7,31.53-9.7s31.53,4.34,31.53,9.7Z" style="fill: #fff;"/>
          <path d="M263.63,485.14s16.86-20.97,27.45-13.53c0,0,4.98,5.11,10.21-.13,0,0,10.22-8.97,24.64,13.62,0,0-9.32,11.13-22.22,10.88,0,0-20.94.68-23.11,0s-6.51.86-16.98-10.85Z" style="fill: #ff6a4c;"/>
          <path d="M214.89,399.2c.09-5.36,14.27-9.46,31.68-9.19,18,.28,31.37,10.21,31.37,10.21,0,0-14.27,9.47-31.68,9.19-17.41-.28-31.46-4.85-31.37-10.21Z" style="fill: #fff;"/>
          <polygon points="309.94 460.98 278.81 460.98 289.18 396.13 302.61 401.98 309.94 460.98" style="fill: #ff9a6e;"/>
          <path d="M263.63,485.14s9.79,12.13,17.07,11.58,23.32,0,23.32,0c0,0,12.98-.26,21.91-11.62,0,0-20.04-6.77-23.87-3.19-2.59,2.42-7.28,2.64-7.28,2.64,0,0-2.69-.62-3.72-1.55s-6.12-8.04-27.43,2.13Z" style="fill: #ff8c66;"/>
          <circle cx="341.84" cy="444.43" r="12.03" style="fill: #ffa58c;"/>
          <circle cx="246.91" cy="444.43" r="12.03" style="fill: #ffa58c;"/>
          <path d="M374.63,380.5c-9.8-5.18-31.35-5.4-66.23,0v-7.19c-.46-3.28,63.81-9.47,66.23,0,1.49,5.8,0,7.19,0,7.19Z" style="fill: #593d00;"/>
          <path d="M213.98,379.72c9.92-4.95,31.47-4.66,66.22,1.57l.17-7.19c.54-3.26-63.57-10.98-66.22-1.57-1.62,5.76-.17,7.19-.17,7.19Z" style="fill: #593d00;"/>
          <circle cx="333.02" cy="343.73" r=".27" style="fill: none; stroke: #231f20; stroke-miterlimit: 10;"/>
          <polyline points="340.38 402.05 343.7 403.17 345.28 399.48 341.42 397.54 335.21 398.63 334.14 401.84 334.65 404.77 338.4 406.47 344.56 406.57 347.62 403.01 348.65 397.83 344.39 393.86 336.42 395.26 332.12 396.73 330.93 400.96 331.6 404.78" style="fill: none; stroke: #000; stroke-miterlimit: 10;"/>
          <polyline points="246.76 402.05 250.08 403.17 251.67 399.48 247.8 397.54 241.6 398.63 240.52 401.84 241.04 404.77 244.79 406.47 250.94 406.57 254 403.01 255.03 397.83 250.78 393.86 242.81 395.26 238.51 396.73 237.31 400.96 237.99 404.78" style="fill: none; stroke: #000; stroke-miterlimit: 10;"/>
        </g>
        <g id="shirt">
          <path d="M170.85,685.15s-66.64,7.66-78.89-6.13c0,0,7.44-110.64,32.06-127.66s98.41-7.15,98.41-7.15c0,0,44.3,41.13,76.4,25.55,0,0,27.26,13.77,73.72-35.76,0,0,118.47-17.36,120,32.43s7.66,93.45,7.66,93.45c0,0-29.11,18.38-75.06,10.72l.77,82.87h-252.77l-2.3-68.31Z" style="fill: #0068ae; stroke: #0068ae; stroke-miterlimit: 10;"/>
          <path d="M219.4,557.13c23.12,15.38,50.26,25.25,78.34,23.13,29.72-2.25,56.09-16.28,79.18-34.39,3.21-2.52,2.59-7.96,0-10.61-3.11-3.18-7.44-2.49-10.61,0-20.13,15.79-44.15,28.54-70.12,30.11-25.15,1.52-48.54-7.42-69.22-21.18-8.06-5.36-15.58,7.62-7.57,12.95h0Z" style="fill: #00599d;"/>
        </g>
        <g id="phone">
          <rect x="264.53" y="584.73" width="83.59" height="147.83" rx="16.72" ry="16.72" style="fill: #58595b;"/>
          <rect x="272.52" y="590.51" width="16.34" height="38.13" rx="4.68" ry="4.68" style="fill: #a7a9ac; stroke: #414042; stroke-miterlimit: 10;"/>
          <circle cx="280.74" cy="600.09" r="6.34" style="fill: #414042; stroke: #231f20; stroke-miterlimit: 10;"/>
          <circle cx="280.74" cy="618.43" r="6.34" style="fill: #414042; stroke: #231f20; stroke-miterlimit: 10;"/>
        </g>
        <path id="arm1" d="M96.89,682.42v74.1h122.19s29.02-32.06,31.62-40.23c0,0,76.87,13.79,97.94-11.74,0,0,3.43-6.13,0-10.89,0,0,17.33-13.28,7.12-23.15,0,0,5.11-11.91-5.11-12.26,0,0,6.81-15.32-6.13-10.89s-61.96,41.19-75.23,18.04c0,0,6.47-45.62-4.77-46.64l-9.19,51.4s-74.21,52.43-85.45,47.66l-1-32.47s-59.21,4.55-72-2.93Z" style="fill: #ffbd9d;"/>
        <path d="M495.86,662.19s13.31,88.21,4.35,91.27h-67.94l-7.13-82.87s47.74,3.11,70.71-8.4Z" style="fill: #ffbd9d;"/>
        <g id="shine3">
          <g>
            <path d="M276.29,577.41c0,.05.32-.22.38-.26-.11,0-.46.33-.38.26Z" style="fill: #f8ffa6;"/>
            <polygon points="275.17 577.52 275.31 577.42 274.93 577.61 275.17 577.52" style="fill: #f8ffa6;"/>
            <path d="M274.82,577.06c-.53.48.22.09.08.33l-.12.11.48-.32c-.15-.04-.55.07-.44-.12Z" style="fill: #f8ffa6;"/>
            <path d="M275.85,575.87c-.21.19-.23.1-.02.11.02-.02.03-.04.05-.05-.01,0-.02-.02-.02-.06Z" style="fill: #f8ffa6;"/>
            <path d="M275.87,575.93c.05.04.16-.17,0,0h0Z" style="fill: #f8ffa6;"/>
            <path d="M275.58,575.81l.24-.09c.12-.11.1-.19.21-.25-.16.02-.28.13-.46.34Z" style="fill: #f8ffa6;"/>
            <path d="M275.12,576.07l.11-.03s.06-.07-.11.03Z" style="fill: #f8ffa6;"/>
            <path d="M275.46,575.97l-.23.07c-.08.08-.27.22.09-.02-.17.12,0,.01.14-.05Z" style="fill: #f8ffa6;"/>
            <path d="M275.4,576.07c-.09.13-.14.24-.38.33.17.06.55-.27.38-.33Z" style="fill: #f8ffa6;"/>
            <path d="M274.22,577.5l-.13.18.22-.11c-.11.05.08-.21-.09-.07Z" style="fill: #f8ffa6;"/>
            <path d="M275.56,575.19c-.12.09-.3.27-.45.4l.17-.06c.06-.09.1-.19.28-.33Z" style="fill: #f8ffa6;"/>
            <path d="M275.11,575.58l-.26.09c.02.08.13.02.26-.09Z" style="fill: #f8ffa6;"/>
            <polygon points="274.49 576.55 275.01 576.32 274.46 576.53 274.49 576.55" style="fill: #f8ffa6;"/>
            <polygon points="275.37 574.91 275.68 574.74 275.21 574.99 275.37 574.91" style="fill: #f8ffa6;"/>
            <path d="M275.19,574.78c.25-.15.36-.34.52-.42-.08-.02-.31.1-.51.2.13-.04.14.02,0,.22Z" style="fill: #f8ffa6;"/>
            <path d="M274.89,574.7c.07-.02.18-.08.31-.14-.07.02-.16.06-.31.14Z" style="fill: #f8ffa6;"/>
            <path d="M274.82,575.51c.07-.06.25-.22.3-.32l-.32.29s.01.02.02.03Z" style="fill: #f8ffa6;"/>
            <path d="M274.79,575.49h.01s-.02-.07-.03-.08c0,0,0,.03.02.08Z" style="fill: #f8ffa6;"/>
            <path d="M274.82,575.52s0,0,0,0c-.03.03-.04.04,0,0Z" style="fill: #f8ffa6;"/>
            <path d="M274.65,576.13c-.22.11-.49.18-.71.49.25-.15.38-.33.71-.49Z" style="fill: #f8ffa6;"/>
            <path d="M274.43,575.88l-.02.13c.09-.07.21-.19.32-.24l-.3.11Z" style="fill: #f8ffa6;"/>
            <polygon points="274.29 575.93 274.43 575.88 274.44 575.83 274.29 575.93" style="fill: #f8ffa6;"/>
            <path d="M274.67,575.07c-.17.08-.21.06-.26.04-.03.09-.04.17,0,.21.11-.08.31-.21.27-.24Z" style="fill: #f8ffa6;"/>
            <path d="M274.7,575.3s-.02,0-.02,0c-.03.03-.03.04.02,0Z" style="fill: #f8ffa6;"/>
            <path d="M274.11,574.72s-.04.04-.06.05c.02-.01.04-.03.06-.04h0Z" style="fill: #f8ffa6;"/>
            <path d="M274.35,575.37c-.04.08.06.04.17-.03-.05,0-.09,0-.12-.03-.05.03-.08.06-.06.06Z" style="fill: #f8ffa6;"/>
            <path d="M274.65,574.71c-.06.07-.1.14-.14.2.09-.1.23-.26.14-.2Z" style="fill: #f8ffa6;"/>
            <path d="M274.76,575.22s.01,0,.02,0c.06-.07.03-.04-.02,0Z" style="fill: #f8ffa6;"/>
            <path d="M274.76,575.22c-.06.02-.15.07-.24.12.04,0,.09-.01.15-.04.02-.02.05-.05.08-.08Z" style="fill: #f8ffa6;"/>
            <path d="M271.86,576.29c.32-.24.67-.38.39-.05.29-.11,1.28-.96,1.8-1.47-.14.1-.26.2-.5.27-.15.16-.27.47-.6.63-.24.03.05-.16.18-.34-.36.34-.66.32-1.22.79l.27-.07c-.09.07-.25.15-.32.24Z" style="fill: #f8ffa6;"/>
            <path d="M274.13,574.94h.06c.03-.08.13-.2.34-.43-.19.07-.31.15-.42.23l.07.18-.05.03Z" style="fill: #f8ffa6;"/>
            <path d="M274.3,575.07c-.36.24-.56.28-.89.62.09.07.33-.16.52-.22-.19-.08.22-.11.33-.36.08-.02.12,0,.15,0,.02-.06.05-.12.1-.19,0,0-.01.01-.02.02h0s0,0,0,0c-.04.04-.06.06-.04.04,0,0,0,0,0,0-.05.04-.09.07-.13.09.04-.1.08-.08.13-.09.02-.01.03-.02.05-.04,0,0,0,0,0,0h-.3c-.02.07.02.1.11.14Z" style="fill: #f8ffa6;"/>
            <path d="M273.15,577.11s.05-.05.08-.07c-.05.02-.08.04-.08.07Z" style="fill: #f8ffa6;"/>
            <path d="M273.31,576.89c.06-.03.2-.12.19-.06-.08.11-.16.13-.27.22.11-.05.3-.12.41-.31l-.05.03c.07-.15.44-.55.49-.58-.29.26-.5.44-.77.71Z" style="fill: #f8ffa6;"/>
            <path d="M273.71,576.04h-.26s-.25.3-.25.3l.17-.14c-.02.12.19-.06.33-.16Z" style="fill: #f8ffa6;"/>
            <polygon points="274.27 574.57 274.64 574.31 274.08 574.64 274.27 574.57" style="fill: #f8ffa6;"/>
            <polygon points="274.1 574.45 274.42 574.22 274.2 574.32 274.1 574.45" style="fill: #f8ffa6;"/>
            <path d="M263.48,568.86l-.12.03s.08-.02.12-.03Z" style="fill: #f8ffa6;"/>
            <path d="M263.65,569.12l.16-.11c-.09.05-.16.1-.16.11Z" style="fill: #f8ffa6;"/>
            <path d="M271.13,570.73c.25-.28.66-.69.31-.41l-.33.28c.09-.01.07.04.02.12Z" style="fill: #f8ffa6;"/>
            <path d="M267.07,569.75s-.06.06-.09.1c.13-.08.24-.15.35-.22-.08.04-.17.08-.26.13Z" style="fill: #f8ffa6;"/>
            <path d="M265.63,570.83l.17-.24c-.07.08-.12.15-.17.24Z" style="fill: #f8ffa6;"/>
            <path d="M262.05,567.77l-.38.23c.05.06.2-.1.38-.23Z" style="fill: #f8ffa6;"/>
            <path d="M272.75,572.99c.1-.15.13-.23.12-.27-.15.21-.42.48-.12.27Z" style="fill: #f8ffa6;"/>
            <path d="M267.18,566.12c-.08.03-.16.07-.23.13.08-.02.15-.06.23-.13Z" style="fill: #f8ffa6;"/>
            <path d="M272.77,572.59s-.04.06-.06.09c.08-.01.15-.02.16.04.12-.15.17-.27-.1-.12Z" style="fill: #f8ffa6;"/>
            <path d="M258.45,562.6s.02-.03.03-.04c-.05.04-.05.04-.03.04Z" style="fill: #f8ffa6;"/>
            <path d="M260.76,558.45s.05.02.07.04c.02-.03,0-.05-.07-.04Z" style="fill: #f8ffa6;"/>
            <path d="M273.77,573.72s.04-.02,0,0h0Z" style="fill: #f8ffa6;"/>
            <path d="M272.54,574.94s-.1.06-.18.12c.08-.06.14-.1.18-.12Z" style="fill: #f8ffa6;"/>
            <path d="M270.4,573.93s0,0,0,0c-.06.06-.05.05,0,0Z" style="fill: #f8ffa6;"/>
            <path d="M273.65,573.89s.06-.09.07-.12c-.02.03-.04.07-.07.12Z" style="fill: #f8ffa6;"/>
            <path d="M273.81,573.76s0,.04-.01.05c.06-.04.09-.07.01-.05Z" style="fill: #f8ffa6;"/>
            <path d="M273.72,573.69s.02.04,0,.08c.02-.02.04-.04.05-.05-.01,0-.03-.01-.05-.03Z" style="fill: #f8ffa6;"/>
            <path d="M261.44,564.53s.01-.02.03-.03c-.17.08-.13.08-.03.03Z" style="fill: #f8ffa6;"/>
            <path d="M266.92,572.66s.01,0,.02,0c0,0,0,0,0-.01l-.03.02Z" style="fill: #f8ffa6;"/>
            <path d="M266.57,572.75c.46-.28.43-.21.37-.11l.95-.81-1.33.92Z" style="fill: #f8ffa6;"/>
            <path d="M262.91,568.33l-.24.32c-.58.3-.46.09-.84.5,1.08-.83.36.23,1.44-.59l-.18.23s-.07.02-.07,0c-.43.51.83-.53.79-.27-.04.11-.17.27-.33.33l.35-.1s-.19.18-.19.14l.21.09-.03.02c.19-.11.49-.26.62-.32-.12.16-.13.07-.25.18l.33-.11c-.25.25-.58.39-.58.3-1,.92.33-.14-.16.53l-.2.02c-.56.53-.29.42-.6.81.18-.18.8-.94,1.15-1.05-.06.09-.07.16.19.04-.38.3-.25.28-.18.32l-.51.39c.2-.05.45-.25.71-.39.01.12-.37.44-.68.71.02.18.56-.57.77-.5-.11.25.15.16.55.05-.12.21-.32.23-.44.37l.45-.25s-.12.11-.19.16c.2-.07.51-.39.71-.41.57-.41-.68.81.03.42-.12.14-.32.23-.51.39.52-.18.4-.11,1.04-.43l-.25.36c.32-.37.84-.63,1.27-.83.16-.17.3-.32.37-.39l.37-.08c-.07.08-.25.2-.48.35.05-.02.1-.05.14-.07-.15.19-.46.4-.77.58.09-.09.18-.19.27-.29-.33.21-.69.44-.98.68.06-.04.13-.06.17-.06-.09.06-.17.11-.22.15-.05.05.07-.03.22-.11l-.54.47.23-.17-.22.45c.66-.32,1.58-.87,1.96-.85-.45.27-.68.52-1.17.9.47-.46-.34.02-.31-.16-.01.09-.25.27-.35.32l.61-.19c-.4.31-.27.27-.4.45.76-.65.63-.28.93-.39-.26.21-.55.41-.55.27-.52.56,1.03-.6.6-.11-.02-.02,0-.06-.13.04.27-.13.19.14-.07.29l-.02-.02c.02.22.34.44,1.02-.06-.09.07-.82.61-.96.71l2.45-1.51c-.59.43-1.89,1.59-2.31,1.72-.05.1-.12.22.14.13.06-.09.79-.71.86-.72-.57.59-.29.33-.76.87.1-.13,1.03-.8,1.04-.72-.14.1-.89.7-1,.76l.99-.56c-.19.09-.75.58-.98.81.16-.15.08.13.19.1l.16-.22c-.01.26,1.37-.82,1.44-.63-.2.12-1.16.84-1.21,1,.48-.32,2.31-1.55,2.76-1.69l-.24.23.38-.13c-.73.47-2.31,1.41-2.95,1.75-.16.22-.29.26-.2.32-.22.22-.41.24-.44.23v.33c.52-.42.65-.26,1.09-.61l-.72.21c.52-.42,1.6-1.05,1.62-.83-.18.2-.96.71-1.14.85.2-.12.45-.14.34-.02l-.33.16c-.14.24.8-.42.37.07,0,.06-.6.63-.29.39.56-.53,2.42-2,2.9-2.32-.03.04-.44.63-.71.9-.43.43-1.19.8-1.56,1.17.15-.11.35-.22.42-.25-.1.13-.46.34-.33.36.55-.41.08.19.48-.32.21-.05-.05.17.04.23.32-.3,1.24-.85,1.45-.89-.14.1-.3.26-.38.33.07.19-.11.46,0,.61-.12.11-.22.31-.48.46.11-.05.31-.18.35-.14-.4.45-.15-.04-.66.46.32-.24.52-.22.76-.31.47-.4-.02-.22-.26-.13.66-.52,1.44-.96,1.87-1.05.26-.01-.39.39-.28.33.06.31,1.31-.72.97-.16-.37.4-.84.66-1.13.92-.24.03.15-.36.09-.41l-.14.24c-.16.08-.32.1-.23-.03-.33.36.22.43,0,.88.17-.08.35-.14.5-.3h-.1c.3-.32.55-.28.66-.47.3-.12.74-.33.62-.08l-.47.4c.14-.11.24-.29.07-.21.25-.13-.53.67.14.22l.28-.33c.3-.12.88-.43.8-.22.44-.41-.07.02.44-.48-.65.6-.15-.25-.81.41.6-.57.19-.33.67-.85-.16.13-.28.27-.26.13-.05.03-.11.07-.15.09,0,0,0,0,0-.01,0,0-.01.01-.02.02-.03.02-.03.02,0,0-.06.07-.13.15-.21.23-.4.25-.48.12-.7.23.04-.1.2-.12.35-.28l-.33.16c.35-.28.49-.58.78-.64l-.06-.11c.15-.21.17-.35-.01-.28.04-.1-.48.19-.17.02l-.34.02.09-.07c-.07-.18-.82.15-.32-.51-.13.02-.28.05-.24-.11l.29-.26c-.16.02.16-.43-.18-.21.77-.71-.06-.45,0-.68l-.4.31c-.04-.1-.21-.08-.44-.05l-.35.28c-.35.14.08-.41-.05-.51.14-.1.13-.04.07.05.67-.78-.84.12-.37-.47-.16.07-.13,0-.06-.09,0,0,.01,0,.03,0,0,0,0-.01,0-.02.05-.06.11-.13.15-.2-.07.08-.13.15-.16.19-.03-.02-.1-.03-.23,0l.37-.31s0,0-.02,0c.11-.15-.2.11-.47.35-.08.03-.17.07-.27.13.59-.51-.29.06.33-.5-.34.22-.4-.02-1.09.49.09-.07.12-.11.14-.1.04-.11.08-.21-.14-.1l.47-.4-.73.41c.25-.29.4-.45.82-.68-.68.3-.31.05-.97.37l.32-.24s-.52.22-.28,0c.52-.56-.3-.55.06-1.23-.88.77.32-.44-.4.11.21-.18.3-.32.52-.42-.31.04.19-.46-.48-.08.21-.19.34-.22.46-.34-.05.03-.22.11-.1,0,.12-.11.2-.12.31-.18-.14-.1-.82.41-1.45.89.25-.3.18-.3-.27-.02.19-.18.37-.39.51-.37,0-.07.08-.51-.42-.13.12-.11-.01-.09-.08-.06-.05-.13-.01-.17-.14-.23l-.06.09c-.64.44-.2.02-.34,0l.06-.05c.29-.53-.27.08.08-.49l-.37.31c-.83.62.35-.54-.04-.4l-.19.21c-.32.16.98-1.03,1.03-1.17.06-.07.13-.07.2-.09.36-.53-.51.37-.71.34.25-.23.7-.5.69-.62.19-.21-1.04.46-.61-.05-.19.18-.37.37-.57.44-.14-.02.61-.83-.1-.39.05-.05.1-.1.15-.14-.22.07-.44.02-.82.25,1.26-1.08-.94.11.27-.83l-.21-.14.13-.09c-.02-.18-.34,0-.66.18.06-.09.19-.16.25-.21.1-.37.04-.35-.68-.03l.38-.32c-.26.14.41-.74-.18-.56.05-.03.12-.09.19-.12-.61.16.71-1.32-.76-.28l-.45.14c.02.25-.64.46-.82.71-.14,0,.29-.51.43-.48l-.06.07c.76-.55.1-.41.61-.8-.3-.3-.14-.95-.35-1.28l-.55.49-.05-.13c.11-.13.42-.39.46-.3.29-.3-.37.08-.5.18.12-.33.72-.47.7-.52l-.09-.03-.06.07c-.28.13-.53.32-.57.21.07-.15.33-.31.34-.35.04-.03.05-.05-.01-.05l-.06-.17-.41.41c-.27.12-.08-.15-.54.32.72-.71-.11-.73.09-.98-.4.18-.46.09-.5-.05-.07.1-.57.52-.58.38,1.08-.79.33-.52,1.03-1.19-.45.46-.32-.16-.96.51.03-.14.39-.31.6-.56-.55.14-.04-.6-.35-.71-.14.11-.32.31-.57.42l.6-.66c-.1.01-.83.59-.41.13-.11.1-.27.26-.34.26.34-.96-1.24-.44-.31-1.87-.22.27-.28.25-.32.21-.04.08-.34.27-.53.42l.38-.59c-.55.37-.19-.17-.7.2h.13c-.65.37-1.22,1.12-1.98,1.7.74-.44-.81,1,.25.39-.13.15-.26.16-.43.32.35-.22.45-.23.37-.03l-.09.05c.25.16.01.51,0,.93l.36-.31c0,.09-.12.2-.19.29.61-.38-.09-.18.58-.61-.7.67.29.39-.54,1.12.06.09.41-.36.47-.28l-.22.2.32-.21c0,.09-.28.35-.47.51.01-.03-.08,0-.11,0-.22.29.25.13.18.22l.08-.19c.4.06.31.57.95.42l.16-.15c.46-.09-.09.29.21.35l-.05.03c.2-.1.33-.12.35-.05-.24.11-.33.4-.61.52.49-.09.34-.12,1.09-.52l-.27.26c.3-.17.44-.27.59-.24-.31.12-.4.41-.8.58-.49.69.87-.22,0,.6.88-.54.32-.52.53-.6.23-.25.66-.4.63-.28.03.08-.95.91-.81,1.06,0-.02-.07.03-.08.01-.16.22.37-.1.09.23.52-.34.04.11.68-.36l-.26-.03c.23-.05,1.01-.54.77-.13-.13.09-.33.18-.44.22-.15.18.18-.02.02.17-.63.48-.27-.07-.81.22-.23.25.58-.19-.13.3.91-.61.01.24.75-.17l-.38.29c.07-.03.28-.13.29-.1l-.53.32c.48-.24-.23.45.06.35-.15-.16.42-.39.64-.68.67-.18-.88.89-.52.98-.08,0,.13-.3.34-.38-.04.11-.14.28-.31.46.2.1.37-.33.65-.44-.41.41.25-.07.44-.11l-.38.3c-.1.37.83-.57.66-.18l-.58.34.2-.02-.45.32c.39-.16.33-.07.28.12.25-.23.7-.53.77-.46-.18.23-.38.25-.24.32-.26.16-.58.37-.27.04-.13.09-.26.16-.38.25-.21.26.06.19.09.23,0-.03,0-.06.05-.11l.65-.25c-.12.14-.25.21-.38.27.07,0,.26-.11.33-.09-.32.23-.63.48-.83.53l.46-.11c-.13.12-.31.37-.44.44-.11.23.76-.26.61.04.06-.04.13-.07.19-.08.01.16-.29.55.23.35l-.5.51c.2,0,.62-.64.96-.64.27-.02-.44.41-.56.58.32-.16.97-.5.61-.04-.13.05-.07-.05-.14-.05ZM264.12,569.36c-.1.04-.38.18-.17,0,.46-.31.26-.13.17,0ZM266.49,570.51c-.14.08-.1,0,.02-.14.05,0,.05.03-.02.14ZM273.18,573.61s-.01,0-.02.01c.11-.17.06-.1.02-.01ZM273.11,573.85c.06-.03.11-.07.16-.12-.1.07-.13.05-.12,0-.09.09-.15.15-.04.12ZM263.73,562.19l-.08.1c-.15.04-.04-.03.08-.1Z" style="fill: #f8ffa6;"/>
            <path d="M265.8,570.7c.06-.06.13-.11.2-.17-.07.04-.15.1-.2.17Z" style="fill: #f8ffa6;"/>
            <path d="M262.12,567.73s0,0,0,0c-.02.02-.05.03-.07.05l.07-.04Z" style="fill: #f8ffa6;"/>
            <path d="M268.55,574.67c.04-.07.1-.13.16-.2-.09.07-.16.14-.16.2Z" style="fill: #f8ffa6;"/>
            <path d="M274.21,573.92h-.15s-.03.1-.07.17c.09-.07.21-.19.23-.17Z" style="fill: #f8ffa6;"/>
            <path d="M272.33,576.37c.05-.03.02.02.08,0l.17-.14s-.21.05-.25.15Z" style="fill: #f8ffa6;"/>
            <path d="M273,574.98c-.32.26-.17.22-.07.22,0,0,0,0,0,0,.46-.34.27-.27.08-.21Z" style="fill: #f8ffa6;"/>
            <path d="M272.94,575.2s.05.01.04.04c.18-.13.02-.05-.04-.04Z" style="fill: #f8ffa6;"/>
            <path d="M273.43,573.82c-.06.09.42-.31.3-.19.43-.29-.61.23-.3.19Z" style="fill: #f8ffa6;"/>
            <polygon points="271.97 575.84 272.35 575.51 272.02 575.74 271.97 575.84" style="fill: #f8ffa6;"/>
            <path d="M271.96,575.23l-.05.16c.07-.05.11-.07.15-.08-.02-.06.01-.17-.1-.08Z" style="fill: #f8ffa6;"/>
            <path d="M272.06,575.31s.04.05.11.01c-.01-.01-.05-.03-.11-.01Z" style="fill: #f8ffa6;"/>
            <polygon points="271.77 575.83 271.84 575.74 271.82 575.66 271.77 575.83" style="fill: #f8ffa6;"/>
            <path d="M271.37,574.32h-.18c-.14.1-.21.19-.13.18.11-.05.19-.06.31-.18Z" style="fill: #f8ffa6;"/>
            <path d="M270.5,575.43c.06-.09.15-.16.27-.27l-.49.38.22-.11Z" style="fill: #f8ffa6;"/>
            <path d="M270.19,575.27c-.14.1-.49.18-.37.27.14-.1.32-.1.37-.27Z" style="fill: #f8ffa6;"/>
            <polygon points="269.79 573.49 269.81 573.51 270.61 572.87 269.79 573.49" style="fill: #f8ffa6;"/>
            <path d="M266.98,573.85c-.11.25.51-.36.35-.08.21-.12.14-.23.32-.33-.25.1-.16-.03-.67.42Z" style="fill: #f8ffa6;"/>
            <path d="M267.65,573.44s.09-.03.15-.06c-.06.02-.11.04-.15.06Z" style="fill: #f8ffa6;"/>
            <polygon points="261 557.87 261.12 557.68 260.88 557.93 261 557.87" style="fill: #f8ffa6;"/>
            <path d="M260.31,558.21l.5-.42-.49.32s.1,0,0,.09Z" style="fill: #f8ffa6;"/>
            <path d="M263.23,570.35l.13-.09c.12-.11.12-.14.12-.18l-.25.28Z" style="fill: #f8ffa6;"/>
            <polygon points="262.92 569.17 262.92 569.19 263.36 568.8 262.92 569.17" style="fill: #f8ffa6;"/>
            <path d="M261.74,568.88s.14,0,.14.05c-.14,0,.43-.51-.14-.05Z" style="fill: #f8ffa6;"/>
          </g>
        </g>
        <g id="shine2">
          <g>
            <path d="M303.03,576.12s.38.02.46.03c-.09-.06-.57-.03-.46-.03Z" style="fill: #f8ffa6;"/>
            <polygon points="302.08 575.51 302.25 575.52 301.83 575.43 302.08 575.51" style="fill: #f8ffa6;"/>
            <path d="M302.09,574.94c-.71.05.12.21-.14.31l-.16.02.57.05c-.09-.12-.47-.28-.27-.37Z" style="fill: #f8ffa6;"/>
            <path d="M303.63,574.64c-.28.02-.24-.07-.09.07.03,0,.05,0,.07-.01,0-.01,0-.03.02-.06Z" style="fill: #f8ffa6;"/>
            <path d="M303.61,574.69c.02.06.23-.04,0,0h0Z" style="fill: #f8ffa6;"/>
            <path d="M303.45,574.42l.25.08c.16-.02.2-.09.32-.06-.14-.08-.3-.06-.57-.02Z" style="fill: #f8ffa6;"/>
            <path d="M302.93,574.34l.1.04c.07,0,.09-.02-.1-.04Z" style="fill: #f8ffa6;"/>
            <path d="M303.26,574.47l-.22-.09c-.12.01-.35.01.08.04-.21,0,0,.01.14.05Z" style="fill: #f8ffa6;"/>
            <path d="M303.15,574.52c-.16.04-.25.1-.5.02.1.15.6.13.5-.02Z" style="fill: #f8ffa6;"/>
            <path d="M301.35,574.91l-.21.06.24.05c-.12-.03.19-.11-.03-.11Z" style="fill: #f8ffa6;"/>
            <path d="M303.82,573.92c-.15,0-.4.03-.6.03l.17.06c.1-.03.2-.09.42-.09Z" style="fill: #f8ffa6;"/>
            <path d="M303.22,573.95l-.26-.09c-.03.08.09.09.26.09Z" style="fill: #f8ffa6;"/>
            <polygon points="302.14 574.33 302.69 574.47 302.13 574.3 302.14 574.33" style="fill: #f8ffa6;"/>
            <polygon points="303.84 573.59 304.19 573.64 303.66 573.55 303.84 573.59" style="fill: #f8ffa6;"/>
            <path d="M303.78,573.37c.29.04.49-.05.67-.01-.05-.06-.3-.11-.53-.16.13.05.09.1-.15.17Z" style="fill: #f8ffa6;"/>
            <path d="M303.6,573.12c.07.02.19.05.33.08-.07-.03-.16-.05-.33-.08Z" style="fill: #f8ffa6;"/>
            <path d="M303.04,573.72c.09,0,.33-.02.43-.07l-.43.03s0,.02,0,.03Z" style="fill: #f8ffa6;"/>
            <path d="M303.03,573.68h.01s.02-.06.02-.08c0,0-.01.03-.04.08Z" style="fill: #f8ffa6;"/>
            <path d="M303.04,573.73s0,0,0,0c-.04,0-.06,0,0,0Z" style="fill: #f8ffa6;"/>
            <path d="M302.53,574.1c-.24-.05-.5-.16-.86-.05.29.04.5-.02.86.05Z" style="fill: #f8ffa6;"/>
            <path d="M302.5,573.77l-.1.09c.11,0,.28-.02.4,0l-.3-.1Z" style="fill: #f8ffa6;"/>
            <polygon points="302.37 573.72 302.5 573.77 302.54 573.73 302.37 573.72" style="fill: #f8ffa6;"/>
            <path d="M303.2,573.28c-.19-.04-.2-.08-.23-.13-.08.05-.13.11-.13.16.13,0,.38.03.36-.03Z" style="fill: #f8ffa6;"/>
            <path d="M303.08,573.47s-.01,0-.02,0c-.04,0-.05,0,.02,0Z" style="fill: #f8ffa6;"/>
            <path d="M302.97,572.65s-.05,0-.08,0c.03,0,.05,0,.07,0h0Z" style="fill: #f8ffa6;"/>
            <path d="M302.76,573.31c-.08.04.02.06.15.09-.04-.03-.07-.06-.07-.1-.06,0-.1,0-.08,0Z" style="fill: #f8ffa6;"/>
            <path d="M303.4,572.98c-.09.02-.17.04-.23.07.14-.02.35-.06.23-.07Z" style="fill: #f8ffa6;"/>
            <path d="M303.17,573.45s.01,0,.02,0c.09-.01.05-.01-.02,0Z" style="fill: #f8ffa6;"/>
            <path d="M303.17,573.45c-.06-.02-.17-.04-.26-.05.03.02.08.05.14.07.03,0,.08,0,.12-.01Z" style="fill: #f8ffa6;"/>
            <path d="M300.23,572.51c.4,0,.76.11.34.2.3.09,1.6.03,2.33-.05-.17,0-.33,0-.57-.09-.22.03-.51.2-.86.13-.2-.12.14-.1.35-.16-.49.05-.72-.15-1.44-.13l.26.11c-.11,0-.29-.04-.4,0Z" style="fill: #f8ffa6;"/>
            <path d="M302.85,572.84l.05.04c.07-.04.23-.07.54-.13-.19-.06-.34-.08-.47-.08l-.06.19h-.06Z" style="fill: #f8ffa6;"/>
            <path d="M302.9,573.05c-.43-.03-.61-.12-1.08-.06.03.11.36.08.55.14-.11-.18.24.05.48-.08.07.04.1.07.11.1.05-.03.12-.06.2-.09,0,0-.02,0-.03,0h0s0,0,0,0c-.05,0-.09.01-.06,0,0,0,0,0,0,0-.06,0-.11,0-.16,0,.09-.05.11,0,.16,0,.02,0,.04,0,.06,0,0,0,0,0,0,0l-.24-.18c-.06.04-.05.09,0,.17Z" style="fill: #f8ffa6;"/>
            <path d="M300.74,573.95s.07,0,.1,0c-.05-.01-.09-.02-.1,0Z" style="fill: #f8ffa6;"/>
            <path d="M301,573.87c.06.01.23.02.19.07-.13.04-.21,0-.35,0,.11.03.31.09.52,0h-.06c.15-.08.69-.18.74-.17-.39.02-.66.04-1.04.09Z" style="fill: #f8ffa6;"/>
            <path d="M301.84,573.45l-.21-.15-.37.08h.22c-.09.08.19.06.36.07Z" style="fill: #f8ffa6;"/>
            <polygon points="303.18 572.64 303.64 572.66 303 572.57 303.18 572.64" style="fill: #f8ffa6;"/>
            <polygon points="303.13 572.44 303.53 572.45 303.29 572.4 303.13 572.44" style="fill: #f8ffa6;"/>
            <path d="M298.22,561.48l-.11-.04s.07.03.11.04Z" style="fill: #f8ffa6;"/>
            <path d="M298.19,561.8h.19c-.11,0-.19-.01-.19,0Z" style="fill: #f8ffa6;"/>
            <path d="M303.09,567.67c.37-.06.94-.14.5-.13l-.43.02c.08.04.03.08-.06.11Z" style="fill: #f8ffa6;"/>
            <path d="M300.5,564.41s-.09.01-.13.02c.15.02.29.03.41.04-.09-.02-.18-.04-.28-.06Z" style="fill: #f8ffa6;"/>
            <path d="M298.7,564.36l.28-.08c-.1.02-.19.05-.28.08Z" style="fill: #f8ffa6;"/>
            <path d="M297.76,559.75l-.44-.05c0,.08.23.04.44.05Z" style="fill: #f8ffa6;"/>
            <path d="M302.97,570.45c.17-.06.24-.1.26-.14-.25.07-.62.12-.26.14Z" style="fill: #f8ffa6;"/>
            <path d="M302.82,561.61c-.08-.03-.17-.04-.26-.04.07.03.16.04.26.04Z" style="fill: #f8ffa6;"/>
            <path d="M303.23,570.16s-.07.02-.1.03c.07.04.13.08.1.13.19-.05.3-.11,0-.16Z" style="fill: #f8ffa6;"/>
            <path d="M298.12,553.45s.03-.01.05-.01c-.06,0-.06,0-.05.01Z" style="fill: #f8ffa6;"/>
            <path d="M302.5,551.62s.03.05.03.08c.03-.01.03-.04-.03-.08Z" style="fill: #f8ffa6;"/>
            <path d="M303.32,571.66s.05,0,0,0h0Z" style="fill: #f8ffa6;"/>
            <path d="M301.6,571.86s-.11-.02-.21-.02c.1,0,.17,0,.21.02Z" style="fill: #f8ffa6;"/>
            <path d="M300.53,569.75s0,0,0,0c-.09.01-.07.01,0,0Z" style="fill: #f8ffa6;"/>
            <path d="M303.12,571.72c.05-.02.1-.03.13-.05-.03,0-.08.02-.13.05Z" style="fill: #f8ffa6;"/>
            <path d="M303.33,571.72s-.03.03-.04.04c.07,0,.12,0,.04-.04Z" style="fill: #f8ffa6;"/>
            <path d="M303.3,571.6s-.01.05-.05.07c.03,0,.05-.01.07,0,0-.01-.02-.03-.02-.06Z" style="fill: #f8ffa6;"/>
            <path d="M299.28,556.82s.02,0,.04,0c-.18-.04-.15-.02-.04,0Z" style="fill: #f8ffa6;"/>
            <path d="M298.58,566.6s.02,0,.02,0c0,0,.01,0,.02,0h-.04Z" style="fill: #f8ffa6;"/>
            <path d="M298.26,566.45c.54.06.47.1.36.15l1.25-.05-1.61-.1Z" style="fill: #f8ffa6;"/>
            <path d="M298.09,560.72l-.39.1c-.64-.13-.42-.22-.97-.12,1.36.01.14.4,1.5.42l-.29.07s-.07-.02-.05-.04c-.65.13.98.1.79.27-.1.06-.3.1-.46.06l.34.13s-.26.03-.24,0l.11.2h-.04c.21.03.54.09.68.13-.19.05-.14-.03-.31-.01l.33.11c-.35.05-.69-.05-.64-.13-1.36.11.34.09-.45.32l-.17-.11c-.77.07-.49.15-.97.27.25-.03,1.21-.24,1.55-.12-.1.03-.15.08.12.15-.48,0-.36.06-.34.15h-.64c.18.08.51.07.8.13-.06.1-.56.12-.98.14-.1.16.79-.11.91.08-.24.13.02.22.4.37-.22.09-.39-.02-.57.02l.51.08s-.17.01-.25.01c.2.07.64,0,.81.11.7.03-1.03.22-.23.35-.18.03-.39-.02-.64,0,.52.18.38.15,1.09.3l-.42.13c.48-.09,1.05.03,1.52.13.23-.03.43-.06.53-.08l.34.17c-.1.02-.32,0-.59-.02.05.01.11.02.15.03-.24.06-.61.03-.96-.01.13-.02.26-.04.39-.06-.39-.04-.82-.08-1.19-.07.07.01.14.03.17.05-.11-.01-.2-.02-.26-.01-.07,0,.07.02.24.05l-.71.04h.28s-.45.23-.45.23c.72.15,1.77.29,2.07.54-.52-.06-.85-.01-1.47-.02.66-.07-.28-.19-.15-.32-.07.07-.36.05-.47.03l.6.23c-.51,0-.38.05-.59.11,1-.04.67.17.97.26-.34,0-.68-.02-.6-.13-.75.12,1.18.16.54.28,0-.03.04-.04-.13-.05.3.06.06.22-.23.18v-.03c-.13.18-.01.56.84.58-.11,0-1.03-.02-1.2-.04l2.86.33c-.73-.03-2.47.08-2.88-.07-.1.04-.23.1.03.19.1-.03,1.06-.07,1.12-.03-.81.11-.43.08-1.13.21.16-.04,1.3,0,1.27.08-.17-.01-1.13,0-1.25-.02l1.12.18c-.2-.04-.95,0-1.27.03.22-.02-.02.15.09.2l.26-.07c-.17.2,1.58.2,1.52.39-.23-.02-1.43-.06-1.57.04.58.05,2.77.2,3.21.38l-.33.03.38.13c-.87-.08-2.69-.32-3.4-.44-.26.07-.39.02-.36.13-.31.04-.47-.06-.49-.09l-.2.26c.67-.01.67.2,1.23.19l-.7-.28c.67-.01,1.91.16,1.79.34-.27.05-1.2-.03-1.42-.03.23.02.44.17.28.19l-.36-.08c-.25.1.89.17.25.29-.04.04-.87.13-.47.13.77-.07,3.14-.08,3.72-.04-.05.01-.73.22-1.11.27-.6.07-1.43-.1-1.95-.05.18,0,.41.04.48.06-.16.04-.57-.02-.49.08.68.02-.06.2.58.05.19.09-.14.1-.11.21.44-.04,1.5.1,1.69.19-.17,0-.4.02-.5.03-.06.19-.37.3-.38.48-.16.02-.36.1-.66.07.12.03.35.05.37.11-.59.11-.09-.12-.8-.04.4,0,.55.14.79.22.61-.02.12-.18-.13-.26.84,0,1.73.14,2.12.33.21.15-.55.06-.43.09-.15.28,1.47.24.86.47-.54.09-1.07,0-1.46.02-.2-.12.34-.19.32-.27l-.25.1c-.18-.04-.31-.12-.16-.16-.48.08-.09.47-.54.69.18.04.37.11.58.07l-.08-.07c.43-.06.6.13.8.04.31.09.78.2.54.32l-.61.02c.18,0,.37-.08.18-.12.27.05-.83.2-.03.26l.42-.09c.31.09.96.21.77.32.61-.05-.07-.03.64-.11-.88.07.04-.29-.89-.18.82-.08.35-.14,1.05-.25-.2,0-.39.04-.29-.06-.06,0-.13-.01-.18-.02,0,0,0,0,.02,0,0,0-.02,0-.02,0-.03,0-.04,0,0,0-.09.02-.19.04-.31.05-.46-.05-.45-.2-.69-.25.1-.06.23.02.45,0l-.36-.08c.45,0,.75-.15,1.01-.02l.02-.12c.25-.07.35-.17.16-.23.1-.06-.5-.14-.15-.09l-.28-.19h.11c.06-.19-.74-.39.07-.6-.11-.06-.25-.13-.12-.23l.39-.02c-.14-.08.39-.24-.02-.28,1.05-.09.23-.39.41-.54h-.51c.03-.1-.12-.2-.32-.32h-.45c-.37-.1.32-.26.27-.43.17.01.13.05.02.08,1.01-.2-.74-.42,0-.6-.16-.04-.11-.08,0-.11,0,0,0,0,.02.01,0,0,0-.01,0-.02.08-.02.17-.04.24-.06-.11.02-.2.04-.24.05,0-.03-.07-.09-.18-.14l.48-.02s0,0-.01-.01c.18-.05-.23-.04-.59-.01-.08-.03-.17-.05-.29-.07.78-.04-.26-.14.57-.19-.4-.03-.3-.26-1.15-.29.11,0,.16-.02.17.01.1-.06.19-.11-.05-.17l.61-.02-.82-.13c.37-.08.59-.11,1.06-.03-.72-.18-.27-.15-.99-.3h.4s-.55-.14-.22-.17c.75-.12.1-.61.8-.93-1.17.06.52-.15-.38-.16.28-.02.43-.06.67-.01-.27-.16.44-.24-.32-.36.28-.02.4.03.57.02-.06-.01-.24-.05-.08-.07.16-.02.23.02.35.05-.05-.17-.9-.18-1.69-.19.38-.08.32-.13-.2-.19.26-.03.53-.08.63.02.04-.06.38-.35-.26-.36.16-.02.05-.08-.03-.1.04-.13.1-.14.04-.27l-.1.04c-.77-.05-.17-.11-.26-.21h.08c.56-.23-.27-.1.37-.33h-.48c-1.03,0,.61-.19.21-.33l-.27.05c-.35-.07,1.4-.21,1.53-.28.09-.02.14.03.21.05.61-.19-.63-.03-.77-.17.34-.03.86.03.92-.06.27-.05-1.1-.28-.45-.42-.26.03-.52.06-.72,0-.09-.1.99-.28.16-.37.07-.01.14-.02.2-.02-.21-.08-.35-.26-.8-.3,1.66-.07-.81-.49.72-.49l-.08-.24h.16c.1-.15-.27-.2-.63-.26.1-.04.25,0,.33,0,.31-.23.24-.25-.52-.44l.5-.02c-.29-.05.78-.33.2-.55.06,0,.15,0,.22.02-.58-.25,1.38-.6-.43-.69l-.44-.16c-.14.21-.78-.03-1.08.06-.11-.08.54-.22.64-.11l-.09.02c.94.04.33-.27.97-.26-.05-.42.47-.83.51-1.22l-.73.05.04-.14c.17-.04.57-.05.54.05.41-.05-.35-.16-.51-.17.3-.19.85.07.87.02l-.05-.08-.09.02c-.3-.06-.62-.07-.58-.19.15-.07.45-.04.48-.07.05,0,.08,0,.02-.04l.06-.17-.58.07c-.28-.08.03-.16-.62-.08,1.01-.12.36-.64.68-.72-.42-.11-.41-.21-.36-.34-.12.03-.77.05-.69-.06,1.34.04.58-.21,1.55-.3-.64.08-.16-.32-1.07-.19.11-.09.5,0,.82-.08-.52-.22.34-.5.16-.77-.18,0-.44.04-.71-.02l.88-.15c-.09-.05-1.02-.05-.4-.15-.15.01-.37.04-.43,0,.86-.54-.7-1.11.91-1.66-.34.07-.37.02-.39-.03-.08.04-.43,0-.67,0l.66-.23c-.66-.04-.04-.25-.68-.27l.11.07c-.75-.1-1.66.14-2.62.12.85.11-1.26.29-.04.47-.2.04-.31-.03-.53-.01.41.05.5.1.31.2h-.1c.1.27-.3.4-.57.72l.47-.02c-.06.07-.21.08-.33.12.72.08.04-.19.83-.12-.96.09-.01.49-1.11.55,0,.11.55-.03.54.07l-.3.03.38.03c-.06.07-.43.1-.68.11.03-.02-.07-.05-.09-.07-.35.09.12.25,0,.28l.18-.1c.28.29-.11.64.49.92l.22-.02c.41.21-.25.17-.05.41h-.05c.22.04.33.1.31.17-.26-.06-.51.11-.8.03.44.23.35.11,1.18.27l-.37.04c.34.05.51.06.61.17-.32-.1-.57.07-.99-.03-.81.25.82.36-.37.48,1.03.11.57-.21.79-.15.34-.05.77.09.66.17-.02.08-1.31.13-1.29.33,0-.02-.07-.02-.07-.04-.26.07.35.14-.07.24.62.05-.04.12.76.13l-.18-.18c.21.1,1.13.2.68.37-.16-.01-.37-.06-.49-.1-.23.05.15.1-.08.15-.79-.01-.17-.22-.78-.33-.33.05.57.21-.28.15,1.09.08-.14.19.7.33h-.47c.07.01.3.06.29.1l-.62-.07c.52.11-.46.21-.17.31-.01-.22.57-.05.92-.14.64.27-1.24.15-1.01.45-.07-.04.29-.15.5-.09-.1.06-.28.13-.53.17.1.2.49-.03.78.05-.58.07.24.1.42.18h-.48c-.31.23,1.01.06.63.26l-.67-.09.17.11-.55-.02c.41.12.3.15.15.26.34-.03.88.01.89.12-.29.07-.46-.04-.39.1-.3-.03-.68-.07-.24-.13-.16,0-.3-.03-.46-.04-.33.07-.08.19-.07.24.02-.02.04-.04.11-.06l.67.21c-.18.03-.33,0-.47-.02.05.04.27.07.32.13-.39-.02-.8-.01-.98-.1l.44.2c-.17.01-.47.1-.61.08-.23.11.76.27.46.41.08,0,.15.02.2.05-.09.14-.57.26-.03.42l-.7.09c.16.13.89-.12,1.15.09.22.15-.6.06-.8.11.35.07,1.08.2.5.34-.13-.05-.03-.08-.08-.12ZM298.41,562.28c-.1-.03-.41-.09-.13-.11.55.03.29.06.13.11ZM299.57,564.64c-.16-.02-.08-.06.1-.1.04.03.02.06-.1.1ZM302.93,571.21s-.01,0-.02,0c.19-.07.11-.04.02,0ZM302.72,571.35c.07.01.13.01.2,0-.12,0-.13-.04-.1-.08-.13,0-.21.03-.11.07ZM302.53,556.38l-.13.03c-.14-.06-.01-.04.13-.03Z" style="fill: #f8ffa6;"/>
            <path d="M298.91,564.37c.08,0,.17-.01.26-.01-.08-.01-.17-.01-.26.01Z" style="fill: #f8ffa6;"/>
            <path d="M297.84,559.76s0,0,0,0c-.03,0-.06,0-.09,0h.08Z" style="fill: #f8ffa6;"/>
            <path d="M298.63,569.19c.07-.03.16-.04.25-.06-.12,0-.22.01-.25.06Z" style="fill: #f8ffa6;"/>
            <path d="M303.54,572.09l-.13-.09s-.08.06-.16.08c.11,0,.28-.02.28,0Z" style="fill: #f8ffa6;"/>
            <path d="M300.55,572.86c.06.01,0,.03.07.04h.22c-.01-.06-.2-.1-.29-.04Z" style="fill: #f8ffa6;"/>
            <path d="M301.93,572.17c-.41,0-.27.06-.19.13,0,0,0,0,0-.01.57.02.38-.05.19-.11Z" style="fill: #f8ffa6;"/>
            <path d="M301.76,572.31s.03.04.01.06c.23,0,.05-.02-.01-.06Z" style="fill: #f8ffa6;"/>
            <path d="M302.99,571.53c-.1.03.52.02.35.04.52.03-.62-.2-.35-.04Z" style="fill: #f8ffa6;"/>
            <polygon points="300.6 572.22 301.1 572.2 300.69 572.16 300.6 572.22" style="fill: #f8ffa6;"/>
            <path d="M300.97,571.73l-.14.1c.08,0,.13.01.17.03.02-.06.12-.13-.03-.13Z" style="fill: #f8ffa6;"/>
            <path d="M301,571.85s0,.06.08.08c0-.02-.02-.05-.08-.08Z" style="fill: #f8ffa6;"/>
            <polygon points="300.45 572.08 300.55 572.06 300.59 571.98 300.45 572.08" style="fill: #f8ffa6;"/>
            <path d="M301.06,570.65l-.14-.11c-.17-.01-.28.02-.21.06.12.03.19.07.35.05Z" style="fill: #f8ffa6;"/>
            <path d="M299.69,570.98c.1-.03.22-.03.38-.05h-.62s.24.05.24.05Z" style="fill: #f8ffa6;"/>
            <path d="M299.54,570.67c-.17-.01-.49-.16-.46-.02.17.01.31.12.46.02Z" style="fill: #f8ffa6;"/>
            <polygon points="300.33 569.02 300.34 569.05 301.36 569.05 300.33 569.02" style="fill: #f8ffa6;"/>
            <path d="M297.89,567.57c-.24.13.63.03.32.15.24.03.25-.1.46-.06-.25-.08-.11-.12-.78-.08Z" style="fill: #f8ffa6;"/>
            <path d="M298.67,567.66s.09.03.15.04c-.06-.02-.11-.03-.15-.04Z" style="fill: #f8ffa6;"/>
            <polygon points="303.04 551.31 303.26 551.23 302.91 551.28 303.04 551.31" style="fill: #f8ffa6;"/>
            <path d="M302.29,551.15l.65-.02-.59-.05s.08.06-.06.07Z" style="fill: #f8ffa6;"/>
            <path d="M297.1,562.51h.16c.17,0,.18-.03.21-.06l-.36.06Z" style="fill: #f8ffa6;"/>
            <polygon points="297.58 561.38 297.57 561.4 298.16 561.36 297.58 561.38" style="fill: #f8ffa6;"/>
            <path d="M296.84,560.43s.11.08.08.12c-.11-.08.65-.13-.08-.12Z" style="fill: #f8ffa6;"/>
          </g>
        </g>
        <g id="shine">
          <g>
            <path d="M339.22,551.29s-.33-.19-.4-.22c.06.1.5.27.4.22Z" style="fill: #f8ffa6;"/>
            <polygon points="339.82 552.25 339.67 552.16 340.01 552.43 339.82 552.25" style="fill: #f8ffa6;"/>
            <path d="M339.56,552.76c.67.26-.01-.24.26-.22l.15.06-.5-.29c.03.15.3.46.09.45Z" style="fill: #f8ffa6;"/>
            <path d="M338.04,552.37c.26.1.19.16.11-.03-.03,0-.05-.01-.07-.02,0,.01,0,.03-.04.05Z" style="fill: #f8ffa6;"/>
            <path d="M338.08,552.32c0-.06-.23-.07,0,0h0Z" style="fill: #f8ffa6;"/>
            <path d="M338.1,552.64l-.19-.18c-.16-.06-.22,0-.32-.08.09.13.24.19.5.26Z" style="fill: #f8ffa6;"/>
            <path d="M338.54,552.94l-.08-.08c-.07-.02-.09-.02.08.08Z" style="fill: #f8ffa6;"/>
            <path d="M338.3,552.68l.16.17c.11.04.32.14-.05-.07.19.1.01,0-.11-.1Z" style="fill: #f8ffa6;"/>
            <path d="M338.42,552.68c.16.03.27.02.46.2-.02-.18-.49-.38-.46-.2Z" style="fill: #f8ffa6;"/>
            <path d="M340.22,553.11l.21.04-.19-.15c.1.07-.22.02-.02.11Z" style="fill: #f8ffa6;"/>
            <path d="M337.56,552.93c.13.07.38.15.55.23l-.13-.13c-.11-.02-.22,0-.42-.1Z" style="fill: #f8ffa6;"/>
            <path d="M338.11,553.16l.2.19c.06-.06-.04-.12-.2-.19Z" style="fill: #f8ffa6;"/>
            <polygon points="339.25 553.29 338.82 552.92 339.24 553.32 339.25 553.29" style="fill: #f8ffa6;"/>
            <polygon points="337.4 553.22 337.1 553.03 337.54 553.33 337.4 553.22" style="fill: #f8ffa6;"/>
            <path d="M337.36,553.45c-.25-.16-.47-.17-.61-.28.02.08.22.23.41.37-.09-.1-.04-.13.2-.09Z" style="fill: #f8ffa6;"/>
            <path d="M337.41,553.75c-.05-.05-.15-.13-.26-.21.05.05.13.12.26.21Z" style="fill: #f8ffa6;"/>
            <path d="M338.18,553.45c-.09-.03-.31-.13-.42-.13l.4.15s.01-.02.02-.03Z" style="fill: #f8ffa6;"/>
            <path d="M338.17,553.48h-.01s-.04.04-.05.05c0,0,.03-.02.07-.05Z" style="fill: #f8ffa6;"/>
            <path d="M338.18,553.44s0,0,0,0c.04.02.05.02,0,0Z" style="fill: #f8ffa6;"/>
            <path d="M338.8,553.33c.19.15.38.36.75.42-.25-.16-.46-.2-.75-.42Z" style="fill: #f8ffa6;"/>
            <path d="M338.68,553.64l.13-.04c-.1-.05-.26-.1-.35-.18l.23.22Z" style="fill: #f8ffa6;"/>
            <polygon points="338.79 553.74 338.68 553.64 338.64 553.65 338.79 553.74" style="fill: #f8ffa6;"/>
            <path d="M337.84,553.78c.15.12.15.16.15.22.1-.01.16-.04.19-.09-.12-.06-.33-.19-.34-.13Z" style="fill: #f8ffa6;"/>
            <path d="M338.04,553.65s.01.01.02.02c.03.01.05.01-.02-.02Z" style="fill: #f8ffa6;"/>
            <path d="M337.78,554.44s.05.02.07.03c-.02-.01-.04-.02-.07-.03h0Z" style="fill: #f8ffa6;"/>
            <path d="M338.25,553.94c.09,0,0-.07-.1-.14.03.05.04.09.03.12.05.03.09.05.08.03Z" style="fill: #f8ffa6;"/>
            <path d="M337.53,553.96c.09.02.17.03.24.04-.13-.04-.34-.09-.24-.04Z" style="fill: #f8ffa6;"/>
            <path d="M337.94,553.63s-.01,0-.01-.01c-.09-.03-.05,0,.01.01Z" style="fill: #f8ffa6;"/>
            <path d="M337.94,553.63s.13.11.21.16c-.02-.04-.05-.08-.1-.12-.03,0-.07-.02-.11-.04Z" style="fill: #f8ffa6;"/>
            <path d="M340.19,555.76c-.35-.18-.64-.43-.22-.33-.23-.21-1.43-.72-2.12-.96.15.08.3.15.47.33.21.06.54.03.83.26.13.2-.17.03-.38,0,.47.17.58.45,1.25.74l-.18-.21c.1.05.25.16.35.18Z" style="fill: #f8ffa6;"/>
            <path d="M337.97,554.33l-.03-.06c-.08,0-.24-.03-.54-.11.15.14.27.22.39.28l.13-.14.05.04Z" style="fill: #f8ffa6;"/>
            <path d="M338.01,554.12c.38.21.5.37.95.52.02-.11-.29-.23-.43-.37.02.21-.19-.15-.47-.14-.05-.06-.06-.1-.06-.14-.06,0-.13,0-.22,0,0,0,.02,0,.03,0h0s0,0,0,0c.05.02.08.03.05.02,0,0,0,0,0,0,.05.03.1.05.14.08-.1,0-.1-.04-.14-.08-.02,0-.04-.02-.06-.03,0,0,0,0,0,0l.14.26c.07,0,.08-.06.07-.15Z" style="fill: #f8ffa6;"/>
            <path d="M340.35,554.24s-.06-.02-.09-.04c.04.03.07.05.09.04Z" style="fill: #f8ffa6;"/>
            <path d="M340.08,554.19s-.2-.12-.14-.14c.13.02.19.09.31.15-.09-.07-.24-.21-.46-.23l.05.04c-.16,0-.69-.15-.74-.18.36.15.62.25.98.37Z" style="fill: #f8ffa6;"/>
            <path d="M339.14,554.21l.13.23.37.09-.2-.09c.12-.04-.14-.14-.29-.23Z" style="fill: #f8ffa6;"/>
            <polygon points="337.58 554.36 337.18 554.15 337.72 554.5 337.58 554.36" style="fill: #f8ffa6;"/>
            <polygon points="337.55 554.56 337.19 554.38 337.38 554.53 337.55 554.56" style="fill: #f8ffa6;"/>
            <path d="M337.24,566.57l.08.09s-.05-.06-.08-.09Z" style="fill: #f8ffa6;"/>
            <path d="M337.4,566.29l-.17-.09c.09.06.16.1.17.09Z" style="fill: #f8ffa6;"/>
            <path d="M335.53,558.88c-.36-.1-.91-.28-.5-.1l.4.17c-.05-.07,0-.08.1-.07Z" style="fill: #f8ffa6;"/>
            <path d="M336.45,562.95s.08.03.13.04c-.13-.08-.25-.15-.36-.22.07.06.15.12.23.18Z" style="fill: #f8ffa6;"/>
            <path d="M338.05,563.76l-.29-.04c.1.03.19.04.29.04Z" style="fill: #f8ffa6;"/>
            <path d="M336.91,568.33l.38.24c.03-.07-.18-.14-.38-.24Z" style="fill: #f8ffa6;"/>
            <path d="M336.83,556.42c-.18-.02-.26-.01-.3.01.25.05.61.16.3-.01Z" style="fill: #f8ffa6;"/>
            <path d="M333.14,564.47c.06.06.13.11.22.15-.05-.06-.12-.11-.22-.15Z" style="fill: #f8ffa6;"/>
            <path d="M336.47,556.58s.07.01.1.02c-.05-.07-.08-.13-.04-.16-.19-.04-.32-.03-.07.14Z" style="fill: #f8ffa6;"/>
            <path d="M333.86,573.86s-.03,0-.05,0c.05.03.06.02.05,0Z" style="fill: #f8ffa6;"/>
            <path d="M329.12,573.62s0-.05,0-.08c-.03,0-.04.02,0,.08Z" style="fill: #f8ffa6;"/>
            <path d="M337.04,555.18s-.04-.03,0,0h0Z" style="fill: #f8ffa6;"/>
            <path d="M338.67,555.74s.09.06.18.11c-.09-.05-.15-.08-.18-.11Z" style="fill: #f8ffa6;"/>
            <path d="M338.73,558.12s0,0,0,0c.08.03.07.02,0,0Z" style="fill: #f8ffa6;"/>
            <path d="M337.24,555.21c-.05,0-.1-.01-.14,0,.03,0,.08.01.14,0Z" style="fill: #f8ffa6;"/>
            <path d="M337.05,555.13s.04,0,.05-.01c-.06-.04-.11-.05-.05.01Z" style="fill: #f8ffa6;"/>
            <path d="M337.03,555.25s.03-.04.07-.04c-.03,0-.05-.01-.07-.02,0,.01,0,.03,0,.06Z" style="fill: #f8ffa6;"/>
            <path d="M334.27,570.31s-.02,0-.04,0c.14.12.13.09.04,0Z" style="fill: #f8ffa6;"/>
            <path d="M339.13,561.79s-.01,0-.02-.01c0,0-.01,0-.02,0h.03Z" style="fill: #f8ffa6;"/>
            <path d="M339.35,562.07c-.46-.29-.38-.29-.26-.29l-1.15-.5,1.41.78Z" style="fill: #f8ffa6;"/>
            <path d="M337.03,567.31l.4.07c.52.39.29.38.82.53-1.22-.6.05-.42-1.17-1.02l.29.06s.05.05.03.06c.64.16-.84-.51-.59-.58.12,0,.32.04.44.14l-.25-.27s.25.09.21.11v-.23s.03.02.03.02c-.18-.12-.45-.32-.56-.41.2.04.12.09.28.15l-.25-.24c.34.11.6.34.53.39,1.27.49-.27-.23.54-.09l.11.17c.72.27.51.08.99.17-.24-.08-1.2-.31-1.45-.56.11.01.17,0-.05-.18.44.21.36.1.37.01l.57.28c-.13-.16-.43-.29-.66-.46.1-.06.55.14.94.3.16-.1-.76-.25-.79-.46.28-.01.08-.21-.2-.51.24.01.35.18.53.23l-.43-.29s.16.06.23.1c-.15-.15-.57-.28-.69-.45-.62-.33,1.02.25.36-.22.18.05.35.18.57.28-.4-.39-.28-.3-.85-.74l.43.07c-.47-.12-.93-.48-1.31-.77-.22-.07-.42-.13-.51-.16l-.24-.3c.1.03.29.14.52.28-.04-.03-.09-.07-.13-.09.24.05.56.24.86.43-.12-.04-.25-.08-.38-.12.33.2.7.42,1.05.58-.06-.04-.11-.09-.13-.12.09.06.17.1.23.13.06.02-.06-.05-.19-.15l.66.27-.25-.13h.5c-.58-.45-1.48-1.03-1.63-1.38.45.28.76.38,1.32.65-.62-.22.17.29,0,.35.09-.03.35.11.44.17l-.44-.46c.45.22.36.12.58.16-.92-.39-.53-.44-.77-.66.31.14.61.31.48.38.73.21-.99-.65-.36-.49,0,.03-.06.02.09.1-.24-.19.04-.23.29-.07v.03c.18-.11.24-.5-.51-.89.1.05.91.46,1.06.55l-2.44-1.53c.65.34,2.26.99,2.57,1.31.11,0,.25,0,.05-.18-.11-.02-.98-.39-1.03-.45.78.25.43.12,1.11.29-.16-.03-1.17-.57-1.11-.61.15.08,1.02.48,1.12.56l-.94-.64c.16.13.86.42,1.16.52-.21-.08.08-.13,0-.22l-.27-.05c.24-.11-1.34-.86-1.2-1.01.2.12,1.26.67,1.44.64-.5-.29-2.41-1.38-2.74-1.73l.31.11-.28-.28c.75.45,2.29,1.45,2.88,1.87.27.05.36.15.38.04.3.1.4.26.4.29l.29-.15c-.61-.28-.52-.47-1.03-.7l.51.55c-.61-.28-1.65-.97-1.47-1.08.26.07,1.06.55,1.27.64-.2-.12-.32-.35-.17-.29l.29.23c.27.02-.73-.53-.1-.37.06-.02.84.26.48.08-.72-.27-2.87-1.28-3.37-1.57.05,0,.76.12,1.12.24.57.2,1.25.71,1.74.88-.16-.08-.35-.21-.41-.26.16.03.51.26.47.14-.61-.31.14-.15-.5-.29-.14-.17.17-.03.19-.14-.41-.16-1.31-.74-1.44-.91.15.08.37.16.46.19.14-.15.46-.11.55-.27.16.06.37.06.62.22-.1-.08-.3-.2-.29-.25.58.16.03.15.7.38-.35-.18-.43-.37-.62-.54-.56-.24-.18.11,0,.29-.76-.36-1.5-.87-1.77-1.21-.12-.23.52.18.42.1.25-.19-1.23-.85-.58-.8.52.15.97.46,1.33.61.13.2-.39.02-.4.11l.27.02c.14.11.23.24.07.22.47.14.29-.39.78-.39-.15-.11-.29-.25-.49-.32l.04.09c-.42-.13-.49-.38-.7-.38-.24-.21-.62-.51-.35-.53l.56.24c-.16-.07-.37-.08-.21.03-.22-.17.83.18.14-.22l-.42-.1c-.24-.22-.78-.6-.55-.62-.57-.21.05.05-.62-.18.83.32-.16.25.72.55-.78-.28-.38-.02-1.06-.22.18.08.37.13.23.18.05.03.11.07.15.1,0,0,0,0-.02,0,0,0,.02,0,.02,0,.03.02.03.02,0,0,.09.02.19.05.3.09.4.24.32.38.51.53-.11.01-.2-.12-.41-.19l.29.23c-.41-.19-.74-.19-.92-.42l-.07.1c-.26-.04-.39,0-.25.14-.11,0,.39.34.09.15l.17.29-.1-.05c-.13.14.5.67-.32.51.07.11.17.22.01.26l-.36-.15c.09.13-.46.05-.11.26-.98-.37-.38.26-.6.31l.46.22c-.07.08.02.22.15.42l.41.19c.29.25-.4.11-.43.28-.15-.08-.09-.1.02-.09-1-.26.48.7-.26.54.13.11.06.12-.05.1,0,0,0-.01-.02-.02,0,0-.01,0-.01.01-.08-.02-.17-.04-.24-.05.11.03.2.05.24.06,0,.04.02.11.1.2l-.44-.19s0,0,0,.02c-.18-.03.19.14.53.27.06.06.14.12.23.19-.72-.3.18.23-.59-.07.35.21.16.36.92.76-.1-.05-.15-.06-.15-.08-.11,0-.22.02-.03.17l-.56-.24.69.47c-.37-.09-.58-.16-.97-.43.57.48.18.25.76.7l-.35-.18c-.01.06.43.37.12.25-.73-.21-.36.51-1.13.49,1.08.45-.54-.09.27.31-.26-.1-.42-.13-.61-.28.17.26-.5.03.14.46-.26-.1-.35-.21-.5-.26.05.04.19.15.04.09-.16-.06-.2-.12-.3-.2-.03.17.73.55,1.44.91-.38-.09-.35-.03.1.25-.25-.09-.52-.16-.56-.29-.06.04-.5.15.08.44-.15-.05-.08.05-.02.1-.09.1-.15.09-.15.23h.11c.67.39.11.18.15.32l-.07-.04c-.6-.03.2.21-.48.14l.44.2c.92.47-.64-.08-.34.22l.27.07c.29.22-1.35-.42-1.5-.41-.09-.02-.12-.09-.17-.13-.63-.09.56.29.63.49-.32-.12-.76-.4-.86-.34-.27-.07.87.73.23.57.25.09.5.17.64.32.04.13-1.01-.17-.31.26-.07-.02-.13-.04-.19-.07.16.16.21.38.59.62-1.53-.65.52.79-.86.13l-.03.25-.14-.07c-.16.1.15.3.46.51-.11-.01-.23-.1-.3-.14-.38.07-.33.12.28.62l-.46-.2c.24.17-.84-.04-.42.41-.05-.03-.13-.07-.19-.12.42.48-1.5-.05.09.81l.33.34c.22-.13.69.37,1,.42.06.12-.58-.04-.62-.17l.09.02c-.83-.44-.42.1-.99-.19-.14.4-.79.54-.99.88l.68.27-.1.11c-.17-.04-.54-.2-.47-.28-.4-.13.24.3.38.37-.35.04-.74-.44-.78-.39v.1s.1.02.1.02c.24.19.52.33.44.42-.16,0-.42-.16-.46-.15-.05-.02-.07-.02-.04.03l-.13.13.55.19c.22.19-.1.13.53.34-.96-.33-.61.43-.92.35.33.28.28.37.18.47.12.02.72.29.6.35-1.19-.62-.61-.06-1.52-.4.61.2,0,.36.88.63-.14.04-.45-.21-.77-.28.37.43-.52.3-.48.63.16.08.42.15.63.32l-.86-.25c.05.09.89.48.3.31.14.05.35.13.38.19-1.01.12.15,1.31-1.54,1.11.34.08.35.14.34.2.09,0,.39.19.61.28l-.7-.08c.58.32-.07.24.49.54l-.07-.12c.63.41,1.56.59,2.41,1.02-.72-.46,1.26.28.24-.4.19.05.26.16.47.24-.35-.22-.4-.3-.19-.32l.09.05c.03-.3.45-.24.83-.41l-.44-.18c.09-.03.23.02.35.04-.61-.38-.12.16-.8-.25.91.33.22-.43,1.24-.01.05-.09-.51-.21-.46-.3l.28.1-.33-.19c.09-.04.44.09.66.2-.03,0,.04.07.05.1.35.07,0-.28.12-.26h-.21c-.13-.37.38-.52-.04-1.03l-.21-.08c-.28-.37.3-.05.22-.34l.04.03c-.18-.14-.25-.24-.2-.29.21.17.51.12.73.31-.3-.4-.27-.25-.95-.75l.35.13c-.28-.19-.44-.27-.47-.42.25.22.54.18.88.46.84.13-.58-.68.54-.27-.88-.54-.61-.05-.78-.21-.33-.1-.65-.42-.53-.44.05-.06,1.24.45,1.31.26-.01.02.06.05.04.07.27.05-.26-.28.17-.18-.54-.31.08-.09-.62-.45l.09.24c-.14-.18-.94-.67-.46-.63.14.08.31.22.4.3.23.06-.1-.15.14-.1.71.36.06.27.56.63.32.1-.43-.44.32-.01-.95-.54.21-.12-.49-.6l.42.21c-.06-.05-.24-.19-.21-.22l.52.33c-.43-.32.5.01.29-.21-.08.2-.54-.2-.89-.27-.46-.52,1.19.4,1.11.03.04.07-.32.01-.49-.14.11,0,.31,0,.55.08,0-.22-.45-.18-.68-.39.55.19-.17-.19-.3-.35l.44.21c.38-.07-.88-.49-.46-.51l.57.37-.11-.17.49.26c-.32-.28-.21-.27-.02-.3-.32-.12-.78-.39-.75-.49.29.06.4.23.4.07.26.16.58.35.16.22.14.07.26.16.4.23.33.08.15-.13.17-.18-.02.01-.06.02-.13,0l-.51-.47c.18.05.3.14.42.22-.03-.06-.22-.18-.23-.26.35.18.71.35.84.51l-.31-.36c.16.06.47.11.59.2.25,0-.57-.57-.23-.57-.07-.04-.12-.08-.16-.14.14-.08.62.02.21-.36l.67.22c-.09-.18-.85-.27-1-.57-.14-.23.56.21.76.25-.29-.22-.88-.65-.31-.52.1.1,0,.08.02.15ZM337.42,565.77c.08.07.33.26.07.16-.48-.27-.23-.18-.07-.16ZM337.39,563.14c.13.09.05.09-.13.04-.02-.04,0-.06.13-.04ZM337.2,555.76s.01,0,.02.01c-.2-.02-.12-.01-.02-.01ZM337.45,555.73c-.05-.04-.12-.07-.18-.09.11.06.1.09.05.11.12.05.2.07.13-.02ZM331.16,569.31l.13.03c.1.12,0,.05-.13-.03Z" style="fill: #f8ffa6;"/>
            <path d="M337.87,563.67c-.08-.03-.16-.06-.24-.1.07.05.15.09.24.1Z" style="fill: #f8ffa6;"/>
            <path d="M336.84,568.29s0,0,0,0c.02.01.05.03.08.04l-.07-.04Z" style="fill: #f8ffa6;"/>
            <path d="M340.2,559.44c-.07,0-.16-.03-.25-.06.11.05.2.08.25.06Z" style="fill: #f8ffa6;"/>
            <path d="M337.02,554.71l.07.13s.1-.02.18,0c-.1-.05-.26-.1-.25-.13Z" style="fill: #f8ffa6;"/>
            <path d="M340.05,555.3s0-.03-.04-.07l-.2-.09c-.01.06.14.17.25.16Z" style="fill: #f8ffa6;"/>
            <path d="M338.51,555.32c.37.17.27.06.23-.03,0,0,0,0,0,0-.5-.26-.36-.12-.22.02Z" style="fill: #f8ffa6;"/>
            <path d="M338.73,555.27s0-.05.02-.06c-.2-.1-.05,0-.02.06Z" style="fill: #f8ffa6;"/>
            <path d="M337.28,555.45c.11.02-.46-.24-.3-.18-.45-.25.48.45.3.18Z" style="fill: #f8ffa6;"/>
            <polygon points="339.73 555.85 339.27 555.66 339.62 555.86 339.73 555.85" style="fill: #f8ffa6;"/>
            <path d="M339.19,556.14l.17-.03c-.08-.03-.12-.07-.14-.1-.04.05-.16.07-.03.13Z" style="fill: #f8ffa6;"/>
            <path d="M339.21,556.01s.03-.06-.04-.11c0,.02,0,.06.04.11Z" style="fill: #f8ffa6;"/>
            <polygon points="339.81 556.04 339.7 556.02 339.64 556.07 339.81 556.04" style="fill: #f8ffa6;"/>
            <path d="M338.64,557.07l.08.16c.15.08.26.1.21.04-.1-.08-.14-.14-.3-.2Z" style="fill: #f8ffa6;"/>
            <path d="M340.02,557.36c-.11-.02-.21-.06-.36-.12l.56.27-.19-.15Z" style="fill: #f8ffa6;"/>
            <path d="M340.01,557.71c.15.08.38.36.4.21-.15-.08-.23-.24-.4-.21Z" style="fill: #f8ffa6;"/>
            <polygon points="338.59 558.86 338.6 558.83 337.68 558.39 338.59 558.86" style="fill: #f8ffa6;"/>
            <path d="M340.17,561.21c.28-.01-.55-.3-.23-.27-.2-.13-.27-.02-.44-.14.2.18.05.15.67.41Z" style="fill: #f8ffa6;"/>
            <path d="M339.5,560.8s-.07-.06-.12-.1c.05.05.09.08.12.1Z" style="fill: #f8ffa6;"/>
            <polygon points="328.5 573.66 328.27 573.64 328.6 573.74 328.5 573.66" style="fill: #f8ffa6;"/>
            <path d="M329.11,574.13l-.59-.26.51.3s-.05-.09.09-.04Z" style="fill: #f8ffa6;"/>
            <path d="M338.69,566.13l-.14-.07c-.16-.06-.18-.05-.22-.03l.36.1Z" style="fill: #f8ffa6;"/>
            <polygon points="337.77 566.94 337.79 566.92 337.25 566.7 337.77 566.94" style="fill: #f8ffa6;"/>
            <path d="M338.04,568.11s-.06-.12-.02-.15c.06.12-.64-.16.02.15Z" style="fill: #f8ffa6;"/>
          </g>
        </g>
      </g>
    </g>
  </g>
  <g id="hotspots">
    <circle id="hotspot4" cx="76.79" cy="551.08" r="31.4" style="fill: #f74;"/>
    <circle id="hotspot3" cx="155.59" cy="329.49" r="31.4" style="fill: #f74;"/>
    <circle id="hotspot2" cx="534.72" cy="606.43" r="31.4" style="fill: #f74;"/>
    <circle id="hotspot1" cx="383.16" cy="590.51" r="31.4" style="fill: #f74;"/>
  </g>
</svg>