<?xml version="1.0" encoding="UTF-8"?>
<svg id="renTegning" xmlns="http://www.w3.org/2000/svg" width="210mm" height="297mm" viewBox="0 0 595.28 841.89">
  <polygon points="480.45 356.89 364.8 350.22 382.4 307.43 307.36 273.32 206.23 266.43 19.34 301.06 30.57 422.69 4.79 510.77 165.89 505.91 328.33 484.91 509.55 499.28 485.04 430 509.55 432.33 514.91 417.3 494.23 403.95 480.45 356.89" style="fill: #ff99c6; stroke: #ff99c6; stroke-miterlimit: 10;"/>
  <g id="computer">
    <polygon points="270.86 415.7 40.79 439.02 30.57 310.85 258.32 285.83 270.86 415.7" style="fill: #bcbec0; stroke: #bcbec0; stroke-miterlimit: 10;"/>
    <polygon points="258.97 410.43 51.66 431.44 42.46 315.95 247.67 293.41 258.97 410.43" style="fill: #58595b; stroke: #58595b; stroke-miterlimit: 10;"/>
    <polygon points="318.57 468.68 13.21 499.28 40.79 439.02 270.86 415.7 318.57 468.68" style="fill: #a7a9ac; stroke: #a7a9ac; stroke-miterlimit: 10;"/>
    <polygon points="318.57 476.3 13.21 505.91 13.21 499.28 318.57 468.68 318.57 476.3" style="fill: #939598; stroke: #a7a9ac; stroke-miterlimit: 10;"/>
    <polygon points="286.04 444.91 36.19 471.02 49.34 443.96 265.98 420.94 286.04 444.91" style="fill: #939598; stroke: #939598; stroke-miterlimit: 10;"/>
    <line x1="45.86" y1="451.14" x2="270.86" y2="426.84" style="fill: #58595b; stroke: #808285; stroke-miterlimit: 10;"/>
    <line x1="42.46" y1="457.49" x2="275.51" y2="432.33" style="fill: #58595b; stroke: #808285; stroke-miterlimit: 10;"/>
    <line x1="39.92" y1="463.52" x2="279.93" y2="437.61" style="fill: #58595b; stroke: #808285; stroke-miterlimit: 10;"/>
    <polygon points="209.47 476.81 125.76 485.4 129.87 464.91 199.26 457.49 209.47 476.81" style="fill: #939598; stroke: #939598; stroke-miterlimit: 10;"/>
  </g>
  <g id="pencilCup">
    <path d="M289.47,423.19c17.36-9.08,34.72-9.08,52.09,0" style="fill: none; stroke: #262262; stroke-miterlimit: 10;"/>
    <path d="M289.47,346.09c17.36-7.49,34.72-7.49,52.09,0" style="fill: none; stroke: #262262; stroke-miterlimit: 10;"/>
    <g id="scissors">
      <path d="M306.21,336.14l19.04-.33,18.28,7.44s41.18-26.98,8.92-41.1c0,0-17.6-10.88-24.49,16.64,1.08-10.25-.44-26.45-20.94-26.18,0,0-27.96,10.67-.81,43.53ZM333.31,315.12c3.83-6.81,11.74-9.62,17.68-6.28,5.94,3.34,7.64,11.56,3.82,18.37-3.83,6.81-11.74,9.62-17.68,6.28-5.94-3.34-7.64-11.56-3.82-18.37ZM307.09,301.66c6.43-2.24,13.73,1.92,16.3,9.29,2.57,7.37-.56,15.17-6.99,17.41-6.43,2.24-13.73-1.92-16.3-9.29-2.57-7.37.56-15.17,6.99-17.41Z" style="fill: #269d00; stroke: #269d00; stroke-miterlimit: 10;"/>
      <line x1="325.25" y1="335.81" x2="327.91" y2="318.09" style="fill: #269d00; stroke: #046e00; stroke-miterlimit: 10;"/>
      <path d="M339.98,342.57l-27.61,78.04s-25.92,10.09,1.03-68l14.87-15.56,11.7,5.53Z" style="fill: #6d6e71; stroke: #58595b; stroke-miterlimit: 10;"/>
      <polygon points="309.05 336.09 313.41 352.6 323.66 341.45 320.86 335.63 309.05 336.09" style="fill: #6d6e71; stroke: #58595b; stroke-miterlimit: 10;"/>
      <path d="M332.9,362.59s-3.18,65.27-20.52,58.02l20.52-58.02Z" style="fill: #6d6e71; stroke: #58595b; stroke-miterlimit: 10;"/>
    </g>
    <g id="pencil">
      <g>
        <line x1="289.61" y1="293.57" x2="312.59" y2="412.12" style="fill: #f24600;"/>
        <path d="M283.82,295.17c6.71,34.63,13.42,69.26,20.14,103.89.95,4.89,1.89,9.77,2.84,14.66,1.47,7.57,13.04,4.37,11.57-3.19-6.71-34.63-13.42-69.26-20.14-103.89-.95-4.89-1.89-9.77-2.84-14.66-1.47-7.57-13.04-4.37-11.57,3.19h0Z" style="fill: #f24600;"/>
      </g>
      <path d="M307.97,415.39l4.55-1.78,4.82-.78c.63-.1,1.18.44,1.09,1.08l-.73,4.83-1.74,4.57c-.23.6-.98.8-1.48.4l-3.82-3.05-3.09-3.79c-.41-.5-.21-1.25.39-1.48Z" style="fill: #ffd28c; stroke: #ffd28c; stroke-miterlimit: 10;"/>
    </g>
    <path d="M341.55,423.19c-17.36,11-34.72,11-52.09,0v-77.11c17.36,6.81,34.72,6.81,52.09,0v77.11Z" style="fill: none; stroke: #262262; stroke-miterlimit: 10;"/>
    <line x1="289.47" y1="407.87" x2="310.22" y2="431.1" style="fill: none; stroke: #262262; stroke-miterlimit: 10;"/>
    <line x1="289.47" y1="398.93" x2="318.57" y2="431.1" style="fill: none; stroke: #262262; stroke-miterlimit: 10;"/>
    <line x1="289.24" y1="389.53" x2="326.57" y2="430" style="fill: none; stroke: #262262; stroke-miterlimit: 10;"/>
    <line x1="289.24" y1="380.47" x2="332.55" y2="427.43" style="fill: none; stroke: #262262; stroke-miterlimit: 10;"/>
    <line x1="293.92" y1="347.79" x2="341.09" y2="398.93" style="fill: none; stroke: #262262; stroke-miterlimit: 10;"/>
    <line x1="289.24" y1="361.55" x2="341.55" y2="418.26" style="fill: none; stroke: #262262; stroke-miterlimit: 10;"/>
    <line x1="289.47" y1="352.12" x2="341.78" y2="408.83" style="fill: none; stroke: #262262; stroke-miterlimit: 10;"/>
    <line x1="289.47" y1="370.41" x2="339.03" y2="424.14" style="fill: none; stroke: #262262; stroke-miterlimit: 10;"/>
    <line x1="304.02" y1="350.22" x2="341.09" y2="390.41" style="fill: none; stroke: #262262; stroke-miterlimit: 10;"/>
    <line x1="312.94" y1="351.43" x2="341.78" y2="382.69" style="fill: none; stroke: #262262; stroke-miterlimit: 10;"/>
    <line x1="322" y1="351.43" x2="341.09" y2="372.12" style="fill: none; stroke: #262262; stroke-miterlimit: 10;"/>
    <line x1="328.33" y1="349.6" x2="341.78" y2="364.18" style="fill: none; stroke: #262262; stroke-miterlimit: 10;"/>
    <line x1="334.83" y1="347.79" x2="341.55" y2="355.08" style="fill: none; stroke: #262262; stroke-miterlimit: 10;"/>
    <line x1="289.47" y1="417.3" x2="299.41" y2="428.08" style="fill: none; stroke: #262262; stroke-miterlimit: 10;"/>
  </g>
  <g id="paper">
    <polygon points="471.68 484.91 346.4 472.59 376.35 363.16 459.94 370.63 471.68 484.91" style="fill: #fffaee; stroke: #fffaee; stroke-miterlimit: 10;"/>
    <g>
      <line x1="424.98" y1="413.96" x2="503.91" y2="422.9" style="fill: #bc44ff;"/>
      <path d="M424.98,416.46c8.88,1.01,17.76,2.01,26.64,3.02,14.16,1.6,28.33,3.21,42.49,4.81,3.26.37,6.53.74,9.79,1.11,1.34.15,2.5-1.26,2.5-2.5,0-1.48-1.15-2.35-2.5-2.5-8.88-1.01-17.76-2.01-26.64-3.02-14.16-1.6-28.33-3.21-42.49-4.81-3.26-.37-6.53-.74-9.79-1.11-1.34-.15-2.5,1.26-2.5,2.5,0,1.48,1.15,2.35,2.5,2.5h0Z" style="fill: #bc44ff;"/>
    </g>
    <path d="M423.39,415.7c1.54,1.69-4.88-2.86-4.88-2.86l4.88-1.13s-1.54,2.3,0,4Z" style="fill: #ffd283; stroke: #ffd283; stroke-miterlimit: 10;"/>
  </g>
</svg>