<?xml version="1.0" encoding="UTF-8"?>
<svg id="Layer_1" data-name="Layer 1" xmlns="http://www.w3.org/2000/svg" width="210mm" height="297mm" viewBox="0 0 595.28 841.89">
  <path d="M303.02,173.33s-153.19-67.33-150.36,92.99c0,0-4.13,244.95-61.45,213.01,0,0-43.58,166.05,87.1,118.74,0,0,219.74,9.8,207.11,28.63,0,0,19.12-354.19,102.94-262.25,0,0-110.52-128.82-81.19-160.73,29.33-31.91-104.15-30.39-104.15-30.39Z" style="fill: #ffc88c; stroke: #ffc88c; stroke-miterlimit: 10;"/>
  <g id="phone">
    <rect x="174" y="202" width="202" height="382" rx="39.5" ry="39.5" style="fill: #2bb673; stroke: #2bb673; stroke-miterlimit: 10;"/>
    <path d="M325.5,562.23h-102.5c-16.34,0-30.36-9.92-36.37-24.07-2.01-4.74-3.13-9.96-3.13-15.43v-264.23c0-21.82,17.68-39.5,39.5-39.5h102.5c21.82,0,39.5,17.68,39.5,39.5v264.23c0,21.82-17.68,39.5-39.5,39.5Z" style="fill: #f1f2f2; stroke: #414042; stroke-miterlimit: 10;"/>
    <path d="M280,344s-20,9-5,18c0,0,21,18,17-18,0,0-8-30-29-5,0,0-20,22,0,38,0,0,42,11.05,41-23.97,0,0,15.5-38.03-29.75-36.03,0,0-50.25,8-34.25,48,0,0,18.28,44.23,57.64,25.62,0,0,36.36-13.62,29.36-53.62,0,0-15-59-52-39,0,0-74,19-50,77,0,0,5.28,49,72.64,33,0,0,59.36-9,46.36-63,0,0-3.93-88-60.96-64,0,0-86.04,4-73.04,71,0,0,2,69.89,51,68.94,0,0,32.72,10.06,84.86-11.94l19.14-31v-70s-22.1-69.1-67.36-45c0,0-68.31-1-88.98,49,0,0-13.66,34-9.66,64,0,0,11,79,65,68,0,0,52,15,92-17l9-11v-140s-26-56.2-115-18.1c0,0-70,18.26-60,88.18,0,0-5,98.92,36,105.92,0,0,84,26,117,0l22-10v-189s-100.96-76-175.98,25l-5.52,26v132s27.5,47,51.5,38c0,0,62,25.29,113,1.15l17-13.15v23.59s-162,41.41-181.5-27.59v35s91.5,60,181.5,9v20.73s-112,48.27-181.5-7.73" style="fill: #f1f2f2; stroke: #414042; stroke-miterlimit: 10;"/>
    <path d="M183.5,258.5s18.5-22.5,56.5-39.5" style="fill: #f1f2f2; stroke: #414042; stroke-miterlimit: 10;"/>
    <path d="M186.63,538.17c49.01,28.15,105.2,34.29,173.31,3.9" style="fill: none; stroke: #414042; stroke-miterlimit: 10;"/>
  </g>
  <g id="ikon1">
    <rect x="198.32" y="238.75" width="68.17" height="68.17" rx="10.34" ry="10.34" style="fill: #662d91; stroke: #662d91; stroke-miterlimit: 10;"/>
    <g>
      <path d="M230.5,243.91h7.72s-.53,15.25,11.12,13.86v7.33s-8.51,1.98-9.42-2.77v22.57s-2.29,25.34-21.69,5.74c0,0-12.67-10.69-2.18-20.79,0,0,4.55-3.17,6.73-1.19l.2,6.73s-9.11-.4-.79,9.31c0,0,8.15,7.52,8.43-1.39l-.11-39.4Z" style="fill: #a5ccff; stroke: #a5ccff; stroke-miterlimit: 10;"/>
      <path d="M234.08,247.59h7.72s-.53,15.25,11.12,13.86v7.33s-8.51,1.98-9.42-2.77v22.57s-2.29,25.34-21.69,5.74c0,0-12.67-10.69-2.18-20.79,0,0,4.55-3.17,6.73-1.19l.2,6.73s-9.11-.4-.79,9.31c0,0,8.15,7.52,8.43-1.39l-.11-39.4Z" style="fill: #cc0081; stroke: #cc0081; stroke-miterlimit: 10;"/>
      <path d="M232.61,245.8h7.72s-.53,15.25,11.12,13.86v7.33s-8.51,1.98-9.42-2.77v22.57s-2.29,25.34-21.69,5.74c0,0-12.67-10.69-2.18-20.79,0,0,4.55-3.17,6.73-1.19l.2,6.73s-9.11-.4-.79,9.31c0,0,8.15,7.52,8.43-1.39l-.11-39.4Z" style="fill: #fff0e9; stroke: #fff0e9; stroke-miterlimit: 10;"/>
    </g>
  </g>
  <g id="ikon2">
    <rect x="266.49" y="357.58" width="86.17" height="86.17" rx="20.3" ry="20.3" style="fill: #cc0081; stroke: #cc0081; stroke-miterlimit: 10;"/>
    <g>
      <rect x="279.92" y="371.92" width="59.3" height="59.3" rx="14.39" ry="14.39" style="fill: #cc0081;"/>
      <path d="M324.83,428.72h-26.82c-1.98,0-4.15.18-6.1-.24-4.84-1.05-8.64-4.98-9.38-9.92-.28-1.87-.11-3.9-.11-5.78v-21.7c0-1.82-.07-3.65.02-5.47.23-4.8,3.61-9.16,8.18-10.61,2.21-.7,4.46-.58,6.74-.58h10.23c5.73,0,11.47-.05,17.2,0,4.58.04,8.66,2.57,10.73,6.66,1.2,2.36,1.21,4.85,1.21,7.4v21.16c0,2.31,0,4.62,0,6.92-.01,3.91-1.72,7.66-4.97,9.94-2.05,1.44-4.42,2.18-6.92,2.21-3.22.04-3.22,5.04,0,5,6.07-.07,11.82-3.34,14.77-8.7,1.71-3.11,2.12-6.44,2.12-9.91v-21.93c0-2.26.02-4.51,0-6.77-.04-5.45-2.57-10.45-6.92-13.71-5.72-4.29-13.37-3.27-20.1-3.27s-13.33-.01-19.99,0c-4.72,0-9.28,1.73-12.58,5.18s-4.72,7.68-4.72,12.25v29.11c0,4.28,1.15,8.23,3.86,11.6,3.19,3.97,8.14,6.14,13.19,6.16,2.37,0,4.75,0,7.13,0h23.22c3.22,0,3.22-5,0-5Z" style="fill: #fff0e9;"/>
    </g>
    <circle cx="309.57" cy="401.52" r="16.6" style="fill: #cc0081; stroke: #fff0e9; stroke-miterlimit: 10;"/>
    <g>
      <circle cx="327.32" cy="383.14" r="2.62" style="fill: #cc0081;"/>
      <path d="M327.44,383.14c0,.12,0,.24-.02.36l.09-.66c-.04.23-.1.46-.19.67l.25-.6c-.09.21-.21.4-.35.59l.39-.51c-.13.16-.27.3-.43.43l.51-.39c-.18.14-.38.26-.59.35l.6-.25c-.22.09-.44.15-.67.19l.66-.09c-.24.03-.48.03-.72,0l.66.09c-.23-.04-.46-.1-.67-.19l.6.25c-.21-.09-.4-.21-.59-.35l.51.39c-.16-.13-.3-.27-.43-.43l.39.51c-.14-.18-.26-.38-.35-.59l.25.6c-.09-.22-.15-.44-.19-.67l.09.66c-.03-.24-.03-.48,0-.72l-.09.66c.04-.23.1-.46.19-.67l-.25.6c.09-.21.21-.4.35-.59l-.39.51c.13-.16.27-.3.43-.43l-.51.39c.18-.14.38-.26.59-.35l-.6.25c.22-.09.44-.15.67-.19l-.66.09c.24-.03.48-.03.72,0l-.66-.09c.23.04.46.1.67.19l-.6-.25c.21.09.4.21.59.35l-.51-.39c.16.13.3.27.43.43l-.39-.51c.14.18.26.38.35.59l-.25-.6c.09.22.15.44.19.67l-.09-.66c.01.12.02.24.02.36,0,.65.27,1.31.73,1.77.43.43,1.15.76,1.77.73s1.32-.24,1.77-.73.74-1.09.73-1.77c0-.49-.06-1-.22-1.47s-.34-.93-.63-1.33c-.43-.6-.81-.97-1.39-1.41-.39-.29-.83-.47-1.28-.64s-1-.24-1.49-.26-1.01.05-1.48.18c-.91.25-1.82.79-2.43,1.52-.47.57-.74,1.03-1.01,1.72-.19.46-.24.95-.29,1.45s.03,1.04.15,1.52.31.93.55,1.33.54.8.89,1.11.75.63,1.19.84c.69.32,1.21.45,1.97.54.5.06,1-.02,1.49-.11.17-.03.34-.08.5-.14.33-.13.67-.25.97-.44.43-.26.85-.58,1.18-.96.84-.99,1.32-2.14,1.34-3.44,0-.64-.28-1.32-.73-1.77s-1.15-.76-1.77-.73-1.32.24-1.77.73-.72,1.09-.73,1.77Z" style="fill: #fff0e9;"/>
    </g>
  </g>
  <g id="ikon3">
    <rect x="203.29" y="468.64" width="73.42" height="73.42" rx="11.83" ry="11.83" style="fill: #fff0e9; stroke: #d1d3d4; stroke-miterlimit: 10;"/>
    <rect x="212.21" y="484.8" width="55.57" height="37.93" rx="15.09" ry="15.09" style="fill: #e13100; stroke: #e13100; stroke-miterlimit: 10;"/>
    <path d="M249.75,505.41l-12.33,6.4c-1.13.59-2.48-.23-2.48-1.5v-13.08c0-1.28,1.37-2.1,2.5-1.49l12.33,6.68c1.2.65,1.18,2.37-.03,3Z" style="fill: #fff0e9; stroke: #fff0e9; stroke-miterlimit: 10;"/>
  </g>
</svg>