<?xml version="1.0" encoding="UTF-8"?>
<svg id="renTegning" xmlns="http://www.w3.org/2000/svg" width="210mm" height="297mm" viewBox="0 0 595.28 841.89">
  <path d="M189.37,170.59c-81.61-22.03-157.03,36.48-135.2,75.53,0,0-44.89,121.12,25.36,150.91,69.87,4.88-39.01,160.07,158.05,141.38,0,0,110.07,79.89,129.11,8.34,49.62,9.82,107.2-106.28,49.41-118.9,0,0,42.34-278.04-52.4-244.09.46-1.36-2.22-42.69-174.32-13.17Z" style="fill: #a5ccff; stroke: #a5ccff; stroke-miterlimit: 10;"/>
  <g id="theGirlInTheDoor">
    <rect x="165" y="226" width="177" height="258" style="fill: #5d0090; stroke: #5d0090; stroke-miterlimit: 10;"/>
    <g id="theGirl">
      <path d="M238.57,417.57s-19.87,9.19-7.38,20.6,30.11,25.19,30.11,25.19l1.92-51.83-24.64,6.04Z" style="fill: #ff7bb1; stroke: #ff7bb1; stroke-miterlimit: 10;"/>
      <path d="M225.13,347.84c11.8-6.92,39.32,4.88,40.04,17.21.01.24.03.49.06.74,1.34,12.43,18.11,33.2,18.11,33.2l-71.67,25.56c7.48-10.21-8.84-36.05-8.84-36.05-4.09-32.48,21.55-40.66,21.55-40.66" style="fill: #ff8c66;"/>
      <g>
        <ellipse cx="208.71" cy="396.52" rx="4.68" ry="8.04" transform="translate(-192.99 197.96) rotate(-35.94)" style="fill: #ffba83; stroke: #ffba83; stroke-miterlimit: 10;"/>
        <ellipse cx="213.54" cy="404.82" rx="2.98" ry="3.94" transform="translate(-176.21 164.88) rotate(-30.57)" style="fill: #ffba83; stroke: #ffba83; stroke-miterlimit: 10;"/>
      </g>
      <path d="M264.68,375.13c2.65,17.38-5.63,41.32-21.9,43.81-16.26,2.48-34.34-17.44-37-34.82s8.38-33.48,24.64-35.96,31.6,9.59,34.25,26.97Z" style="fill: #ffdcc3; stroke: #ffdcc3; stroke-miterlimit: 10;"/>
      <polygon points="248.96 392.27 233.45 398.19 231.37 376.28 237.76 373.62 248.96 392.27" style="fill: #ffbb90; stroke: #ffbb90; stroke-miterlimit: 10;"/>
      <path d="M226.88,377.42c-.53,1.1-3.12,3.22-6.75,5.17-3.81,2.05-7.95.53-8.41-1.24s2.44-4.82,6.75-5.17c4.88-.4,8.96.09,8.41,1.24Z" style="fill: #fff; stroke: #fff; stroke-miterlimit: 10;"/>
      <ellipse cx="218.81" cy="379.37" rx="3.38" ry="3.03" style="fill: #009461; stroke: #009461; stroke-miterlimit: 10;"/>
      <circle cx="218.81" cy="379.37" r="2.01" style="stroke: #009461; stroke-miterlimit: 10;"/>
      <circle cx="220.04" cy="377.62" r=".89" style="fill: #fff; stroke: #fff; stroke-miterlimit: 10;"/>
      <path d="M242.1,372.28c1.13.45,4.48.25,8.47-.77,4.19-1.07,6.21-5,5.34-6.61-.86-1.61-5.06-1.89-8.47.77-3.86,3.01-6.53,6.14-5.34,6.61Z" style="fill: #fff; stroke: #fff; stroke-miterlimit: 10;"/>
      <ellipse cx="249.36" cy="368.25" rx="3.38" ry="3.03" transform="translate(-183.55 266.38) rotate(-42.65)" style="fill: #009461; stroke: #009461; stroke-miterlimit: 10;"/>
      <circle cx="249.36" cy="368.25" r="2.01" style="stroke: #009461; stroke-miterlimit: 10;"/>
      <circle cx="250.26" cy="365.8" r=".89" style="fill: #fff; stroke: #fff; stroke-miterlimit: 10;"/>
      <circle cx="255.69" cy="384.94" r="3.56" style="fill: #ffb7a5; stroke: #ffb7a5; stroke-miterlimit: 10;"/>
      <circle cx="224.38" cy="396.96" r="3.56" style="fill: #ffb7a5; stroke: #ffb7a5; stroke-miterlimit: 10;"/>
      <path d="M233.03,410.54s3.7-10.06,8.64-8.6c0,0,2.53,1.29,3.84-1.35,0,0,2.72-4.69,11.04,2.01,0,0-2.1,5.39-7,6.94,0,0-7.82,2.92-8.73,2.94s-2.35,1.15-7.79-1.94Z" style="fill: #ff6a4c;"/>
      <path d="M233.04,410.68s5.19,3.23,7.86,2.11,8.76-2.96,8.76-2.96c0,0,4.85-1.74,6.79-7.07,0,0-8.37.05-9.37,1.85-.67,1.22-2.41,1.9-2.41,1.9,0,0-1.09.11-1.59-.1s-3.3-2.19-10.04,4.27Z" style="fill: #ff8c66;"/>
      <path d="M224.47,347.64s-29.79,12.58-20.77,37.27c0,0,4-11.04,17.49-15.65,0,0-3.81-5.28-1.37-10.39,0,0,1.27,10.75,3.56,9.55,0,0,30.2-13.29,37.01-8.18,0,0-16.34-23.32-35.91-12.6Z" style="fill: #ff8c66;"/>
    </g>
    <g id="theDoor">
      <rect x="255.69" y="263.36" width="7.53" height="265.81" style="fill: #7f0031; stroke: #7f0031; stroke-miterlimit: 10;"/>
      <polygon points="342 484 263.22 529.17 263.22 263.87 342 226 342 484" style="fill: #bf0034; stroke: #bf0034; stroke-miterlimit: 10;"/>
      <polygon points="263.22 263.87 255.69 263.36 333.89 226 342 226 263.22 263.87" style="fill: #b2003b; stroke: #b2003b; stroke-miterlimit: 10;"/>
    </g>
    <path id="theHand" d="M264.28,447.79s-12.91-2-12.77,9.53c0,0-1.96,13.62,10.04,9.45,4.07-.91,12.69-3.25-.26-3.4,0,0,23.66-1.96.77-4.85-1.63-.01,29.47-2.75.77-5.45,0,0,19.11-1.53,1.45-5.28Z" style="fill: #ffd0b2; stroke: #ffd0b2; stroke-miterlimit: 10;"/>
  </g>
  <g id="textBubble">
    <path d="M205.39,373.62l-9.69-19.31c.97-2.26,1.52-4.71,1.52-7.28v-24.51c0-10.96-9.66-19.84-21.58-19.84h-56.59c-11.92,0-21.58,8.88-21.58,19.84v24.51c0,10.96,9.66,19.84,21.58,19.84h56.59c3.34,0,6.48-.72,9.3-1.96l20.45,8.7Z" style="fill: #f1f2f2; stroke: #f1f2f2; stroke-miterlimit: 10;"/>
    <text transform="translate(107.17 329.26)" style="font-family: MyriadPro-Regular, &apos;Myriad Pro&apos;; font-size: 18.37px;"><tspan x="0" y="0" xml:space="preserve">    </tspan><tspan x="15.58" y="0" style="letter-spacing: .02em;">K</tspan><tspan x="25.83" y="0">aspe</tspan><tspan x="61.62" y="0" style="letter-spacing: -.05em;">r</tspan><tspan x="66.66" y="0" style="letter-spacing: 0em;">, </tspan><tspan x="0" y="22.05">vil du lege?</tspan></text>
  </g>
</svg>