<?xml version="1.0" encoding="UTF-8"?>
<svg id="renTegning" xmlns="http://www.w3.org/2000/svg" width="210mm" height="297mm" viewBox="0 0 595.28 841.89">
  <path d="M407.68,302.89s-104.24-5.28-85.44-32.36c0,0-73.11-62.31-201.03-11,0,0-142.47,18.93-106.47,137.76,0,0,48.26,104.63,45.96,118.24,0,0,149.36-49.96,173.87,36.59,0,0,176.17,27.92,173.11-36.59,0,0,28.34-135.84,36-129.29,0,0-65.11-43.83-36-83.36Z" style="fill: #ceffb2; stroke: #ceffb2; stroke-miterlimit: 10;"/>
  <g id="fodbold">
    <path d="M297.64,279.45S-36.57,220.47,27,405.83c0,0,49.02,251.25,363.06-95.74,0,0-318.89,90.38-92.43-30.65Z" style="fill: #00e94b; stroke: #00e94b; stroke-miterlimit: 10;"/>
    <circle cx="128.25" cy="386.25" r="94.25" style="fill: #fffaf2; stroke: #fffaf2; stroke-miterlimit: 10;"/>
    <path d="M93.22,420.51c-11-12.16-16.52-23.4-19.78-34.26,5.88-20.94,12.61-30.55,19.78-34.26,13.45-3.27,39.22,2.5,39.56,0s18.37,18.99,19.78,34.26c-.4,12.59-14.01,16.69-19.78,34.26-10.46,5.58-29.38,5.16-39.56,0Z" style="fill: #414042; stroke: #414042; stroke-miterlimit: 10;"/>
    <path d="M152.9,455.2c-6.15-6.95-12.64-17.39-19.78-34.26-1.62-12.17,7.65-23.34,19.78-34.26,13.19,2.69,26.37,2.69,39.56,0l19.78,34.26c-3.75,10.83-11.58,22.5-19.78,34.26h-39.56Z" style="fill: none; stroke: #414042; stroke-miterlimit: 10;"/>
    <path d="M152.9,386.25l-19.78-34.26c2.61-13.7,9.2-25.12,19.78-34.26,15.03-5.77,28.22-5.77,39.56,0,7,15.04,13.6,26.46,19.78,34.26-4.23,16.19-10.95,27.35-19.78,34.26-13.75,3.12-26.99,3.42-39.56,0Z" style="fill: none; stroke: #414042; stroke-miterlimit: 10;"/>
    <path d="M93.22,351.99c-1.92-12.47-6.69-24.31-19.78-34.26,3.49-1.68,5.84-6.13,7.25-12.86,5.91-6.07,37.5-15.62,57.61-12.86,3.16,13.7,8.89,19.14,14.26,25.73-9.39,5.53-15.63,17.7-19.78,34.26h-39.56Z" style="fill: none; stroke: #414042; stroke-miterlimit: 10;"/>
    <path d="M152.9,317.3c-7.23-7.79-13.18-15.92-14.6-25.3,20.42,1.14,38.41,10.52,54.67,25.73l-.5-.43c-14.02-1.87-27.33-2.15-39.56,0Z" style="fill: #414042; stroke: #414042; stroke-miterlimit: 10;"/>
    <path d="M212.75,420.94l-19.78-34.26,19.78-34.26h3.5c9.91,22.26,10.15,45.1.72,68.52h-4.21Z" style="fill: #414042; stroke: #414042; stroke-miterlimit: 10;"/>
    <path d="M138.55,480.5c2.27-9.16,6.35-17.68,14.35-24.86,9.83-1.72,23.97-1.23,39.56,0h0c-14.81,13.43-33.47,21.68-53.91,24.86Z" style="fill: #414042; stroke: #414042; stroke-miterlimit: 10;"/>
    <path d="M81.81,468.07c-.55-5.79-3.59-10.02-7.77-13.54,9.4-9.05,16.44-20.1,19.78-34.26h39.56c4.75,13.5,11.11,25.19,19.78,34.26-6.47,6.03-11.41,14.56-14.61,25.97-20.12,2.07-39.24-1.04-56.74-12.43Z" style="fill: none; stroke: #414042; stroke-miterlimit: 10;"/>
    <path d="M63.95,455.2c-17.81-16.38-28.79-38.3-29.52-68.52,13.2-4.2,26.38-4.21,39.56,0l19.78,34.26c-3.24,13.06-10.25,24.27-19.78,34.26h-10.04Z" style="fill: none; stroke: #414042; stroke-miterlimit: 10;"/>
    <path d="M34.43,386.68c-2.03-27.5,6.31-51.19,29.57-69.39l9.99.87c11.62,9.94,17.25,21.65,19.78,34.26l-19.78,34.26c-14.99-4.21-28.18-4.2-39.56,0Z" style="fill: none; stroke: #414042; stroke-miterlimit: 10;"/>
    <path d="M63.95,455.2l10.04-.67c4.12,2.86,6.72,7.38,7.82,13.54-5.81-1.24-11.76-5.46-17.85-12.86Z" style="fill: #414042; stroke: #414042; stroke-miterlimit: 10;"/>
    <path d="M64,317.3c2.66-4.8,8.76-9.6,18.3-14.41l-8.32,14.41h-9.99Z" style="fill: #414042; stroke: #414042; stroke-miterlimit: 10;"/>
    <path d="M192.46,317.3c13.34,11.71,21.26,23.42,23.78,35.13" style="fill: none; stroke: #414042; stroke-miterlimit: 10;"/>
    <path d="M192.46,455.2c9.47-8.87,17.63-20.29,24.5-34.26" style="fill: none; stroke: #414042; stroke-miterlimit: 10;"/>
    <polygon points="34.43 377.8 39.56 386.68 35.14 397.29 34.43 377.8" style="fill: #414042; stroke: #414042; stroke-miterlimit: 10;"/>
  </g>
  <g id="palette">
    <path d="M192.22,474.15c117.54-12.89,46.58,53.11,46.58,53.11,206.35,80.7,173.17-117.28,173.17-117.28-30.71-155.16-337.29,77.06-219.75,64.17ZM237.24,417.25c8.69,3.41,12.98,13.23,9.56,21.92-3.41,8.69-13.23,12.98-21.92,9.56s-12.98-13.23-9.56-21.92,13.23-12.98,21.92-9.56Z" style="fill: #a97c50; stroke: #c49a6c; stroke-miterlimit: 10;"/>
    <path d="M276.59,523.53s14.48,15.08,21.26-1.37c0,0,11.15,2.11,7.88-10.18,0,0-14.39-18.6-25.79-6.89,0,0-16.27,2.68-12.62,13.18l9.27,5.26Z" style="fill: #be1e2d; stroke: #be1e2d; stroke-miterlimit: 10;"/>
    <path d="M373.89,464.04s31.29,9.87,16.32-16.95c0,0,13.2-11.73.57-12.39,0,0-9.4-3.42-10.53,7.68,0,0-17.74,17.87-6.36,21.66Z" style="fill: #fff200; stroke: #fff200; stroke-miterlimit: 10;"/>
    <path d="M355.65,517.73s29.74-33.88-4.74-31.27c0,0-3.29,23.8-14.17,12.6,0,0-14.33,16.58-1.73,15.76,0,0,10.42,1.78,9.86,7.62,0,0,8.96-8.88,10.79-4.7Z" style="fill: #009939; stroke: #009939; stroke-miterlimit: 10;"/>
    <path d="M376.53,402.38s22.84-1.96,11.63-12.92c0,0-17.31-7.67-6.3-17.33,0,0-16.41,20.65-21.79,5.43-5.38-15.22-8.13,16.25-8.13,16.25,0,0,26.86,18.41,24.6,8.57Z" style="fill: #7e2aff; stroke: #7e2aff; stroke-miterlimit: 10;"/>
    <g>
      <path d="M322.24,367.08s-128.92,149.11-96.48,146.03c0,0,41.3-31.34,105.35-140.17l-8.88-5.86Z" style="fill: #c2b59b; stroke: #c2b59b; stroke-miterlimit: 10;"/>
      <polygon points="331.12 372.94 335.12 366.89 326.16 360.97 322.24 367.08 331.12 372.94" style="fill: #9b8579; stroke: #9b8579; stroke-miterlimit: 10;"/>
      <path d="M336.19,366.01s21.53-8.46,19.19-30.72c0,0-8.94,12.42-9.06,7.59,0,0,9.74-7.88,10.77-13.33,0,0-30.85,11.25-30.2,30.31l9.3,6.15Z" style="fill: #594a42; stroke: #594a42; stroke-miterlimit: 10;"/>
    </g>
  </g>
</svg>